<svg height="100%" version="1.1" width="100%" xmlns="http://www.w3.org/2000/svg" preserveAspectRatio="xMidYMid meet"
     viewBox="0 0 600 442" xmlns:xlink="http://www.w3.org/1999/xlink">
	<desc>Created with Snap</desc><defs />
	<g id="root" contentwidth="151.59210828171598" contentheight="147.33333333333334">
		<rect class="background" height="2000%" width="2000%" y="-1000%" x="-1000%" style="" fill="#ffffff" />
		<rect class="watermarklayer" height="100%" width="100%" y="0" x="0" style="" fill="none" />
		<g class="content" id="content" transform="matrix(1.014,0,0,1.014,255.942,228.7571)">
			<g class="icon" style="mask: url(#mask);">
				<svg height="145.3" version="1.1" width="149.5" xmlns="http://www.w3.org/2000/svg" x="-31.299999999999997"
				     y="-80.30000000000001">
					<desc>Created with Snap</desc><defs />
					<svg xmlns:xlink="http://www.w3.org/1999/xlink" version="1.1" xmlns="http://www.w3.org/2000/svg"
					     viewBox="0 0 149.5 145.3">
						<defs />
						<g>
							<path fill="#f15b6c" stroke="none" paint-order="stroke fill markers"
							      d=" M 52.5 72.65 C 34.75 12.500000000000007 137 -27.499999999999993 137 52.50000000000001 C 137 132.8 54.75 132.8 52.5 72.65" />
							<path fill="#50b7c1" stroke="none" paint-order="stroke fill markers"
							      d=" M 12.5 72.65 C 12.5 -7.499999999999993 74.75 12.500000000000007 97 42.50000000000001 C 54.75 192.8 32.5 132.8 12.5 72.65" />
							<path fill="#2b4490" stroke="none" class="nameBg sloganBg" paint-order="stroke fill markers"
							      d=" M 12.5 72.65 C 12.5 12.500000000000007 114.75 17.500000000000007 97 32.50000000000001 C 137 42.50000000000001 147 72.65 127 92.65 C 107 112.80000000000001 114.75 142.8 74.75 142.8 C 34.75 142.8 17.5 112.80000000000001 12.5 72.65" />
						</g>
						<desc>Created with Snap</desc>
					</svg>
				</svg>
			</g>
			<g id="icon_name_and_slogan_gap">
			</g>
			<g class="name_and_slogan" id="name_and_slogan_id">
				<g class="name">
					<path
						d="M28.9 -8.6 Q21.2 -0.5 14.8 -0.5 Q12.7 -0.5 10.9 -1.3 Q10.4 -1.4 10.2 -1.9 Q9.9 -2.5 9.9 -3 Q9.9 -3.9 10.4 -4.3 Q12.2 -5.9 16.3 -8.8 Q20.2 -11.7 22.7 -13.8 Q25.2 -15.9 27.3 -18.8 Q29.5 -21.7 30.5 -25.2 Q31 -27.1 31 -28.9 Q31 -31.7 29.8 -33.7 Q28.5 -35.8 25.8 -36.4 Q24.6 -36.6 23.5 -36.6 Q20.2 -36.6 17 -34.9 Q13.8 -33.3 12 -30.5 Q12 -28.7 12.3 -26.9 Q12.7 -25 13.3 -22.1 Q13.6 -21 14 -19.9 Q14.7 -17.3 15 -15.7 Q15.4 -14.1 15.4 -12.6 Q15.4 -11.2 15 -10.2 Q14.6 -9.1 13.8 -8.5 Q12.9 -7.8 11.9 -7.8 Q10 -7.8 8.9 -9.4 Q8.1 -10.4 7.9 -11.7 Q7.6 -13 7.4 -14.3 Q7.3 -15.6 7.2 -16.2 L7 -17.9 Q6.5 -21.8 6.4 -23.7 Q6.2 -27.4 6.2 -27.9 Q6.2 -33.1 8.6 -35.1 Q9.4 -35.6 10.2 -35.6 Q10.7 -35.6 11.2 -35.4 Q13.5 -38.4 16.9 -40.2 Q20.2 -42 23.8 -42 Q27.7 -42 30.9 -40.1 Q34.1 -38.2 35.9 -35 Q37.7 -31.8 37.7 -27.9 Q37.7 -22.7 35.2 -17.7 Q32.8 -12.8 28.9 -8.6 Z M75.8 -23.6 Q74.1 -21.6 72.8 -20.5 Q69 -17.8 63.7 -17.8 Q58.2 -17.8 54.6 -20.9 Q50.5 -24.4 50.5 -30 Q50.5 -35.3 54.2 -38.8 Q58.2 -42.8 65.3 -42.8 Q72.9 -42.8 76.7 -38.2 Q80.7 -33.3 80.7 -23.3 Q80.7 -15.8 78.8 -11.5 Q76.5 -6 72.1 -3.2 Q68.7 -0.9 64.1 -0.9 Q59.2 -0.9 54.9 -3.4 Q51.8 -5.4 50.3 -8.4 Q49.1 -10.6 49.1 -12.3 Q49.1 -14.8 50.9 -16.2 Q52.6 -17.6 55 -17.6 Q56.7 -17.6 58.1 -16.7 Q59.5 -15.9 60.1 -14.3 Q61.2 -11.5 63.2 -10.2 Q65.2 -8.9 67.2 -8.9 Q70.7 -8.9 73.3 -13 Q75.7 -17 75.7 -22.5 L75.7 -22.9 L75.8 -23.6 Z M65.4 -39.3 Q61.5 -39.3 59.1 -36.4 Q57.3 -34.2 57.3 -30.8 Q57.3 -27.2 60.1 -25.3 Q62.8 -23.4 66.2 -23.4 Q69.9 -23.4 72.8 -25.4 Q75.5 -27.4 75.5 -30.6 Q75.5 -34.2 72.7 -36.6 Q69.8 -39.3 65.4 -39.3 Z"
						style="" fill="#ffffff" id="namepathdata" />
				</g>
				<g class="slogan">
					<path
						d="M33.3 27.4 L14.7 27.4 L14.7 26 L21.8 26 L21.8 12.1 L14.7 12.1 L14.7 10.7 L33.3 10.7 L33.3 12.1 L26 12.1 L26 26 L33.3 26 L33.3 27.4 Z M35.9 21.7 L35.9 10.7 L52.4 10.7 L52.4 18.1 Q52.4 19.4 52.2 20.3 Q52 21.2 51.6 21.7 L53.3 21.7 L53.3 23.1 L34.7 23.1 L34.7 21.7 L35.9 21.7 Z M53 27.5 Q51.9 27.5 51.2 27.4 Q50.4 27.3 49.9 27.1 Q49.5 27 49.2 26.7 Q48.9 26.4 48.8 25.9 L48.3 24 L52 24 L53 27.5 Z M39.7 24 L39.1 26 Q39 26.4 38.6 26.7 Q38.3 27 37.7 27.2 Q37.2 27.3 36.5 27.4 Q35.9 27.5 35.1 27.5 L36 24 L39.7 24 Z M38.1 18.9 L47 18.9 L47 17.6 L38.1 17.6 L38.1 18.9 Z M38.1 21.7 L47 21.7 L47 20.4 L38.1 20.4 L38.1 21.7 Z M38.1 16.2 L47 16.2 L47 14.9 L38.1 14.9 L38.1 16.2 Z M38.1 13.4 L47 13.4 L47 12.2 L38.1 12.2 L38.1 13.4 Z M63.6 27.4 L63.6 15.2 L73 15.2 L73 24.6 Q73 25.2 72.9 25.7 Q72.7 26.2 72.4 26.6 Q72.1 26.9 71.6 27.1 Q71.1 27.4 70.4 27.4 L63.6 27.4 Z M57.2 15.8 L57.2 15.1 L61 15.1 L61 15.8 L62.9 15.8 L62.9 17.3 L61 17.3 L61 27.4 L57.2 27.4 L57.2 17.3 L55.1 17.3 L55.1 15.8 L57.2 15.8 Z M63.4 15 Q62.3 15 61.5 14.9 Q60.8 14.9 60.3 14.7 Q59.8 14.6 59.5 14.3 Q59.3 14.1 59.2 13.8 L58.7 12.6 L56.7 12.6 Q56.6 13.2 56.6 13.8 Q56.5 14.4 56.4 15 L54.6 15 Q54.7 14.5 54.8 13.9 Q54.9 13.3 54.9 12.7 Q55 12.2 55 11.6 Q55.1 11.1 55.1 10.7 L56.8 10.7 L56.8 11.2 L63.8 11.2 L63.8 12.6 L62.5 12.6 L63.4 15 Z M72.8 15 Q71.7 15 71 14.9 Q70.2 14.9 69.7 14.7 Q69.2 14.6 69 14.3 Q68.7 14.1 68.6 13.8 L68.2 12.6 L66.2 12.6 Q66.1 13.2 66 13.8 Q65.9 14.4 65.8 15 L64.1 15 Q64.2 14.5 64.2 13.9 Q64.3 13.3 64.4 12.7 Q64.5 12.2 64.5 11.6 Q64.5 11.1 64.5 10.7 L66.2 10.7 L66.2 11.2 L73.3 11.2 L73.3 12.6 L72 12.6 L72.8 15 Z M54.9 27.4 Q55.1 26.1 55.1 24.8 Q55.2 23.6 55.3 22.4 Q55.3 21.2 55.3 20.1 Q55.4 19 55.4 18 L56.9 18 Q56.9 20.2 56.8 22.6 Q56.7 25 56.4 27.4 L54.9 27.4 Z M62.8 18.2 Q62.8 19 62.8 19.8 Q62.8 20.6 62.9 21.7 Q62.9 22.7 63 24.1 Q63.1 25.5 63.2 27.4 L61.7 27.4 Q61.6 25.6 61.6 24.3 Q61.5 22.9 61.5 21.8 Q61.4 20.7 61.4 19.9 Q61.3 19 61.3 18.2 L62.8 18.2 Z M65.7 22.5 L68.9 22.5 L68.9 20.3 L65.7 20.3 L65.7 22.5 Z M65.7 16.6 L65.7 18.8 L68.9 18.8 L68.9 16.6 L65.7 16.6 Z M68.9 25.9 L68.9 23.9 L65.7 23.9 L65.7 25.9 L68.9 25.9 Z"
						style="" fill="#ffffff" id="sloganpathdata" />
				</g>
			</g>
			<g class="border">
			</g>
		</g>
		<defs id="defs">
			<mask xmlns="http://www.w3.org/2000/svg" id="mask">
				<rect id="showAll" fill="white" x="-31.299999999999997" y="-80.30000000000001" width="149.5" height="145.3" />
				<rect id="hideNameBg" fill="black" x="0" y="0" width="0" height="0" stroke-width="2" stroke="black" />
				<rect id="hideSloganBg" fill="black" x="0" y="0" width="0" height="0" stroke-width="2" stroke="black" />
				<path
					d="M28.9 -8.6 Q21.2 -0.5 14.8 -0.5 Q12.7 -0.5 10.9 -1.3 Q10.4 -1.4 10.2 -1.9 Q9.9 -2.5 9.9 -3 Q9.9 -3.9 10.4 -4.3 Q12.2 -5.9 16.3 -8.8 Q20.2 -11.7 22.7 -13.8 Q25.2 -15.9 27.3 -18.8 Q29.5 -21.7 30.5 -25.2 Q31 -27.1 31 -28.9 Q31 -31.7 29.8 -33.7 Q28.5 -35.8 25.8 -36.4 Q24.6 -36.6 23.5 -36.6 Q20.2 -36.6 17 -34.9 Q13.8 -33.3 12 -30.5 Q12 -28.7 12.3 -26.9 Q12.7 -25 13.3 -22.1 Q13.6 -21 14 -19.9 Q14.7 -17.3 15 -15.7 Q15.4 -14.1 15.4 -12.6 Q15.4 -11.2 15 -10.2 Q14.6 -9.1 13.8 -8.5 Q12.9 -7.8 11.9 -7.8 Q10 -7.8 8.9 -9.4 Q8.1 -10.4 7.9 -11.7 Q7.6 -13 7.4 -14.3 Q7.3 -15.6 7.2 -16.2 L7 -17.9 Q6.5 -21.8 6.4 -23.7 Q6.2 -27.4 6.2 -27.9 Q6.2 -33.1 8.6 -35.1 Q9.4 -35.6 10.2 -35.6 Q10.7 -35.6 11.2 -35.4 Q13.5 -38.4 16.9 -40.2 Q20.2 -42 23.8 -42 Q27.7 -42 30.9 -40.1 Q34.1 -38.2 35.9 -35 Q37.7 -31.8 37.7 -27.9 Q37.7 -22.7 35.2 -17.7 Q32.8 -12.8 28.9 -8.6 Z M75.8 -23.6 Q74.1 -21.6 72.8 -20.5 Q69 -17.8 63.7 -17.8 Q58.2 -17.8 54.6 -20.9 Q50.5 -24.4 50.5 -30 Q50.5 -35.3 54.2 -38.8 Q58.2 -42.8 65.3 -42.8 Q72.9 -42.8 76.7 -38.2 Q80.7 -33.3 80.7 -23.3 Q80.7 -15.8 78.8 -11.5 Q76.5 -6 72.1 -3.2 Q68.7 -0.9 64.1 -0.9 Q59.2 -0.9 54.9 -3.4 Q51.8 -5.4 50.3 -8.4 Q49.1 -10.6 49.1 -12.3 Q49.1 -14.8 50.9 -16.2 Q52.6 -17.6 55 -17.6 Q56.7 -17.6 58.1 -16.7 Q59.5 -15.9 60.1 -14.3 Q61.2 -11.5 63.2 -10.2 Q65.2 -8.9 67.2 -8.9 Q70.7 -8.9 73.3 -13 Q75.7 -17 75.7 -22.5 L75.7 -22.9 L75.8 -23.6 Z M65.4 -39.3 Q61.5 -39.3 59.1 -36.4 Q57.3 -34.2 57.3 -30.8 Q57.3 -27.2 60.1 -25.3 Q62.8 -23.4 66.2 -23.4 Q69.9 -23.4 72.8 -25.4 Q75.5 -27.4 75.5 -30.6 Q75.5 -34.2 72.7 -36.6 Q69.8 -39.3 65.4 -39.3 Z"
					style="stroke-width: 0;" fill="#000000" id="masknamepathdata" stroke="#000000" transform="matrix(1,0,0,1,0,0)" />
				<path
					d="M33.3 27.4 L14.7 27.4 L14.7 26 L21.8 26 L21.8 12.1 L14.7 12.1 L14.7 10.7 L33.3 10.7 L33.3 12.1 L26 12.1 L26 26 L33.3 26 L33.3 27.4 Z M35.9 21.7 L35.9 10.7 L52.4 10.7 L52.4 18.1 Q52.4 19.4 52.2 20.3 Q52 21.2 51.6 21.7 L53.3 21.7 L53.3 23.1 L34.7 23.1 L34.7 21.7 L35.9 21.7 Z M53 27.5 Q51.9 27.5 51.2 27.4 Q50.4 27.3 49.9 27.1 Q49.5 27 49.2 26.7 Q48.9 26.4 48.8 25.9 L48.3 24 L52 24 L53 27.5 Z M39.7 24 L39.1 26 Q39 26.4 38.6 26.7 Q38.3 27 37.7 27.2 Q37.2 27.3 36.5 27.4 Q35.9 27.5 35.1 27.5 L36 24 L39.7 24 Z M38.1 18.9 L47 18.9 L47 17.6 L38.1 17.6 L38.1 18.9 Z M38.1 21.7 L47 21.7 L47 20.4 L38.1 20.4 L38.1 21.7 Z M38.1 16.2 L47 16.2 L47 14.9 L38.1 14.9 L38.1 16.2 Z M38.1 13.4 L47 13.4 L47 12.2 L38.1 12.2 L38.1 13.4 Z M63.6 27.4 L63.6 15.2 L73 15.2 L73 24.6 Q73 25.2 72.9 25.7 Q72.7 26.2 72.4 26.6 Q72.1 26.9 71.6 27.1 Q71.1 27.4 70.4 27.4 L63.6 27.4 Z M57.2 15.8 L57.2 15.1 L61 15.1 L61 15.8 L62.9 15.8 L62.9 17.3 L61 17.3 L61 27.4 L57.2 27.4 L57.2 17.3 L55.1 17.3 L55.1 15.8 L57.2 15.8 Z M63.4 15 Q62.3 15 61.5 14.9 Q60.8 14.9 60.3 14.7 Q59.8 14.6 59.5 14.3 Q59.3 14.1 59.2 13.8 L58.7 12.6 L56.7 12.6 Q56.6 13.2 56.6 13.8 Q56.5 14.4 56.4 15 L54.6 15 Q54.7 14.5 54.8 13.9 Q54.9 13.3 54.9 12.7 Q55 12.2 55 11.6 Q55.1 11.1 55.1 10.7 L56.8 10.7 L56.8 11.2 L63.8 11.2 L63.8 12.6 L62.5 12.6 L63.4 15 Z M72.8 15 Q71.7 15 71 14.9 Q70.2 14.9 69.7 14.7 Q69.2 14.6 69 14.3 Q68.7 14.1 68.6 13.8 L68.2 12.6 L66.2 12.6 Q66.1 13.2 66 13.8 Q65.9 14.4 65.8 15 L64.1 15 Q64.2 14.5 64.2 13.9 Q64.3 13.3 64.4 12.7 Q64.5 12.2 64.5 11.6 Q64.5 11.1 64.5 10.7 L66.2 10.7 L66.2 11.2 L73.3 11.2 L73.3 12.6 L72 12.6 L72.8 15 Z M54.9 27.4 Q55.1 26.1 55.1 24.8 Q55.2 23.6 55.3 22.4 Q55.3 21.2 55.3 20.1 Q55.4 19 55.4 18 L56.9 18 Q56.9 20.2 56.8 22.6 Q56.7 25 56.4 27.4 L54.9 27.4 Z M62.8 18.2 Q62.8 19 62.8 19.8 Q62.8 20.6 62.9 21.7 Q62.9 22.7 63 24.1 Q63.1 25.5 63.2 27.4 L61.7 27.4 Q61.6 25.6 61.6 24.3 Q61.5 22.9 61.5 21.8 Q61.4 20.7 61.4 19.9 Q61.3 19 61.3 18.2 L62.8 18.2 Z M65.7 22.5 L68.9 22.5 L68.9 20.3 L65.7 20.3 L65.7 22.5 Z M65.7 16.6 L65.7 18.8 L68.9 18.8 L68.9 16.6 L65.7 16.6 Z M68.9 25.9 L68.9 23.9 L65.7 23.9 L65.7 25.9 L68.9 25.9 Z"
					style="stroke-width: 0;" fill="#000000" id="masksloganpathdata" stroke="#000000" transform="matrix(1,0,0,1,0,0)" />
			</mask>

		</defs>
	</g>
</svg>