<svg data-name="Layer 1" xmlns="http://www.w3.org/2000/svg" xmlns:xlink="http://www.w3.org/1999/xlink" viewBox="0 0 562.72 439.42"><defs><linearGradient id="a" x1="91.19" y1="302.68" x2="146" y2="261.27" gradientTransform="rotate(38.84 242.587 236.49)" gradientUnits="userSpaceOnUse"><stop offset="0" stop-color="#010101" stop-opacity="0"/><stop offset=".95" stop-color="#010101"/></linearGradient><linearGradient id="d" x1="101.96" y1="293.8" x2="180.55" y2="236.35" gradientTransform="rotate(38.84 257.776 217.566)" xlink:href="#a"/><linearGradient id="e" x1="114.75" y1="285.62" x2="230.53" y2="172.13" gradientTransform="rotate(38.84 272.97 198.656)" xlink:href="#a"/><linearGradient id="c" x1="129.85" y1="272.66" x2="302.91" y2="113.71" gradientTransform="rotate(38.84 288.164 179.745)" gradientUnits="userSpaceOnUse"><stop offset="0" stop-color="#010101" stop-opacity="0"/><stop offset=".36" stop-color="#010101" stop-opacity=".36"/><stop offset=".95" stop-color="#010101"/></linearGradient><linearGradient id="b" x1="144.04" y1="261.09" x2="243.17" y2="179.94" gradientTransform="rotate(38.84 316.801 144.329)" gradientUnits="userSpaceOnUse"><stop offset="0" stop-color="#fff" stop-opacity="0"/><stop offset=".07" stop-color="#fff" stop-opacity=".22"/><stop offset=".16" stop-color="#fff" stop-opacity=".45"/><stop offset=".25" stop-color="#fff" stop-opacity=".65"/><stop offset=".33" stop-color="#fff" stop-opacity=".8"/><stop offset=".4" stop-color="#fff" stop-opacity=".91"/><stop offset=".46" stop-color="#fff" stop-opacity=".98"/><stop offset=".51" stop-color="#fff"/></linearGradient><linearGradient id="f" x1="149.21" y1="257.97" x2="203.49" y2="211.09" gradientTransform="rotate(38.84 331.99 125.404)" xlink:href="#b"/><linearGradient id="g" x1="281.09" y1="352.88" x2="288.14" y2="293.67" xlink:href="#a"/><linearGradient id="h" x1="286.55" y1="163.37" x2="283.73" y2="377.68" xlink:href="#b"/><linearGradient id="i" x1="281.79" y1="345.2" x2="284.96" y2="409.44" xlink:href="#a"/><linearGradient id="j" x1="423.51" y1="258.04" x2="567.32" y2="269.67" xlink:href="#a"/><linearGradient id="k" x1="427.71" y1="137.08" x2="442.37" y2="138.14" xlink:href="#b"/><linearGradient id="l" x1="431.4" y1="129.69" x2="436.47" y2="130.05" xlink:href="#a"/><linearGradient id="m" x1="433.31" y1="357" x2="434.11" y2="388.72" xlink:href="#a"/><linearGradient id="n" x1="447.88" y1="393.39" x2="415.89" y2="424.05" xlink:href="#a"/><linearGradient id="o" x1="426.59" y1="242.89" x2="681.94" y2="234.96" xlink:href="#a"/><linearGradient id="p" x1="442.96" y1="100.87" x2="543.64" y2="97.74" xlink:href="#b"/><linearGradient id="q" x1="442.96" y1="108.14" x2="543.64" y2="105.01" xlink:href="#b"/><linearGradient id="r" x1="442.96" y1="115.41" x2="543.64" y2="112.28" xlink:href="#b"/><linearGradient id="s" x1="442.96" y1="122.68" x2="543.64" y2="119.55" xlink:href="#b"/><linearGradient id="t" x1="442.96" y1="129.95" x2="543.64" y2="126.82" xlink:href="#b"/><linearGradient id="u" x1="442.96" y1="137.21" x2="543.64" y2="134.09" xlink:href="#b"/><linearGradient id="v" x1="442.96" y1="144.48" x2="543.64" y2="141.36" xlink:href="#b"/><linearGradient id="w" x1="442.96" y1="151.75" x2="543.64" y2="148.63" xlink:href="#b"/><linearGradient id="x" x1="442.96" y1="159.02" x2="543.64" y2="155.9" xlink:href="#b"/><linearGradient id="y" x1="442.96" y1="166.29" x2="543.64" y2="163.16" xlink:href="#b"/><linearGradient id="z" x1="442.96" y1="173.56" x2="543.64" y2="170.43" xlink:href="#b"/><linearGradient id="A" x1="442.96" y1="180.83" x2="543.64" y2="177.7" xlink:href="#b"/><linearGradient id="B" x1="442.96" y1="188.1" x2="543.64" y2="184.97" xlink:href="#b"/><linearGradient id="C" x1="442.96" y1="195.37" x2="543.64" y2="192.24" xlink:href="#b"/><linearGradient id="D" x1="442.96" y1="202.64" x2="543.64" y2="199.51" xlink:href="#b"/><linearGradient id="E" x1="442.96" y1="209.91" x2="543.64" y2="206.78" xlink:href="#b"/><linearGradient id="F" x1="442.96" y1="217.18" x2="543.64" y2="214.05" xlink:href="#b"/><linearGradient id="G" x1="442.96" y1="224.45" x2="543.64" y2="221.32" xlink:href="#b"/><linearGradient id="H" x1="442.96" y1="231.71" x2="543.64" y2="228.59" xlink:href="#b"/><linearGradient id="I" x1="442.96" y1="238.98" x2="543.64" y2="235.86" xlink:href="#b"/><linearGradient id="J" x1="442.96" y1="246.25" x2="543.64" y2="243.13" xlink:href="#b"/><linearGradient id="K" x1="442.96" y1="253.52" x2="543.64" y2="250.4" xlink:href="#b"/><linearGradient id="L" x1="442.96" y1="260.79" x2="543.64" y2="257.67" xlink:href="#b"/><linearGradient id="M" x1="442.96" y1="268.06" x2="543.64" y2="264.93" xlink:href="#b"/><linearGradient id="N" x1="442.96" y1="275.33" x2="543.64" y2="272.2" xlink:href="#b"/><linearGradient id="O" x1="442.96" y1="282.6" x2="543.64" y2="279.47" xlink:href="#b"/><linearGradient id="P" x1="442.96" y1="289.87" x2="543.64" y2="286.74" xlink:href="#b"/><linearGradient id="Q" x1="442.96" y1="297.14" x2="543.64" y2="294.01" xlink:href="#b"/><linearGradient id="R" x1="442.96" y1="304.41" x2="543.64" y2="301.28" xlink:href="#b"/><linearGradient id="S" x1="442.96" y1="311.68" x2="543.64" y2="308.55" xlink:href="#b"/><linearGradient id="T" x1="442.96" y1="318.95" x2="543.64" y2="315.82" xlink:href="#b"/><linearGradient id="U" x1="442.96" y1="326.22" x2="543.64" y2="323.09" xlink:href="#b"/><linearGradient id="V" x1="442.96" y1="333.48" x2="543.64" y2="330.36" xlink:href="#b"/><linearGradient id="W" x1="442.96" y1="340.75" x2="543.64" y2="337.63" xlink:href="#b"/><linearGradient id="X" x1="442.96" y1="348.02" x2="543.64" y2="344.9" xlink:href="#b"/><linearGradient id="Y" x1="442.96" y1="355.29" x2="543.64" y2="352.17" xlink:href="#b"/><linearGradient id="Z" x1="442.96" y1="362.56" x2="543.64" y2="359.44" xlink:href="#b"/><linearGradient id="aa" x1="442.96" y1="369.83" x2="543.64" y2="366.7" xlink:href="#b"/><linearGradient id="ab" x1="442.96" y1="377.1" x2="543.64" y2="373.97" xlink:href="#b"/><linearGradient id="ac" x1="442.96" y1="384.37" x2="543.64" y2="381.24" xlink:href="#b"/><linearGradient id="ad" x1="39.44" y1="206.38" x2="1737.77" y2="153.63" xlink:href="#b"/><linearGradient id="ae" x1="180.65" y1="162.61" x2="183.82" y2="361.93" xlink:href="#b"/><linearGradient id="af" x1="280.34" y1="181.75" x2="278.56" y2="317.15" xlink:href="#b"/><linearGradient id="ag" x1="252.08" y1="269.03" x2="258.77" y2="-2.71" xlink:href="#a"/><linearGradient id="ah" x1="251.59" y1="269.02" x2="258.28" y2="-2.72" xlink:href="#a"/><linearGradient id="ai" x1="207.09" y1="267.92" x2="213.79" y2="-3.82" xlink:href="#a"/><linearGradient id="aj" x1="206.6" y1="267.91" x2="213.3" y2="-3.83" xlink:href="#a"/><linearGradient id="ak" x1="251.05" y1="269.01" x2="257.75" y2="-2.73" xlink:href="#a"/><linearGradient id="al" x1="207.2" y1="267.93" x2="213.89" y2="-3.81" xlink:href="#a"/><linearGradient id="am" x1="229.48" y1="268.47" x2="236.18" y2="-3.26" xlink:href="#a"/><linearGradient id="an" x1="230.52" y1="268.5" x2="237.22" y2="-3.24" xlink:href="#a"/><linearGradient id="ao" x1="227.11" y1="250.42" x2="344.74" y2="348.22" xlink:href="#b"/><linearGradient id="ap" x1="371.69" y1="174.65" x2="370.84" y2="238.96" xlink:href="#b"/><linearGradient id="aq" x1="371.69" y1="226.46" x2="370.84" y2="290.77" xlink:href="#b"/><linearGradient id="ar" x1="181.92" y1="191.35" x2="181.81" y2="199.68" xlink:href="#b"/><linearGradient id="as" x1="95.3" y1="199.15" x2="150.1" y2="157.73" gradientTransform="rotate(38.84 103.064 193.244)" xlink:href="#a"/><linearGradient id="at" x1="106.06" y1="190.27" x2="184.66" y2="132.82" gradientTransform="rotate(38.84 114.952 183.727)" xlink:href="#a"/><linearGradient id="au" x1="118.85" y1="182.09" x2="234.63" y2="68.6" gradientTransform="rotate(38.84 126.846 174.224)" xlink:href="#a"/><linearGradient id="av" x1="133.96" y1="169.13" x2="307.01" y2="10.17" gradientTransform="rotate(38.84 138.734 164.707)" xlink:href="#c"/><linearGradient id="aw" x1="148.35" y1="128.74" x2="232.52" y2="59.83" xlink:href="#b"/><linearGradient id="ax" x1="153.32" y1="154.43" x2="207.59" y2="107.56" gradientTransform="rotate(38.84 173.018 137.393)" xlink:href="#b"/><linearGradient id="ay" x1="126.16" y1="213.1" x2="144.93" y2="213.63" xlink:href="#b"/><linearGradient id="az" x1="103.09" y1="200.75" x2="151.73" y2="206.3" xlink:href="#a"/><linearGradient id="aA" x1="103.9" y1="246.5" x2="151.95" y2="251.98" xlink:href="#a"/><linearGradient id="aB" x1="266.18" y1="394.35" x2="246.09" y2="300.95" xlink:href="#a"/><linearGradient id="aC" x1="301.35" y1="376.83" x2="220.46" y2="443.97" xlink:href="#a"/></defs><path d="M120.25 32.82c-45.3 38.05-52.32 110-83 163.08-10.68 18.47-24.48 35-31.68 55.49-16.53 46.9 6.22 100.1 36.67 137.35 14.52 17.77 31.48 34.05 52 41.54 15.78 5.76 32.7 6 49.31 6.15l291 3c32.49.33 68.59-.86 91.95-26 16.1-17.31 22.64-42.59 28.19-66.72 6.82-29.65 13-61.85 2.39-90.09-12.12-32.31-42.77-50.62-61.81-78.5-30.9-45.17-30.19-113.49-69.54-149.55-18.37-16.83-42.61-23.43-66.23-26.73-44.53-6.23-86.71 5.53-130.44 3.89-37.38-1.4-77.8 1.04-108.81 27.09z" fill="#7e86f2" opacity=".1" style="isolation:isolate"/><path d="M149.51 378.36c-22.16 2.21-45 4.64-64.5 15.45-2.61 1.45-5.26 3.16-6.7 5.77-2.89 5.25.39 12.17 5.48 15.33s11.37 3.52 17.36 3.78c106.66 4.61 213.48 2.8 320.23 1 31-.52 62.49-1.12 92.2-10.05 5.34-1.6 11.21-4 13.22-9.23 2.63-6.84-3.37-14.42-10.37-16.55s-14.47-.54-21.71.39c-25.14 3.23-50.5-1.71-75.53-5.66-49-7.72-99.84-14-149.47-15.17-16.92-.39-31.37 5.43-47.93 7.73-23.91 3.34-48.24 4.81-72.28 7.21z" fill="#7e86f2" opacity=".1" style="isolation:isolate"/><path fill="#fff" d="M63.074 171.84l55.251-112.683 32.907 16.135-55.251 112.683z"/><path fill="#7e86f2" d="M75.879 168.367l6.732-13.772 22.164 10.834-6.732 13.772z"/><path transform="rotate(-63.95 70.385 182.216)" fill="url(#a)" d="M85.24 181.07h15.33v24.67H85.24z"/><path fill="#7e86f2" d="M82.612 154.702l6.732-13.773 22.164 10.834-6.732 13.773z"/><path transform="rotate(-63.95 77.113 168.551)" fill="url(#d)" d="M91.97 167.41h15.33v24.67H91.97z"/><path fill="#7e86f2" d="M89.336 141.033l6.733-13.773 22.163 10.834-6.732 13.773z"/><path transform="rotate(-63.95 83.84 154.886)" fill="url(#e)" d="M98.7 153.74h15.33v24.67H98.7z"/><path fill="#7e86f2" d="M96.08 127.377l6.732-13.772 22.164 10.834-6.733 13.772z"/><path transform="rotate(-63.95 90.58 141.218)" fill="url(#c)" d="M105.43 140.08h15.33v24.67h-15.33z"/><path fill="#7e86f2" d="M102.808 113.699l6.732-13.773 22.164 10.834-6.732 13.773z"/><path fill="#7e86f2" d="M109.541 100.044l6.733-13.773 22.163 10.834-6.732 13.773z"/><path fill="#7e86f2" d="M116.266 86.374l6.732-13.773 22.164 10.834-6.733 13.773z"/><path transform="rotate(-63.95 103.288 115.602)" fill="url(#b)" d="M118.14 114.46h15.33v24.67h-15.33z"/><path transform="rotate(-63.95 110.015 101.937)" fill="url(#f)" d="M124.88 100.8h15.33v24.67h-15.33z"/><path fill="#7e86f2" d="M259 323.78h46.52v38.42H259z"/><path fill="url(#g)" d="M259 323.78h46.52v38.42H259z"/><rect x="159.68" y="160.02" width="246.85" height="169.75" rx="9.37" fill="#7e86f2"/><path d="M401.63 201.47v140.22a8.76 8.76 0 01-8.75 8.79H177.36a8.77 8.77 0 01-8.75-8.79V201.47a8.77 8.77 0 018.75-8.79h215.52a8.76 8.76 0 018.75 8.79z" transform="translate(-2.57 -26.51)" opacity=".65" fill="url(#h)"/><path fill="#7e86f2" d="M237.15 358.32h98.33v10.22h-98.33z"/><path fill="url(#i)" d="M259.05 353.03h46.52v5.42h-46.52z"/><path d="M333.04 87.61v-9.77h-6.49a27.65 27.65 0 00-4.1-9.57l5-5-6.87-6.94-5 4.92a28.07 28.07 0 00-11-4.81v-6.87h-9.76v6.72a26.45 26.45 0 00-11 4.17l-4-4.17-7.06 6.8 3.91 4.05a27.36 27.36 0 00-5 10.7h-7v9.77h6.76a27.6 27.6 0 004.92 12.54l-4.21 4.13 6.91 7 4.24-4.21a27.44 27.44 0 0011.61 4.55v6.19h9.76v-6.34a28 28 0 0010.37-4.36l5.07 5.26 7.06-6.8-5.15-5.33a27.36 27.36 0 005-12.58zm-33.91 12.88a16.47 16.47 0 1116.49-16.45 16.44 16.44 0 01-16.49 16.45z" fill="#7e86f2"/><path d="M368.83 100.68l.44-5.78-3.85-.28a16.11 16.11 0 00-2-5.85l3.2-2.73-3.76-4.41-3.17 2.69a16.48 16.48 0 00-6.26-3.33l.31-4.07-5.77-.43-.3 4a15.8 15.8 0 00-6.67 2l-2.17-2.64-4.48 3.7 2.13 2.57a16.34 16.34 0 00-3.41 6.11l-4.13-.31-.43 5.77 3.89.3a16.31 16.31 0 002.35 7.63l-2.67 2.26 3.77 4.41 2.7-2.3a16.27 16.27 0 006.66 3.21l-.28 3.66 5.77.43.29-3.75a16.64 16.64 0 006.32-2.11l2.76 3.33 4.48-3.7-2.81-3.39a16.16 16.16 0 003.49-7.21zm-20.62 6.08a9.76 9.76 0 1110.48-9 9.74 9.74 0 01-10.48 9zM443 148.63v231a8.71 8.71 0 01-8.68 8.68h-1a8.68 8.68 0 01-8.64-8.68v-231l8.71-22.9z" fill="#7e86f2"/><path fill="url(#j)" d="M433.11 148.61h9.87v221.21h-9.87z"/><path opacity=".65" fill="url(#k)" d="M443.07 148.97l-18.4-.34 5.67-14.91 3.04-8 3.34 8 6.35 15.25z"/><path fill="url(#l)" d="M436.72 133.72h-6.38l3.04-8 3.34 8z"/><path fill="url(#m)" d="M424.26 366.12h18.77v7.93h-18.77z"/><path d="M445.57 399v7.17a8.71 8.71 0 01-8.68 8.68h-1a8.68 8.68 0 01-8.64-8.68V399z" transform="translate(-2.57 -26.51)" fill="url(#n)"/><path fill="#7e86f2" d="M450.56 95.04h49.34v293.94h-49.34z"/><path fill="url(#o)" d="M450.56 94.51h25.91v294.47h-25.91z"/><path opacity=".65" fill="url(#p)" d="M450.65 99.23h13.75v2.38h-13.75z"/><path opacity=".65" fill="url(#q)" d="M450.65 106.5h13.75v2.38h-13.75z"/><path opacity=".65" fill="url(#r)" d="M450.65 113.76h13.75v2.38h-13.75z"/><path opacity=".65" fill="url(#s)" d="M450.65 121.03h13.75v2.38h-13.75z"/><path opacity=".65" fill="url(#t)" d="M450.65 128.3h13.75v2.38h-13.75z"/><path opacity=".65" fill="url(#u)" d="M450.65 135.57h13.75v2.38h-13.75z"/><path opacity=".65" fill="url(#v)" d="M450.65 142.84h13.75v2.38h-13.75z"/><path opacity=".65" fill="url(#w)" d="M450.65 150.11h13.75v2.38h-13.75z"/><path opacity=".65" fill="url(#x)" d="M450.65 157.38h13.75v2.38h-13.75z"/><path opacity=".65" fill="url(#y)" d="M450.65 164.65h13.75v2.38h-13.75z"/><path opacity=".65" fill="url(#z)" d="M450.65 171.92h13.75v2.38h-13.75z"/><path opacity=".65" fill="url(#A)" d="M450.65 179.19h13.75v2.38h-13.75z"/><path opacity=".65" fill="url(#B)" d="M450.65 186.46h13.75v2.38h-13.75z"/><path opacity=".65" fill="url(#C)" d="M450.65 193.73h13.75v2.38h-13.75z"/><path opacity=".65" fill="url(#D)" d="M450.65 201h13.75v2.38h-13.75z"/><path opacity=".65" fill="url(#E)" d="M450.65 208.27h13.75v2.38h-13.75z"/><path opacity=".65" fill="url(#F)" d="M450.65 215.53h13.75v2.38h-13.75z"/><path opacity=".65" fill="url(#G)" d="M450.65 222.8h13.75v2.38h-13.75z"/><path opacity=".65" fill="url(#H)" d="M450.65 230.07h13.75v2.38h-13.75z"/><path opacity=".65" fill="url(#I)" d="M450.65 237.34h13.75v2.38h-13.75z"/><path opacity=".65" fill="url(#J)" d="M450.65 244.61h13.75v2.38h-13.75z"/><path opacity=".65" fill="url(#K)" d="M450.65 251.88h13.75v2.38h-13.75z"/><path opacity=".65" fill="url(#L)" d="M450.65 259.15h13.75v2.38h-13.75z"/><path opacity=".65" fill="url(#M)" d="M450.65 266.42h13.75v2.38h-13.75z"/><path opacity=".65" fill="url(#N)" d="M450.65 273.69h13.75v2.38h-13.75z"/><path opacity=".65" fill="url(#O)" d="M450.65 280.96h13.75v2.38h-13.75z"/><path opacity=".65" fill="url(#P)" d="M450.65 288.23h13.75v2.38h-13.75z"/><path opacity=".65" fill="url(#Q)" d="M450.65 295.5h13.75v2.38h-13.75z"/><path opacity=".65" fill="url(#R)" d="M450.65 302.77h13.75v2.38h-13.75z"/><path opacity=".65" fill="url(#S)" d="M450.65 310.04h13.75v2.38h-13.75z"/><path opacity=".65" fill="url(#T)" d="M450.65 317.3h13.75v2.38h-13.75z"/><path opacity=".65" fill="url(#U)" d="M450.65 324.57h13.75v2.38h-13.75z"/><path opacity=".65" fill="url(#V)" d="M450.65 331.84h13.75v2.38h-13.75z"/><path opacity=".65" fill="url(#W)" d="M450.65 339.11h13.75v2.38h-13.75z"/><path opacity=".65" fill="url(#X)" d="M450.65 346.38h13.75v2.38h-13.75z"/><path opacity=".65" fill="url(#Y)" d="M450.65 353.65h13.75v2.38h-13.75z"/><path opacity=".65" fill="url(#Z)" d="M450.65 360.92h13.75v2.38h-13.75z"/><path opacity=".65" fill="url(#aa)" d="M450.65 368.19h13.75v2.38h-13.75z"/><path opacity=".65" fill="url(#ab)" d="M450.65 375.46h13.75v2.38h-13.75z"/><path opacity=".65" fill="url(#ac)" d="M450.65 382.73h13.75v2.38h-13.75z"/><path d="M401.63 201.47v3.08h-233v-3.08a8.77 8.77 0 018.75-8.79h215.5a8.76 8.76 0 018.75 8.79z" transform="translate(-2.57 -26.51)" fill="url(#ad)"/><path fill="url(#ae)" d="M170.89 192.85h22.2v108.38h-22.2z"/><path fill="url(#af)" d="M226.58 200.07h105.73v100.1H226.58z"/><path fill="url(#ag)" d="M250.54 247.3h4.03v4.23h-4.03z"/><path fill="url(#ah)" d="M250.54 227.39h4.03v4.23h-4.03z"/><path fill="url(#ai)" d="M205.53 247.3h4.03v4.23h-4.03z"/><path fill="url(#aj)" d="M205.53 227.39h4.03v4.23h-4.03z"/><path fill="url(#ak)" d="M250.54 205.53h4.03v4.23h-4.03z"/><path fill="url(#al)" d="M206.67 205.53h4.03v4.23h-4.03z"/><path fill="url(#am)" d="M228.97 205.53H233v4.23h-4.03z"/><path fill="url(#an)" d="M228.97 247.65H233v4.23h-4.03z"/><path d="M249.25 246.71h-37.23v-35.47h37.23zm-33.48-3.75h29.73v-28h-29.73z" fill="#7e86f2"/><path d="M251.82 273.22h-37.23v-35.47h37.23zm-33.48-3.75h29.73v-28h-29.73z" transform="translate(-2.57 -26.51)" fill="url(#ao)"/><path fill="url(#ap)" d="M347.47 183.33h47.58v47.58h-47.58z"/><path fill="url(#aq)" d="M347.47 235.14h47.58v47.58h-47.58z"/><path opacity=".65" fill="url(#ar)" d="M170.49 192.58h22.73v5.95h-22.73z"/><path fill="#fff" d="M73.713 159.66l97.848-78.587 22.95 28.575-97.848 78.587z"/><path fill="#7e86f2" d="M87.414 161.871l11.958-9.658 15.542 19.243-11.958 9.658z"/><path transform="rotate(-39 63.709 182.817)" fill="url(#as)" d="M95.4 180.94h15.33v24.67H95.4z"/><path fill="#7e86f2" d="M98.68 152.43l11.94-9.614 15.472 19.215-11.94 9.615z"/><path transform="rotate(-38.84 76.039 174.141)" fill="url(#at)" d="M107.29 171.43h15.33v24.67h-15.33z"/><path fill="#7e86f2" d="M110.579 142.912l11.94-9.614 15.472 19.215-11.94 9.614z"/><path transform="rotate(-38.84 87.94 164.624)" fill="url(#au)" d="M119.19 161.91h15.33v24.67h-15.33z"/><path fill="#7e86f2" d="M122.47 133.4l11.94-9.614L149.882 143l-11.941 9.615z"/><path transform="rotate(-38.84 99.842 155.107)" fill="url(#av)" d="M131.08 152.39h15.33v24.67h-15.33z"/><path fill="#7e86f2" d="M134.929 123.629l11.957-9.658 15.542 19.243-11.957 9.658zm11.963-9.743l11.958-9.658 15.542 19.242-11.958 9.658z"/><path fill="#7e86f2" d="M158.153 104.84l11.94-9.615 15.472 19.216-11.94 9.614z"/><path fill="url(#aw)" d="M172.21 125.32l-10.22 8.02-15.47-19.22 10.22-8.02 15.47 19.22z"/><path transform="rotate(-38.84 134.104 127.801)" fill="url(#ax)" d="M165.36 125.08h15.33v24.67h-15.33z"/><path d="M132.85 163.39v59.1h-10.33v-59.1a5.12 5.12 0 013.45-4.84v-5.9a1.84 1.84 0 013.68 0v6a5.15 5.15 0 013.2 4.74z" fill="#7e86f2"/><path d="M135.42 189.9V249h-10.33v-59.1a5.12 5.12 0 013.45-4.84v-5.9a1.84 1.84 0 013.68 0v6a5.15 5.15 0 013.2 4.74z" transform="translate(-2.57 -26.51)" fill="url(#ay)"/><rect x="115.91" y="201.3" width="23.53" height="4.49" rx="2.25" fill="#7e86f2"/><path d="M127.9 241.13c-4.09 0-7.49-6.13-7.49-10.22v-27.09h14.8v27.09c0 4.09-3.23 10.22-7.31 10.22z" fill="#7e86f2"/><rect x="115.91" y="201.3" width="23.53" height="4.49" rx="2.25" fill="url(#az)"/><path d="M130.47 267.64c-4.09 0-7.49-6.13-7.49-10.22v-25.2h14.8v25.2c0 4.09-3.23 10.22-7.31 10.22z" transform="translate(-2.57 -26.51)" fill="url(#aA)"/><path d="M223.43 269.81c-.38-1.95-.62-4.71.11-4.9 1.54-.42-.11 4.9-.11 4.9z" fill="#28353d"/><path d="M291.25 362.2c-.23 6-4.85 28.05-5 34.06 0 2 .53 5.07-.11 7-1.32 4.09-6 3.53-6.61 1.12l-.23-1.2c-2.17-11.68 1.32-24.93 0-40.18-.79-9.31-4.47-27.26-6.88-27.38-1.27 0-30.26 61.52-32.78 65.31-1.24 1.91-4.73 1.61-6.42 3.15s14.08-46.64 20.69-72.1a81.06 81.06 0 003-16.11c.18-3.15-.83-4.21 2.06-5.14 2-.64 4.77-.46 6.91-.61 2.33-.18 24-.22 24 1.32-.21 8.36 1.93 36.9 1.37 50.76z" fill="#606161"/><path d="M293.82 388.71c-.23 6-4.85 28.05-5 34.06 0 2 .53 5.07-.11 7-1.32 4.09-6 3.53-6.61 1.12l-.23-1.2c-2.17-11.68 1.32-24.93 0-40.18-.79-9.31-4.47-27.26-6.88-27.38-1.27 0-30.26 61.52-32.78 65.31-1.24 1.91-4.73 1.61-6.42 3.15s14.08-46.64 20.69-72.1a81.06 81.06 0 003-16.11c.18-3.15-.83-4.21 2.06-5.14 2-.64 4.77-.46 6.91-.61 2.33-.18 24-.22 24 1.32-.21 8.36 1.93 36.9 1.37 50.76z" transform="translate(-2.57 -26.51)" fill="url(#aB)"/><path d="M265.85 234.21c-.18-1.88-1.06-2.9-1.92-2.9s-1.39 1-1.21 2.9a2.87 2.87 0 002.48 2.76c.87 0 .84-.88.65-2.76zm15.96.11c.12-1.88 1-2.9 1.91-2.9s1.5 1 1.36 2.9a2.79 2.79 0 01-2.5 2.75c-.9 0-.91-.87-.77-2.75z" fill="#ffcd9c"/><path d="M283.05 242.3c-.12 1-4.25 5.38-8.95 5.38s-8.58-4-9.4-5.6 2.48-22.18 4.39-23.9 9.65-.59 10.3.32c1.56 2.15 4.17 19.81 3.66 23.8z" fill="#f4ad7d"/><path d="M281.15 227.11c-.68.32-3.35-6.35-3.91-7.47s-.47-2.27.21-2.59 1.68.34 2.24 1.45 2.13 8.3 1.46 8.61zm-14.39-.5c-.71-.23 1.17-7 1.58-8.17s1.33-1.94 2-1.71.95 1.37.54 2.55-3.45 7.56-4.12 7.33z" fill="#ffcd9c"/><path d="M268.93 241.83h10.61l1.59 9.37c-5.78 2.9-9.15 2.58-13.66-.64z" fill="#f4ad7d"/><path d="M273.13 243.61c0-.19.38-.35.84-.35s.84.16.84.35-.37.22-.84.22-.84-.02-.84-.22z" fill="#f4ad7d"/><path d="M283.53 238.89c.38-2.3 1-18.77-.52-20.95s-10.62-3.59-12-3.25c-3.09.76-2.55 3-2.55 3a5.32 5.32 0 00-2.61.73c-1.06.72-3.29 11.1-1.51 18.95.8 3.53 3.95 6.6 9.39 6.75 6.7.18 9.34-2.38 9.8-5.23z" fill="#606161"/><path d="M271.24 215.31a3.57 3.57 0 012.66-.81 23.23 23.23 0 018.52 1.57 10.53 10.53 0 014 2.51 5.16 5.16 0 011.41 4.39c-.5 2.36-3 3.82-3.82 6.09-.66 1.82-.19 3.58-.17 5.41a27.31 27.31 0 01-.32 4.42c-.46 2.85-3.09 5.41-9.84 5.24-5.44-.15-8.59-3.22-9.39-6.75a38.71 38.71 0 01.83-17.62 39.25 39.25 0 008.94 1 38.56 38.56 0 009.47-1.1c.53 3.06.52 9.19.35 13.77" fill="#606161"/><path d="M254.62 249.73a9.94 9.94 0 00-4.62 1.59c-2.37 1.86-2.55 5.33-2.51 8.35a70.57 70.57 0 00.87 12.5c.71 3.79 2 7.43 3.06 11.14a72.14 72.14 0 012.61 18.53c0 3.44-.06 7.22 2.09 9.91 2.35 2.92 6.51 3.49 10.25 3.7 5.31.31 10.64.35 15.95.13 3.56-.16 7.35-.51 10.17-2.69 2.25-1.74 7.52-60.61 3.43-62.1s-8.49-1.87-12.83-2.23c-9.73-.82-18.89-1.47-28.47 1.17z" fill="#7e86f2"/><path d="M286.79 398.77c-.52 6.69-1.76 31-1.76 31l-3.16-.11c-2.17-11.68 1.32-24.93 0-40.18-.79-9.31-4.47-27.26-6.88-27.38.72-6 4.77-5.1 4.77-5.1a87.72 87.72 0 017.59 13.93c2.41 6.32-.03 21.12-.56 27.84z" transform="translate(-2.57 -26.51)" fill="url(#aC)"/><path d="M224.67 403.26a3.17 3.17 0 00-1.08 1.46 2.27 2.27 0 00.13 1.43 4.12 4.12 0 002.87 2.23 12.08 12.08 0 003.75.13l4-.27a11.05 11.05 0 003-.49 3.69 3.69 0 002.22-1.92 5.16 5.16 0 00.27-2.11c0-3.31-1.16-6-4.78-5.19a23.83 23.83 0 00-10.38 4.73zm66.42 1.31a2.8 2.8 0 01.95 1.29 2 2 0 01-.11 1.25 3.58 3.58 0 01-2.52 1.95 10.36 10.36 0 01-3.29.12l-3.48-.24a9.62 9.62 0 01-2.61-.42 3.22 3.22 0 01-1.94-1.69 4.59 4.59 0 01-.24-1.85c0-2.9 1-5.29 4.19-4.55a20.81 20.81 0 019.05 4.14zm4.83-153.78s15.25 9.2 19.83 20.83-15 39.66-15 39.66l-4.19-4.41s10.22-21.15 8.64-26.44-7.77-10.22-7.77-10.22zm-44.84 18.36s-21.68 9.7-30.49 4.94.26-28.67.26-28.67l5.9 2s-4.93 12.19.71 14S250 251.34 250 251.34z" fill="#7e86f2"/><path d="M291.9 310.17a4.44 4.44 0 00-1.43 1.65 4 4 0 00-.21 1.75 4.79 4.79 0 001.66 3.75 5.64 5.64 0 002.5.74 4.7 4.7 0 001.63 0 1.65 1.65 0 001.22-1 4 4 0 00.09-1c.07-1.65 1.23-3 2.19-4.35a1.77 1.77 0 00.43-.93 1.71 1.71 0 00-.38-1.05c-.65-.94-2.26-2.67-3.55-2.52s-3.15 2.14-4.15 2.96zm-61.56-67.8a3.41 3.41 0 00.54-1.31 1.16 1.16 0 00-.61-1.19c-.69-.27-1.51.44-2.19.14a1.53 1.53 0 01-.56-.54 7.56 7.56 0 01-1.33-3.94 8 8 0 00-.2-2.24 1.59 1.59 0 00-1.7-1.17c-.64.15-1 .8-1.4 1.32s-1.2 1.14-1.72 1.79a8.85 8.85 0 00-1.47 4.49c-.28 2-.46 4.29.94 5.73 1.08 1.11 4.37 2.42 5.88 1.83 1.67-.66 2.98-3.47 3.82-4.91z" fill="#f4ad7d"/></svg>