<svg xmlns="http://www.w3.org/2000/svg" viewBox="0 0 491.85 500"><defs><linearGradient id="Безымянный_градиент_15" x1="-275.98" y1="2331.78" x2="-275.98" y2="2193.53" gradientTransform="matrix(.87 .5 0 1.15 511.49 -2300.61)" gradientUnits="userSpaceOnUse"><stop offset=".21" stop-color="#fff" stop-opacity="0"/><stop offset="1" stop-color="#fff" stop-opacity=".2"/></linearGradient><style>.cls-1{fill:#b1b4c4}.cls-2{fill:#e4e7f2}.cls-15,.cls-3,.cls-6{fill:#d6d8e5}.cls-6{opacity:.4}.cls-7{fill:#2b303f}.cls-9{fill:#e9eaf2}.cls-10{fill:#8c50ff}.cls-15{opacity:.3}.cls-16{opacity:.1}.cls-17{opacity:.15}.cls-18{fill:#2b2a30}.cls-19{fill:#ffcea9}.cls-20{fill:#f4f4f4}.cls-21{fill:#bf4b4b}.cls-22{fill:#e26161}.cls-23{fill:#ededed}.cls-24{fill:#3a2c6d}.cls-25{fill:#bfbfbf}.cls-26{fill:#e5e5e5}.cls-27{fill:#38226d}.cls-28{fill:#9c73ff}.cls-29{fill:#a1a5b5}</style></defs><g id="Слой_2" data-name="Слой 2"><g id="Слой_1-2" data-name="Слой 1"><g id="Laptop"><path class="cls-1" d="M378.18 323.54L171.46 204.19c-2.9-1.67-5.25-6.16-5.25-10V34.25c0-3.86 2.35-5.64 5.25-4l206.72 119.39c2.9 1.67 5.25 6.16 5.25 10v159.9c0 3.9-2.35 5.68-5.25 4z"/><path class="cls-1" d="M379.24 325.19l2.3-1.32-1-6.79-1.3 8.11zM165.84 31.27l2.25-1.3 3.24 1.85s-3.45.52-3.53.5-1.96-1.05-1.96-1.05z"/><path class="cls-2" d="M376.29 324.64L169.56 205.29c-2.9-1.68-5.25-6.17-5.25-10V35.35c0-3.87 2.35-5.64 5.25-4l206.73 119.38c2.9 1.67 5.25 6.17 5.25 10v159.94c0 3.86-2.35 5.64-5.25 3.97z"/><path class="cls-3" d="M375.92 324.85L169.2 205.49c-2.9-1.67-5.25-6.16-5.25-10V35.56c0-3.87 2.35-5.65 5.25-4l206.72 119.38c2.9 1.67 5.25 6.16 5.25 10v159.94c0 3.86-2.35 5.64-5.25 3.97z"/><path d="M378.33 315.12L166.57 192.86l.11-156.66c0-1.61 1.13-2.26 2.52-1.46L375.92 154.1a5.55 5.55 0 012.52 4.35z" fill="#fff"/><path d="M378.31 315L166.55 192.75l.11-156.67c0-1.6 1.13-2.25 2.52-1.45L375.9 154a5.56 5.56 0 012.52 4.36z" opacity=".5" fill="url(#Безымянный_градиент_15)"/><path class="cls-6" d="M220 417.77L13.28 298.41c-2.9-1.67-2.53-4.59.82-6.53l138.48-79.95c3.35-1.93 8.41-2.14 11.31-.47l206.72 119.35c2.9 1.68 2.54 4.6-.81 6.53l-138.48 80c-3.32 1.89-8.41 2.1-11.32.43z"/><path class="cls-1" d="M224.52 415.06L17.8 295.7c-2.9-1.67-2.54-4.59.81-6.53l138.49-80c3.34-1.93 8.41-2.14 11.31-.47l206.72 119.4c2.9 1.68 2.54 4.6-.81 6.53l-138.48 80c-3.35 1.89-8.42 2.1-11.32.43z"/><path class="cls-1" d="M15.84 293v-3.89l4.38 1.83-4.38 2.06zm361.25 38.02v-3.81l-3.24 1.11 2.15 3.16 1.09-.46z"/><path class="cls-2" d="M224.52 411.77L17.8 292.42c-2.9-1.67-2.54-4.6.81-6.53l138.49-79.95c3.34-1.94 8.41-2.15 11.31-.47l206.72 119.35c2.9 1.67 2.54 4.6-.81 6.53L235.84 411.3c-3.35 1.94-8.42 2.15-11.32.47z"/><path class="cls-3" d="M224.52 411.27L17.8 291.91c-2.9-1.67-2.54-4.59.81-6.53l138.49-79.95c3.34-1.93 8.41-2.14 11.31-.47l206.72 119.35c2.9 1.68 2.54 4.6-.81 6.53l-138.48 80c-3.35 1.89-8.42 2.1-11.32.43z"/><path class="cls-7" d="M153.26 232.4l-9.63-5.56c-.78-.45-.68-1.24.22-1.77l9.19-5.3a3.42 3.42 0 013.06-.13l9.63 5.56c.78.45.69 1.25-.22 1.77l-9.19 5.3a3.39 3.39 0 01-3.06.13zm13.63 7.87l-9.63-5.56c-.78-.45-.69-1.25.22-1.77l9.19-5.3a3.39 3.39 0 013.06-.13l9.62 5.56c.79.45.69 1.24-.22 1.77l-9.18 5.3a3.42 3.42 0 01-3.06.13zm13.78 7.95l-9.67-5.55c-.78-.46-.68-1.25.22-1.77l9.19-5.31a3.39 3.39 0 013.06-.12l9.63 5.55c.78.46.68 1.25-.22 1.77l-9.19 5.31a3.39 3.39 0 01-3.02.12zm13.47 7.78l-9.63-5.56c-.78-.45-.68-1.24.22-1.77l9.19-5.3a3.42 3.42 0 013.06-.13l9.63 5.56c.78.45.68 1.25-.22 1.77l-9.19 5.3a3.39 3.39 0 01-3.06.13zm13.62 7.87l-9.62-5.56c-.79-.45-.69-1.25.22-1.77l9.18-5.3a3.41 3.41 0 013.07-.13l9.62 5.56c.79.45.69 1.24-.22 1.77l-9.18 5.3a3.44 3.44 0 01-3.07.13zm13.63 7.86l-9.63-5.55c-.78-.46-.68-1.25.22-1.77l9.19-5.31a3.39 3.39 0 013.06-.12l9.63 5.55c.78.46.68 1.25-.22 1.77l-9.19 5.31a3.39 3.39 0 01-3.06.12zM235 279.6l-9.61-5.6c-.79-.45-.69-1.24.22-1.77l9.18-5.3a3.44 3.44 0 013.07-.13l9.62 5.56c.79.45.69 1.25-.22 1.77l-9.18 5.3a3.39 3.39 0 01-3.08.17zm13.64 7.87l-9.64-5.56c-.79-.45-.69-1.25.22-1.77l9.18-5.3a3.39 3.39 0 013.06-.13l9.63 5.56c.79.45.69 1.24-.22 1.77l-9.19 5.3a3.42 3.42 0 01-3.04.13zm13.63 7.86l-9.63-5.55c-.78-.46-.68-1.25.22-1.77l9.19-5.3a3.36 3.36 0 013.06-.13l9.63 5.56c.78.45.68 1.24-.22 1.76l-9.19 5.31a3.39 3.39 0 01-3.06.12zm13.62 7.87l-9.62-5.56c-.79-.45-.69-1.24.22-1.77l9.18-5.3a3.41 3.41 0 013.07-.12l9.62 5.55c.79.46.69 1.25-.22 1.77l-9.18 5.3a3.41 3.41 0 01-3.07.13zm13.63 7.87l-9.63-5.56c-.78-.45-.68-1.24.22-1.77l9.19-5.3a3.42 3.42 0 013.06-.13l9.63 5.56c.78.45.68 1.24-.22 1.77l-9.19 5.3a3.42 3.42 0 01-3.06.13zm13.62 7.86l-9.62-5.55c-.79-.46-.69-1.25.22-1.77l9.18-5.3a3.41 3.41 0 013.07-.13l9.62 5.56c.79.45.69 1.24-.22 1.76l-9.18 5.31a3.41 3.41 0 01-3.07.12zm13.63 7.87l-9.62-5.56c-.79-.45-.69-1.24.22-1.76l9.18-5.31a3.39 3.39 0 013.06-.12l9.63 5.55c.78.46.69 1.25-.22 1.77l-9.19 5.3a3.36 3.36 0 01-3.06.13zM337 338.46l-16.19-9.35c-.78-.45-.69-1.24.22-1.77l9.19-5.3a3.42 3.42 0 013.06-.13l16.19 9.35c.78.45.68 1.24-.22 1.77l-9.19 5.3a3.42 3.42 0 01-3.06.13zm-176.73-86.77l-9.63-5.55c-.79-.46-.69-1.25.22-1.77l9.18-5.31a3.41 3.41 0 013.07-.12l9.62 5.55c.79.46.69 1.25-.22 1.77l-9.18 5.31a3.39 3.39 0 01-3.06.12zm13.64 7.88l-9.62-5.57c-.79-.46-.69-1.25.22-1.77l9.18-5.31a3.41 3.41 0 013.07-.12l9.62 5.55c.79.46.69 1.25-.22 1.77l-9.16 5.33a3.41 3.41 0 01-3.09.12zm13.65 7.88l-9.62-5.55c-.79-.46-.69-1.25.22-1.77l9.18-5.3a3.38 3.38 0 013.07-.13l9.62 5.56c.79.45.69 1.24-.22 1.76l-9.18 5.31a3.41 3.41 0 01-3.07.12zm13.65 7.88l-9.62-5.55c-.79-.46-.69-1.25.22-1.77l9.18-5.3a3.41 3.41 0 013.07-.13l9.62 5.56c.79.45.69 1.24-.22 1.76l-9.18 5.31a3.41 3.41 0 01-3.07.12zm13.54 7.82l-9.62-5.56c-.79-.45-.69-1.24.22-1.76l9.18-5.31a3.41 3.41 0 013.07-.12l9.62 5.55c.79.46.69 1.25-.22 1.77l-9.18 5.3a3.38 3.38 0 01-3.07.13zM228.4 291l-9.62-5.55c-.79-.46-.69-1.25.22-1.77l9.18-5.31a3.41 3.41 0 013.07-.12l9.62 5.55c.79.46.69 1.25-.22 1.77l-9.18 5.31a3.41 3.41 0 01-3.07.12zm13.65 7.91l-9.62-5.55c-.79-.46-.69-1.25.22-1.77l9.18-5.31a3.41 3.41 0 013.07-.12l9.62 5.55c.79.46.69 1.25-.22 1.77l-9.18 5.31a3.41 3.41 0 01-3.07.12zm13.65 7.88l-9.62-5.55c-.79-.46-.69-1.25.22-1.77l9.18-5.31a3.39 3.39 0 013.06-.12l9.63 5.55c.79.46.69 1.25-.22 1.77l-9.18 5.31a3.41 3.41 0 01-3.07.12zm13.65 7.88l-9.62-5.55c-.79-.46-.69-1.25.22-1.77l9.18-5.31a3.39 3.39 0 013.06-.12l9.63 5.56c.78.45.69 1.24-.22 1.76l-9.19 5.31a3.39 3.39 0 01-3.06.12zm13.65 7.88l-9.63-5.55c-.78-.46-.68-1.25.22-1.77l9.19-5.3a3.39 3.39 0 013.06-.13l9.63 5.56c.78.45.69 1.24-.22 1.76l-9.19 5.31a3.39 3.39 0 01-3.06.12zm13.65 7.88l-9.65-5.55c-.78-.46-.68-1.25.22-1.77l9.19-5.3a3.39 3.39 0 013.06-.13l9.63 5.56c.78.45.68 1.24-.22 1.76l-9.19 5.31a3.39 3.39 0 01-3.04.12zm13.65 7.89l-9.63-5.56c-.78-.46-.68-1.25.22-1.77l9.19-5.3a3.39 3.39 0 013.06-.13l9.63 5.56c.78.45.68 1.24-.22 1.77l-9.19 5.3a3.42 3.42 0 01-3.06.13zm-163.68-94.51l-16.19-9.34c-.79-.46-.69-1.25.22-1.77l9.18-5.3a3.38 3.38 0 013.07-.13l16.18 9.34c.79.46.69 1.25-.22 1.77l-9.18 5.31a3.39 3.39 0 01-3.06.12zM336.3 339l-9.62-5.55a3.17 3.17 0 00-2.86 0l-9.71 5.55a.87.87 0 000 1.65l.77.44a.8.8 0 010 1.52l-10.26 5.92c-.8.46-.8 1.2 0 1.65l6.13 3.54a3.17 3.17 0 002.86 0l9.59-5.54 2-1.15 1.43-.82 1.44-.83 8.27-4.78c.74-.45.75-1.18-.04-1.6zm-235.81-76.07l-9.63-5.56c-.78-.45-.68-1.24.22-1.77l9.19-5.3a3.42 3.42 0 013.06-.13l9.63 5.56c.78.46.68 1.25-.22 1.77l-9.19 5.3a3.39 3.39 0 01-3.06.13zm13.58 7.85l-9.62-5.56c-.79-.46-.69-1.25.22-1.77l9.18-5.3a3.41 3.41 0 013.07-.13l9.62 5.56c.79.45.69 1.24-.22 1.77l-9.18 5.3a3.44 3.44 0 01-3.07.13zm13.59 7.84l-9.66-5.56c-.79-.45-.69-1.24.22-1.77l9.18-5.3a3.42 3.42 0 013.06-.13l9.63 5.56c.79.45.69 1.25-.22 1.77l-9.18 5.3a3.41 3.41 0 01-3.03.13zm115.71 66.8l-9.63-5.55c-.78-.46-.68-1.25.22-1.77l9.19-5.3a3.36 3.36 0 013.06-.13l9.63 5.56c.78.45.69 1.24-.22 1.76l-9.19 5.31a3.39 3.39 0 01-3.06.12zm13.63 7.85l-9.63-5.56c-.78-.45-.68-1.24.22-1.77l9.19-5.3a3.42 3.42 0 013.06-.13l9.63 5.56c.78.45.68 1.25-.22 1.77l-9.19 5.3a3.39 3.39 0 01-3.06.13zm13.54 7.84l-9.62-5.55c-.79-.46-.69-1.25.22-1.77l9.18-5.31a3.41 3.41 0 013.07-.12l9.62 5.55c.79.46.69 1.25-.22 1.77l-9.18 5.32a3.41 3.41 0 01-3.07.11zm13.59 7.89l-9.62-5.56c-.79-.45-.69-1.24.22-1.77l9.18-5.3a3.42 3.42 0 013.06-.13l9.63 5.56c.79.45.69 1.24-.22 1.77l-9.18 5.3a3.44 3.44 0 01-3.07.13zm-139.38-80.52l-13.13-7.57c-.78-.46-.68-1.25.22-1.77l9.19-5.3a3.36 3.36 0 013.06-.13l13.13 7.58c.78.45.68 1.24-.22 1.76l-9.19 5.31a3.39 3.39 0 01-3.06.12zm85.03 49.1L216.66 330c-.79-.45-.69-1.24.22-1.77l9.18-5.3a3.44 3.44 0 013.07-.13l13.12 7.58c.79.45.69 1.25-.22 1.77l-9.18 5.3a3.41 3.41 0 01-3.07.13zm-17.08-9.87l-64-36.94c-.78-.45-.69-1.24.22-1.77l9.19-5.3a3.42 3.42 0 013.06-.13l64 36.95c.79.45.69 1.24-.22 1.76l-9.18 5.31a3.39 3.39 0 01-3.07.12zm-61.93-66.25l-9.63-5.56c-.78-.45-.69-1.24.22-1.77l9.19-5.3a3.42 3.42 0 013.06-.13l9.62 5.56c.79.45.69 1.25-.22 1.77l-9.18 5.3a3.39 3.39 0 01-3.06.13zm13.61 7.86l-9.63-5.56c-.78-.45-.69-1.25.22-1.77l9.19-5.3a3.39 3.39 0 013.06-.13l9.62 5.56c.79.45.69 1.24-.22 1.77l-9.18 5.3a3.42 3.42 0 01-3.06.13zm13.62 7.85l-9.63-5.55c-.78-.46-.69-1.25.22-1.77l9.19-5.3a3.39 3.39 0 013.06-.13l9.63 5.56c.78.45.68 1.24-.22 1.77l-9.19 5.3a3.39 3.39 0 01-3.06.12zm13.6 7.83l-9.6-5.52c-.78-.46-.68-1.25.22-1.77l9.19-5.31a3.39 3.39 0 013.06-.12l9.63 5.55c.78.46.68 1.25-.22 1.77l-9.19 5.31a3.39 3.39 0 01-3.09.09zm13.61 7.89l-9.63-5.56c-.78-.45-.68-1.24.22-1.76l9.19-5.31a3.39 3.39 0 013.06-.12l9.63 5.55c.78.46.68 1.25-.22 1.77l-9.19 5.3a3.39 3.39 0 01-3.06.13zm13.61 7.86l-9.63-5.56c-.78-.45-.68-1.24.22-1.77l9.19-5.3a3.42 3.42 0 013.06-.13l9.63 5.56c.78.45.68 1.25-.22 1.77l-9.19 5.3a3.39 3.39 0 01-3.06.13zm13.61 7.86l-9.63-5.56c-.78-.45-.68-1.25.22-1.77l9.19-5.3a3.39 3.39 0 013.06-.13l9.63 5.56c.78.45.68 1.24-.22 1.77l-9.19 5.3a3.42 3.42 0 01-3.06.13zm13.57 7.86l-9.63-5.56c-.78-.46-.68-1.25.22-1.77l9.19-5.3a3.39 3.39 0 013.06-.13l9.63 5.56c.78.45.69 1.24-.22 1.77l-9.19 5.3a3.42 3.42 0 01-3.06.13zm13.65 7.85l-9.65-5.55c-.79-.46-.69-1.25.22-1.77l9.18-5.31a3.39 3.39 0 013.06-.12l9.63 5.55c.78.46.69 1.25-.22 1.77l-9.19 5.31a3.39 3.39 0 01-3.03.12zm13.61 7.86l-9.62-5.56c-.79-.45-.69-1.24.22-1.76l9.18-5.31a3.39 3.39 0 013.06-.12l9.63 5.55c.79.46.69 1.25-.22 1.77l-9.18 5.3a3.38 3.38 0 01-3.07.13zm13.61 7.82l-9.62-5.56c-.79-.45-.69-1.24.22-1.77l9.18-5.3a3.44 3.44 0 013.07-.13l9.62 5.56c.79.45.69 1.25-.22 1.77l-9.18 5.3a3.41 3.41 0 01-3.07.13z"/><path class="cls-7" d="M300.48 347.9l-9.62-5.56c-.79-.45-.69-1.24.22-1.77l9.18-5.3a3.44 3.44 0 013.07-.13l9.67 5.56c.79.45.69 1.24-.22 1.77l-9.18 5.3a3.44 3.44 0 01-3.12.13zm-163.32-94.3l-19.91-11.49c-.79-.46-.69-1.25.22-1.77l9.18-5.3a3.41 3.41 0 013.07-.13l19.9 11.49c.79.46.69 1.25-.22 1.77l-9.18 5.3a3.39 3.39 0 01-3.06.13zm-6.36 11.58l-9.62-5.55c-.79-.46-.69-1.25.22-1.77l9.18-5.31a3.41 3.41 0 013.07-.12l9.62 5.55c.79.46.69 1.25-.22 1.77l-9.18 5.31a3.41 3.41 0 01-3.07.12zm13.61 7.82l-9.62-5.56c-.79-.45-.69-1.24.22-1.77l9.18-5.3a3.42 3.42 0 013.06-.13l9.63 5.56c.78.45.69 1.25-.22 1.77l-9.19 5.3a3.39 3.39 0 01-3.06.13zm13.59 7.9l-9.63-5.56c-.78-.45-.68-1.25.22-1.77l9.19-5.3a3.39 3.39 0 013.06-.13l9.63 5.56c.78.45.68 1.24-.22 1.77l-9.19 5.3a3.42 3.42 0 01-3.06.13zm13.63 7.85L162 283.2c-.78-.46-.68-1.25.22-1.77l9.19-5.31a3.39 3.39 0 013.06-.12l9.63 5.55c.78.46.68 1.25-.22 1.77l-9.19 5.31a3.39 3.39 0 01-3.06.12zm13.61 7.86l-9.63-5.56c-.78-.45-.69-1.24.22-1.77L185 284a3.42 3.42 0 013.06-.13l9.62 5.56c.79.45.69 1.25-.22 1.77l-9.18 5.3a3.39 3.39 0 01-3.04.11zm13.6 7.86l-9.62-5.56c-.79-.45-.69-1.25.22-1.77l9.18-5.3a3.41 3.41 0 013.07-.13l9.62 5.56c.79.45.69 1.24-.22 1.77l-9.18 5.3a3.44 3.44 0 01-3.07.13zm13.61 7.85l-9.62-5.55c-.79-.46-.69-1.25.22-1.77l9.18-5.31a3.41 3.41 0 013.07-.12l9.62 5.55c.79.46.69 1.25-.22 1.77l-9.18 5.31a3.41 3.41 0 01-3.07.12zm13.61 7.86l-9.62-5.56c-.79-.45-.69-1.24.22-1.77l9.18-5.3a3.42 3.42 0 013.06-.13l9.63 5.56c.78.46.69 1.25-.22 1.77l-9.19 5.3a3.39 3.39 0 01-3.06.13zm13.61 7.82l-9.67-5.52c-.78-.45-.68-1.25.22-1.77l9.19-5.3a3.39 3.39 0 013.06-.13l9.63 5.56c.78.45.68 1.24-.22 1.77l-9.19 5.3a3.42 3.42 0 01-3.02.09zm13.61 7.89l-9.63-5.55c-.78-.46-.68-1.25.22-1.77l9.19-5.3a3.36 3.36 0 013.06-.13l9.63 5.56c.78.45.68 1.24-.22 1.76l-9.19 5.31a3.39 3.39 0 01-3.06.12zm13.61 7.86l-9.63-5.56c-.78-.45-.69-1.24.22-1.77l9.19-5.3a3.42 3.42 0 013.06-.13l9.62 5.56c.79.46.69 1.25-.22 1.77l-9.18 5.3a3.39 3.39 0 01-3.06.13zm30.45 17.58l-26.47-15.28c-.79-.45-.69-1.24.22-1.77l9.18-5.3a3.44 3.44 0 013.07-.13l26.47 15.28c.78.46.68 1.25-.22 1.77l-9.19 5.31a3.39 3.39 0 01-3.06.12zm-180.15-104l-13.12-7.58c-.79-.45-.69-1.25.22-1.77l9.18-5.3a3.41 3.41 0 013.07-.13l13.12 7.58c.79.45.69 1.24-.22 1.77l-9.18 5.3a3.44 3.44 0 01-3.07.13zm233.44 73.23L157.36 219c-.78-.45-.69-1.25.22-1.77l4.59-2.65a3.44 3.44 0 013.07-.13L358.51 326c.78.45.68 1.24-.22 1.77l-4.6 2.65a3.39 3.39 0 01-3.06.14z"/><path class="cls-1" d="M230.9 343.25a2.91 2.91 0 01-1.33 1.39l-53.19 30.7a6.54 6.54 0 01-5.89.25L79.6 323.11a2 2 0 01-.92-1c-.33-.8.13-1.74 1.34-2.44L133.21 289a6.57 6.57 0 015.89-.24l90.9 52.48a1.58 1.58 0 01.9 2.01z"/><path d="M230.9 343.25a2.91 2.91 0 01-1.33 1.39l-53.19 30.7a6.54 6.54 0 01-5.89.25L79.6 323.11a2 2 0 01-.92-1 2.92 2.92 0 011.32-1.34l53.19-30.7a6.54 6.54 0 015.89-.25L230 342.3a2.05 2.05 0 01.9.95z" fill="#c3c6d1"/><path class="cls-7" d="M365.34 322.1L172.07 210.52a3.43 3.43 0 01-1.42-2.72v-2.27c0-1.05.64-1.53 1.42-1.08L365.34 316a3.39 3.39 0 011.42 2.72V321c0 1.07-.63 1.55-1.42 1.1z"/><path class="cls-9" d="M249.58 103.76l-67-38.66a2.43 2.43 0 01-1-1.94v-4.67c0-.75.46-1.1 1-.77l67 38.66a2.43 2.43 0 011 1.94V103c.02.74-.44 1.09-1 .76zm-17.2 1.12l-49.45-28.55a2.44 2.44 0 01-1-2v-2.27c0-.75.45-1.1 1-.77l49.45 28.55a2.44 2.44 0 011 2v2.32c.02.7-.38 1.04-1 .72zm0 8.81l-49.45-28.55a2.44 2.44 0 01-1-2v-2.27c0-.75.45-1.09 1-.77l49.45 28.56a2.4 2.4 0 011 1.94v2.32c.02.75-.38 1.08-1 .77z"/><path class="cls-10" d="M223.06 117.12L182.93 94a2.4 2.4 0 01-1-1.94v-2.38c0-.75.45-1.09 1-.77l40.13 23.17a2.45 2.45 0 011 2v2.32c.01.7-.44 1.04-1 .72z"/><path class="cls-9" d="M249.58 196.28l-67-38.66a2.46 2.46 0 01-1-2V151c0-.75.46-1.09 1-.77l67 38.66a2.46 2.46 0 011 2v4.67c.02.7-.44 1.04-1 .72zm-17.2 1.12l-49.45-28.56a2.4 2.4 0 01-1-1.94v-2.32c0-.75.45-1.1 1-.77l49.45 28.55a2.42 2.42 0 011 1.94v2.33c.02.75-.38 1.09-1 .77zm0 8.81l-49.45-28.55a2.44 2.44 0 01-1-1.95v-2.32c0-.75.45-1.1 1-.77l49.45 28.55a2.44 2.44 0 011 2v2.32c.02.7-.38 1.04-1 .72z"/><path class="cls-10" d="M223.06 209.64l-40.13-23.17a2.44 2.44 0 01-1-1.95v-2.32c0-.75.45-1.09 1-.77l40.13 23.17a2.42 2.42 0 011 1.94v2.33c.01.75-.44 1.13-1 .77z"/><path d="M267.5 207.76s7.39 6.2 18.05-2.27c7.62-6.25 14.43-2.68 18.22-.52s9.31 3.45 19.71 22.29a27.9 27.9 0 009 9.14c5.61 3.23 8.3 1.66 12.71-5s7.29-14 15.39-9.2V289l-93.8-54.15v-27.53z" fill="#f5f6ff"/><path class="cls-9" d="M247.12 179.44l-64.19-37.06a2.44 2.44 0 01-1-1.95v-37c0-.75.45-1.09 1-.77l64.19 37.06a2.45 2.45 0 011 1.95v37c.01.75-.44 1.09-1 .77z"/><path d="M266.77 206.2v28.68l93.8 54.15v-66.81m-56.93-16.93v50.8m28.69-18.67v35.24" fill="none" stroke="#e9eaf2" stroke-miterlimit="10" stroke-width=".22"/><path d="M266.77 207.32c16.64 10.32 19-13 37.13-2.54s15.63 24.11 29 31.84 13.7-22.46 27.66-14.4" stroke-width="1.09" fill="none" stroke="#e9eaf2" stroke-miterlimit="10"/><ellipse class="cls-10" cx="303.64" cy="205.29" rx="1.81" ry="3.13" transform="rotate(-30 303.654 205.284)"/><ellipse class="cls-10" cx="360.57" cy="222.22" rx="1.81" ry="3.13" transform="matrix(.87 -.5 .5 .87 -62.81 210.07)"/><ellipse class="cls-10" cx="332.33" cy="236.79" rx="1.81" ry="3.13" transform="matrix(.87 -.5 .5 .87 -73.87 197.9)"/><ellipse class="cls-10" cx="266.77" cy="207.32" rx="1.81" ry="3.13" transform="matrix(.87 -.5 .5 .87 -67.92 161.17)"/><path class="cls-9" d="M269.42 158.05l-3.84-2.22a2.43 2.43 0 01-1-1.94v-18.57c0-.75.46-1.09 1-.77l3.84 2.22a2.44 2.44 0 011 1.94v18.58c.02.71-.42 1.09-1 .76z"/><path class="cls-10" d="M278.28 163.17l-3.85-2.17a2.46 2.46 0 01-1-1.95v-37.83c0-.75.46-1.09 1-.77l3.85 2.22a2.45 2.45 0 011 2v37.73c.01.75-.44 1.09-1 .77z"/><path class="cls-9" d="M296 173.39l-3.84-2.22a2.44 2.44 0 01-1-1.95v-34.11c0-.75.45-1.09 1-.77l3.84 2.22a2.46 2.46 0 011 1.95v34.11c0 .75-.46 1.09-1 .77z"/><path class="cls-10" d="M304.83 178.5l-3.83-2.22a2.44 2.44 0 01-1-1.94v-28.27c0-.75.46-1.09 1-.77l3.84 2.22a2.44 2.44 0 011 1.95v28.26c.01.75-.44 1.09-1.01.77z"/><path class="cls-9" d="M322.46 188.68l-3.84-2.22a2.46 2.46 0 01-1-2v-14c0-.75.46-1.09 1-.77l3.84 2.22a2.44 2.44 0 011 1.95v14c.02.8-.46 1.14-1 .82z"/><path class="cls-10" d="M331.32 193.79l-3.85-2.22a2.46 2.46 0 01-1-1.95v-47.5c0-.75.46-1.1 1-.77l3.85 2.22a2.42 2.42 0 011 1.94V193c.01.77-.44 1.11-1 .79z"/><path class="cls-9" d="M352.92 206.26l-3.85-2.26a2.46 2.46 0 01-1-1.95v-14c0-.75.46-1.1 1-.77l3.85 2.22a2.42 2.42 0 011 1.94v14c.01.8-.44 1.14-1 .82z"/><path class="cls-10" d="M361.77 211.37l-3.85-2.22a2.42 2.42 0 01-1-1.94v-18.57c0-.75.45-1.1 1-.77l3.85 2.22a2.43 2.43 0 011 1.94v18.57c.02.75-.44 1.09-1 .77z"/></g><path class="cls-6" d="M352.27 486.9l-98.98-57.15 135.97-78.5 98.98 57.14-135.97 78.51z"/><path class="cls-1" d="M488.59 404.5l-95.71-55.27-132.72 76.63-3.26-1.88v3.76l98.98 57.14 135.97-78.5v-3.76l-3.26 1.88z"/><path fill="#fafbff" d="M355.88 481.12l-98.98-57.14 135.98-78.51 98.97 57.15-135.97 78.5z"/><path class="cls-9" d="M462.63 408.68l-79.36-45.82 7.86-4.54 79.37 45.82-7.87 4.54zm-8.37 4.84L374.9 367.7l3.93-2.27 79.36 45.82-3.93 2.27zm-6.49 3.74l-79.36-45.82 3.93-2.27 79.36 45.82-3.93 2.27zm-6.48 3.75l-79.36-45.82 3.93-2.27 79.36 45.82-3.93 2.27zm-47.56 27.46l-79.37-45.82 7.87-4.54 79.35 45.82-7.85 4.54zm-13.81 1.7l-73.93-42.69 3.93-2.27 73.93 42.69-3.93 2.27zm-7.96 2.89l-72.46-41.83 3.93-2.27 72.46 41.83-3.93 2.27zm-17.69-2.72l-61.25-35.37 3.93-2.27 61.25 35.37-3.93 2.27zm-.62-44.81l-22.14-12.78 22.14-12.78 22.14 12.78-22.14 12.78zm28.61 16.52l-22.14-12.78 22.14-12.79 22.14 12.79-22.14 12.78zm28.61 16.52l-22.14-12.79L410.87 413l22.14 12.79-22.14 12.78z"/><path class="cls-15" d="M43.03 245.01l-18.76-10.83 18.76-10.84 18.77 10.84-18.77 10.83zm29.75-17.36l-18.77-10.83 18.77-10.84 18.76 10.84-18.76 10.83z"/><path class="cls-10" d="M83.92 123.83L65.15 113l18.77-10.83L102.68 113l-18.76 10.83zm0 97.55l-18.77-10.84V113l18.77 10.84v97.54z"/><path class="cls-16" d="M83.92 221.38l-18.77-10.84V113l18.77 10.84v97.54z"/><path class="cls-10" d="M102.68 210.54l-18.76 10.84v-97.54L102.68 113v97.54z"/><path class="cls-17" d="M102.68 210.54l-18.76 10.84v-97.54L102.68 113v97.54z"/><path class="cls-9" d="M55.77 172.59L37 161.75l18.77-10.84 18.76 10.84-18.76 10.84zm0 64.95L37 226.71v-64.96l18.77 10.84v64.95z"/><path class="cls-16" d="M55.77 237.54L37 226.71v-64.96l18.77 10.84v64.95z"/><path class="cls-9" d="M74.53 226.71l-18.76 10.83v-64.95l18.76-10.84v64.96z"/><path class="cls-17" d="M74.53 226.71l-18.76 10.83v-64.95l18.76-10.84v64.96z"/><path class="cls-15" d="M19 259.21L.23 248.38 19 237.54l18.76 10.84L19 259.21z"/><path class="cls-10" d="M25.8 224.07L7.03 213.23l18.76-10.83 18.77 10.83-18.76 10.84z"/><path class="cls-10" d="M25.8 255.13L7.03 244.29v-31.06l18.77 10.84v31.06z"/><path class="cls-16" d="M25.8 255.13L7.03 244.29v-31.06l18.77 10.84v31.06z"/><path class="cls-10" d="M44.56 244.29L25.8 255.13v-31.06l18.76-10.84v31.06z"/><path class="cls-17" d="M44.56 244.29L25.8 255.13v-31.06l18.76-10.84v31.06z"/><g id="Girl_12"><path id="_Контур_" data-name="&lt;Контур&gt;" class="cls-18" d="M221.65 1.33c.86-1.37 7.4-2.28 9.55 3.27.82 2.1.69 7.47 1.37 10.85s2.3 5.29 2.87 8-.36 7.33-7 8.14-11.64-1.48-13.2-3.59-1.59-6.58 0-9 2.85-4.35 2.81-7.48z"/><path id="_Контур_2" data-name="&lt;Контур&gt;" class="cls-18" d="M226 .38s-5-1.38-7.95 1.24a7.3 7.3 0 00-2.1 7.3c.4 1.56 1.19 3.68 2.43 3.8S226 .38 226 .38z"/><path id="_Контур_3" data-name="&lt;Контур&gt;" class="cls-19" d="M227.85 13.81s-.32 5.5-.22 5.9 2.15.79 2.73 1.27-3 6.05-4.8 6.88-7.42-1.29-7.81-4.08c-.36-2.56 1.61-4.56 2.37-5.26a10.67 10.67 0 011.54 0l.17-2.66c2.45-.86 6.02-2.05 6.02-2.05z"/><path id="_Контур_4" data-name="&lt;Контур&gt;" class="cls-19" d="M211.7 43.12a29.19 29.19 0 01-5.47 5.69 27.1 27.1 0 00-1.87 2.19 8.24 8.24 0 01-3.68 2.44c-1.24.32-1.76.24-2 0s-.11-.58.43-.8a6.74 6.74 0 002.41-1.29s-1.15.53-1.88.78a7.46 7.46 0 01-2 .4c-.69 0-1.4-.79-.86-1s1-.26 2.1-.65a6.73 6.73 0 001.59-.82 14.2 14.2 0 01-2.26.47 3.47 3.47 0 01-1.89-.22c-.32-.14-.6-.72.12-.91a10.71 10.71 0 002.72-.63c.84-.38 1.37-.78 1.18-.86s-.66.18-1.5.12-1.63-.6-1.62-1 .18-.2 1-.27a18.48 18.48 0 012.65-.45 8.49 8.49 0 002.62-.31c.89-.27 2.9-2.68 4.44-4.89a32.4 32.4 0 003.94-8c.92-3 2-8.73 2.81-10.71s2.14-2.87 3.43-2.91c1.51-.05 2.16 1.94 1.76 3.66-.7 2.95-4.06 14.57-8.17 19.97z"/><path id="_Контур_5" data-name="&lt;Контур&gt;" class="cls-20" d="M228.61 20.24c1.54.24 3.3 1.06 3.54 1.91a18.07 18.07 0 01-.44 9.16c-1.33 3.54-2.85 9.91-3.61 11.44a18 18 0 01-11.5-2.25s-.32-6.14-.34-8.17c-5-4.33-.72-9.68 3.48-13.83a9.67 9.67 0 011.52 0s-3.75 4.44-1.15 7c5.6-1.75 6.71-4.26 8.5-5.26z"/><path id="_Контур_6" data-name="&lt;Контур&gt;" class="cls-19" d="M217.59 7c.56-3.53 3.11-6.19 6.75-6a7 7 0 016.59 7.42 7 7 0 01-3.08 5.36 7.13 7.13 0 01-.56 1.55c-1.29 1.5-4.71 2.45-5.84 2.46-1 0-1.82-.9-2.74-2.41-1.9-3.13-1.42-6.63-1.12-8.38z"/><path class="cls-18" d="M225.46 1.1c2.55.49 4.65 1.21 5.34 3.72.48 1.72 1.1 5 .51 6.4l-.37 1-3.09 1.59s-1.44-1.2-1-4.72a2.49 2.49 0 00-.43-1.33 3.64 3.64 0 01-.42-1.07 4 4 0 00-2-2.16 6.9 6.9 0 00-6.14.28 6.7 6.7 0 017.6-3.71zm-14.05 84.44c-1.29 1-3.3.32-3.4.42a54.13 54.13 0 01-4.73 3.61c-.8.63-2.06 1.48-1.83 2.7.41 2.17 3.89 1.5 5.21.84s2.38-1.77 3.63-2.54c.88-.55 1.76-.84 1.89-2 .09-.64-.54-3.06-.77-3.03z"/><path class="cls-21" d="M212.17 88.16c-.17 1.07-1 1.37-1.91 1.91-1.27.79-2.38 1.92-3.7 2.59s-4.24 1.22-5.09-.33c.46 2.1 3.88 1.44 5.19.78s2.38-1.77 3.63-2.54c.88-.55 1.76-.84 1.89-2a1.74 1.74 0 00-.01-.41z"/><path class="cls-18" d="M205.12 82c-1.18 1-3 .42-3.06.51a49.65 49.65 0 01-4.32 3.29c-.74.58-1.89 1.36-1.68 2.47.37 2 3.56 1.38 4.77.77s2.18-1.62 3.32-2.32c.81-.51 1.61-.77 1.74-1.8a6.77 6.77 0 00-.77-2.92z"/><path class="cls-21" d="M205.88 84.52c-.16 1-.95 1.25-1.76 1.75C203 87 202 88 200.74 88.64s-3.88 1.12-4.66-.3c.42 1.92 3.55 1.32 4.75.71s2.18-1.62 3.32-2.32c.81-.51 1.61-.77 1.74-1.8a2 2 0 00-.01-.41z"/><path class="cls-19" d="M223 44.1a19.07 19.07 0 01-10.29-1.49c.06 1.1.12 2.07.12 2.07-4.19 3-12.59 7.94-13.14 11.38.55 10.86 2.2 26.38 2.67 26.6 1.31.63 2.23.53 2.85-.1 0 0 2.64-9.2 1.87-22.7 0 0 14.65-6.49 15.61-10a11.15 11.15 0 00.4-4.42c-.01-.44-.04-.91-.09-1.34z"/><path class="cls-19" d="M227.86 42.69a15.69 15.69 0 01-8.86 1.19c0 1.45.21 4.18.21 4.18C215 51 206.63 56 206.09 59.44c.54 10.87 1.56 26.6 2 26.8a3.55 3.55 0 003.47-.41s2.65-9.09 1.88-22.59c0-.25 12.56-6.44 14.15-8.07s1.9-4.07 1.86-6.38a15.6 15.6 0 00-1.59-6.1z"/><path class="cls-22" d="M230.94 45s4.65 8.23-3.09 12.46c-8.17 4.46-13.14 5.5-13.14 5.5l-1.23.29a31.78 31.78 0 010 8.55s-5.83 2-13.26-4.51l-2.46-7.93-.29-2.1a4.41 4.41 0 011.24-4c1.78-1.62 7.43-5.76 10.94-8.12S216 40.5 216 40.5l.61-.57s4.17 3.32 11.78 2.21a11.83 11.83 0 012.55 2.86z"/><path id="_Контур_7" data-name="&lt;Контур&gt;" class="cls-19" d="M226.34 57.2a22 22 0 012.24-1.77 9.3 9.3 0 002.27-1.62c.71-.71 1.76-3.7 2.31-6.61a28.87 28.87 0 00-.16-9.81 68.56 68.56 0 00-3.89-11.3c-1-2.18-.45-3.51.49-4.48 1.11-1.13 2.26-1.1 3.58 1.94a62.5 62.5 0 014.08 13.3 29.43 29.43 0 01-.14 10 36.5 36.5 0 01-2.66 8.4c-.34.79-.4 1.45-.87 3a10.15 10.15 0 01-2.4 4.21c-1 .94-1.52 1.12-1.79 1s-.33-.52.08-1a8.4 8.4 0 001.69-2.46s-.85 1.09-1.41 1.7a7.88 7.88 0 01-1.7 1.42c-.61.37-1.58-.07-1.18-.56s.85-.77 1.67-1.69a8 8 0 001.13-1.59 15.08 15.08 0 01-1.88 1.59 3.53 3.53 0 01-1.81.75c-.34 0-.82-.4-.24-.95a12.21 12.21 0 002.24-2c.62-.79.94-1.44.74-1.42s-.53.5-1.32.87-1.72.24-1.88-.2.08-.24.81-.72z"/><path class="cls-23" d="M235.2 27.66s-2.81 2.5-5.94 2L228 24.41s-.83-2.75 1.53-3.8 4.65 1.7 5.67 7.05zm-15.46-9.16s-3.05-.93-6.28 5.82l1.21.73a51.49 51.49 0 015.07-6.55z"/><g id="_Группа_" data-name="&lt;Группа&gt;"><g id="_Группа_2" data-name="&lt;Группа&gt;"><path id="_Контур_8" data-name="&lt;Контур&gt;" class="cls-20" d="M198.7 47.63l10.86-6.27a.62.62 0 01.62 0l19 11-11.17 6.45z"/><path class="cls-24" d="M218.34 56.32l.83.48c.07 0 .06.11 0 .16l-.79.45a.3.3 0 01-.26 0l-.83-.48c-.07 0-.06-.11 0-.16l.8-.45a.3.3 0 01.25 0zm-1.17-.67l.83.48c.06 0 .06.1 0 .15l-.79.46a.32.32 0 01-.27 0l-.83-.48c-.07 0-.06-.11 0-.16l.79-.45a.29.29 0 01.27 0zM216 55l.83.48c.07 0 .06.11 0 .15l-.79.46a.32.32 0 01-.27 0l-.83-.48c-.07 0-.06-.11 0-.15l.79-.46a.32.32 0 01.27 0zm-1.18-.71l.83.48c.06 0 0 .11 0 .15l-.8.46a.3.3 0 01-.26 0l-.83-.48c-.07 0-.06-.11 0-.15l.79-.46a.29.29 0 01.27 0zm-1.18-.68l.83.48c.07 0 .06.11 0 .15l-.79.46a.32.32 0 01-.27 0l-.83-.48c-.06 0-.06-.11 0-.15l.8-.46a.3.3 0 01.26 0zm-1.18-.68l.83.48c.07 0 .06.11 0 .15l-.8.46a.27.27 0 01-.26 0l-.83-.48c-.07 0-.06-.1 0-.15l.79-.46a.3.3 0 01.27 0zm-1.17-.68l.83.48c.07 0 .06.11 0 .15l-.79.46a.29.29 0 01-.27 0l-.83-.48c-.07 0-.06-.1 0-.15l.79-.46a.32.32 0 01.27 0zm-1.18-.68l.83.48c.07 0 .06.11 0 .16l-.79.45a.27.27 0 01-.26 0l-.89-.46c-.07 0-.06-.11 0-.16l.79-.46a.3.3 0 01.32-.01zm-1.17-.67l.83.47c.07 0 .06.11 0 .16L209 52a.32.32 0 01-.27 0l-.83-.48c-.07 0-.06-.11 0-.16l.79-.45a.29.29 0 01.25-.01zm-1.18-.68l.83.48c.07 0 .06.1 0 .15l-.79.46a.3.3 0 01-.26 0l-.83-.48c-.07 0-.06-.11 0-.15l.79-.46a.27.27 0 01.26 0zm-1.17-.68l.83.48c.06 0 .06.1 0 .15l-.79.46a.32.32 0 01-.27 0l-.83-.48c-.07 0-.06-.11 0-.15l.79-.46a.29.29 0 01.27 0zm-1.18-.68l.83.48c.07 0 .06.11 0 .15l-.79.46a.3.3 0 01-.26 0l-.84-.48c-.06 0-.05-.11 0-.15l.8-.46a.3.3 0 01.26 0zm-1.17-.68l.83.48c.06 0 .05.11 0 .15l-.8.46a.27.27 0 01-.26 0l-.83-.48c-.07 0-.06-.11 0-.15l.79-.46a.32.32 0 01.27 0zm-1.75-1.01l1.4.81c.07 0 .06.11 0 .15l-.79.46a.29.29 0 01-.27 0l-1.39-.8c-.07 0-.06-.11 0-.16l.79-.45a.3.3 0 01.26-.01zm15.25 7.49l.83.48c.07 0 .06.11 0 .15l-.79.46a.29.29 0 01-.27 0l-.83-.48c-.07 0-.06-.11 0-.15l.79-.46a.32.32 0 01.27 0zm-1.18-.66l.83.48c.07 0 .06.11 0 .15l-.79.46a.29.29 0 01-.27 0l-.83-.48c-.06 0-.06-.11 0-.15l.8-.46a.3.3 0 01.26 0zm-1.18-.7l.83.48c.07 0 .06.11 0 .15l-.79.46a.27.27 0 01-.26 0l-.83-.48c-.07 0-.06-.11 0-.15l.79-.46a.3.3 0 01.26 0zm-1.18-.68l.84.48c.06 0 .05.11 0 .15l-.8.46a.27.27 0 01-.26 0l-.83-.48c-.07 0-.06-.11 0-.15l.79-.46a.3.3 0 01.26 0z"/><path class="cls-24" d="M213 52l.83.48c.06 0 .06.1 0 .15l-.79.46a.32.32 0 01-.27 0l-.83-.48c-.07 0-.06-.11 0-.16l.79-.45a.29.29 0 01.27 0zm-1.14-.73l.83.48c.07 0 .06.1 0 .15l-.79.46a.32.32 0 01-.27 0l-.83-.48c-.06 0-.06-.11 0-.16l.79-.45a.29.29 0 01.27 0zm-1.18-.68l.83.48c.07 0 .06.1 0 .15l-.79.46a.3.3 0 01-.26 0l-.83-.48c-.07 0-.06-.11 0-.15l.8-.46a.27.27 0 01.25 0zm-1.18-.68l.83.48c.07 0 .06.1 0 .15l-.8.46a.3.3 0 01-.26 0l-.83-.48c-.07 0-.06-.11 0-.15l.79-.46a.27.27 0 01.27 0zm-1.17-.68l.83.48c.06 0 .06.1 0 .15l-.79.46a.32.32 0 01-.27 0l-.83-.48c-.07 0-.06-.11 0-.15l.79-.46a.29.29 0 01.27 0zm-1.18-.68l.85.45c.07 0 .06.1 0 .15l-.79.46a.32.32 0 01-.27 0l-.83-.48c-.06 0-.06-.11 0-.15l.79-.46a.29.29 0 01.25.03zm-1.15-.68l.83.48c.07 0 .06.1 0 .15l-.83.5a.3.3 0 01-.26 0l-.83-.48c-.07 0-.06-.11 0-.15l.8-.46a.27.27 0 01.29-.04zm-1.21-.68l.83.48c.07 0 .06.1 0 .15l-.79.46a.3.3 0 01-.26 0l-.83-.48c-.07 0-.06-.11 0-.15l.79-.46a.27.27 0 01.26 0zm14.12 8.15l1.4.81c.07 0 .06.1 0 .15l-.79.46a.3.3 0 01-.26 0l-1.4-.81c-.07 0-.06-.11 0-.15l.79-.46a.3.3 0 01.26 0zm-16.36-8.21l.83.48a.28.28 0 00.25 0l.83-.48a.08.08 0 000-.15h-.07a.08.08 0 010-.14l.89-.51a.08.08 0 000-.14l-.53-.3a.28.28 0 00-.25 0l-.83.48-.17.09-.12.08-.13.07-.71.41c-.06-.02-.06.07.01.11zm20.34 6.56l.84.48c.06 0 .05.11 0 .15l-.8.46a.27.27 0 01-.26 0l-.83-.48c-.07 0-.06-.11 0-.15l.79-.46a.3.3 0 01.26 0zm-1.17-.69l.83.48c.07 0 .06.11 0 .16l-.79.45a.27.27 0 01-.26 0l-.83-.47c-.07 0-.06-.11 0-.16l.79-.45a.3.3 0 01.26-.01zm-1.17-.66l.83.48c.07 0 .06.1 0 .15l-.79.46a.32.32 0 01-.27 0l-.83-.48c-.06 0-.05-.11 0-.15l.8-.46a.27.27 0 01.26 0zm-9.98-5.77l.83.48c.07 0 .06.11 0 .16l-.79.45a.29.29 0 01-.27 0l-.83-.48c-.07 0-.06-.1 0-.15l.79-.46a.32.32 0 01.27 0zm-1.17-.67l.83.48c.06 0 .06.1 0 .15l-.8.46a.3.3 0 01-.26 0l-.83-.48c-.07 0-.06-.11 0-.15l.79-.46a.29.29 0 01.27 0zm-1.18-.68l.83.48c.07 0 .06.11 0 .15l-.79.46a.27.27 0 01-.26 0l-.83-.48c-.07 0-.06-.11 0-.15l.79-.46a.3.3 0 01.26 0zm-1.17-.68l.83.48c.07 0 .06.11 0 .16l-.79.45a.27.27 0 01-.26 0l-.83-.48c-.07 0-.06-.1 0-.15l.8-.46a.3.3 0 01.25 0zm12.03 6.95l1.13.65c.07 0 .06.11 0 .15l-.79.46a.29.29 0 01-.27 0l-1.15-.64c-.07 0-.06-.11 0-.16l.79-.45a.29.29 0 01.29-.01zm-7.34-4.24l1.13.65c.07 0 .06.11 0 .16l-.79.45a.3.3 0 01-.26 0l-1.14-.66c-.06 0-.06-.11 0-.15l.8-.46a.3.3 0 01.26.01zm1.47.85l5.52 3.19c.07 0 .06.11 0 .15l-.8.46a.3.3 0 01-.26 0l-5.52-3.19c-.07 0-.06-.1 0-.15l.79-.46a.3.3 0 01.27 0zm5.35 5.72l.83.48c.07 0 .06.1 0 .15l-.79.46a.32.32 0 01-.27 0l-.83-.48c-.07 0-.06-.11 0-.15l.79-.46a.29.29 0 01.27 0zm-1.18-.68l.83.48c.07 0 .06.11 0 .15l-.79.46a.3.3 0 01-.26 0l-.83-.48c-.07 0-.06-.11 0-.15l.79-.46a.3.3 0 01.26 0zm-1.17-.68l.83.48c.07 0 .06.11 0 .15l-.79.46a.29.29 0 01-.27 0l-.83-.48c-.07 0-.06-.1 0-.15l.79-.46a.32.32 0 01.27 0zm-1.21-.68l.83.48c.07 0 .06.11 0 .16l-.8.45a.27.27 0 01-.26 0l-.83-.47c-.07 0-.06-.11 0-.16l.79-.46a.3.3 0 01.27 0zm-1.14-.67l.83.48c.07 0 .06.1 0 .15l-.79.46a.32.32 0 01-.27 0l-.83-.48c-.06 0-.06-.11 0-.16l.8-.45a.27.27 0 01.26 0zm-1.17-.68l.83.48c.06 0 .06.11 0 .15l-.8.46a.3.3 0 01-.26 0l-.83-.48c-.07 0-.06-.11 0-.15l.79-.46a.29.29 0 01.27 0zm-1.18-.68l.83.48c.07 0 .06.11 0 .15l-.79.46a.3.3 0 01-.26 0l-.83-.48c-.07 0-.06-.11 0-.15l.8-.46a.3.3 0 01.25 0zm-1.17-.68l.83.48c.07 0 .06.11 0 .15l-.79.46a.29.29 0 01-.27 0l-.83-.48c-.07 0-.06-.1 0-.15l.79-.46a.32.32 0 01.27 0zm-1.18-.68l.83.48c.07 0 .06.11 0 .16l-.79.45a.27.27 0 01-.26 0l-.83-.47c-.07 0-.06-.11 0-.16l.79-.45a.3.3 0 01.26-.01zm-1.16-.67l.83.48c.07 0 .06.1 0 .15l-.79.46a.32.32 0 01-.27 0l-.83-.48c-.06 0-.06-.11 0-.16l.79-.45a.29.29 0 01.27 0zm-1.19-.72l.83.48c.07 0 .06.11 0 .15l-.8.46a.3.3 0 01-.26 0l-.83-.48c-.07 0-.06-.11 0-.15l.79-.46a.27.27 0 01.27 0z"/><path class="cls-24" d="M205.64 46.36l.83.48c.07 0 .06.11 0 .15l-.79.46a.29.29 0 01-.27 0l-.83-.48c-.06 0-.05-.11 0-.15l.8-.46a.3.3 0 01.26 0zm14.09 8.14l1.72 1c.07 0 .06.1 0 .15l-.79.46a.32.32 0 01-.27 0l-1.71-1c-.07 0-.06-.11 0-.16l.8-.45a.27.27 0 01.25 0zm.55-1l.83.48c.07 0 .06.1 0 .15l-.79.46a.32.32 0 01-.27 0l-.83-.48c-.06 0-.06-.11 0-.15l.79-.46a.29.29 0 01.27 0zm-1.17-.68l.83.48c.06 0 .05.11 0 .15l-.8.46a.3.3 0 01-.26 0l-.83-.48c-.07 0-.06-.11 0-.15l.79-.46a.29.29 0 01.27 0zm-1.18-.68l.83.48c.07 0 .06.11 0 .15l-.79.46a.27.27 0 01-.26 0l-.83-.48c-.07 0-.06-.11 0-.15l.8-.46a.3.3 0 01.25 0zm-1.17-.68l.83.48c.07 0 .06.11 0 .16l-.79.45a.29.29 0 01-.27 0l-.83-.48c-.07 0-.06-.1 0-.15l.79-.46a.32.32 0 01.27 0zm-1.18-.67l.83.47c.07 0 .06.11 0 .16l-.79.45a.3.3 0 01-.26 0l-.83-.48c-.07 0-.06-.11 0-.16l.79-.45a.27.27 0 01.26.01zm-1.17-.68l.83.48c.07 0 .06.1 0 .15l-.79.46a.32.32 0 01-.27 0l-.83-.48c-.06 0-.06-.11 0-.15l.79-.46a.29.29 0 01.27 0zm-1.18-.68l.84.48c.06 0 .05.11 0 .15l-.8.46a.3.3 0 01-.26 0l-.83-.48c-.07 0-.06-.11 0-.15l.79-.46a.3.3 0 01.26 0zm-1.17-.68l.83.48c.07 0 .06.11 0 .15l-.79.46a.27.27 0 01-.26 0l-.83-.48c-.07 0-.06-.1 0-.15l.8-.46a.3.3 0 01.25 0zm-1.17-.68l.83.48c.07 0 .06.11 0 .16l-.79.45a.29.29 0 01-.27 0l-.83-.48c-.07 0-.06-.1 0-.15l.79-.46a.32.32 0 01.27 0zm-1.18-.67l.83.48c.07 0 .06.1 0 .15l-.79.46a.3.3 0 01-.26 0l-.83-.48c-.07 0-.06-.11 0-.16l.79-.45a.27.27 0 01.26 0zm-1.17-.68l.83.48c.07 0 .06.11 0 .15l-.79.46a.32.32 0 01-.27 0l-.83-.48c-.06 0-.06-.11 0-.15l.79-.46a.29.29 0 01.27 0zm-2.63-1.52l2.29 1.32c.06 0 .05.11 0 .15l-.8.46a.27.27 0 01-.26 0l-2.28-1.32c-.07 0-.06-.1 0-.15l.8-.46a.3.3 0 01.25 0zm15.54 8.97l1.14.66c.06 0 0 .11 0 .15l-.8.46a.3.3 0 01-.26 0l-1.13-.65c-.07 0-.06-.11 0-.16l.79-.45a.3.3 0 01.26-.01zm-20.14-6.31L218 57.48c.07 0 .06.11 0 .16l-.4.22a.27.27 0 01-.26 0l-16.68-9.62c-.06 0 0-.11 0-.15l.4-.23a.27.27 0 01.25 0z"/><path id="_Контур_9" data-name="&lt;Контур&gt;" class="cls-25" d="M221.04 48.49l-.11.06-2.87 1.66-5.1-2.95-.11-.06 2.98-1.72 5.21 3.01z"/><path id="_Контур_10" data-name="&lt;Контур&gt;" class="cls-26" d="M220.93 48.55l-2.87 1.66-5.1-2.95 2.87-1.66 5.1 2.95z"/><path id="_Контур_11" data-name="&lt;Контур&gt;" class="cls-26" d="M229.23 52.36v.25a1.05 1.05 0 01-.52.91l-10.13 5.84a1 1 0 01-1 0l-18.35-10.57a1 1 0 01-.53-.91v-.25l19.36 11.17z"/><path id="_Контур_12" data-name="&lt;Контур&gt;" class="cls-26" d="M218.06 58.8v.7a1.07 1.07 0 01-.52-.14l-18.31-10.57a1 1 0 01-.53-.91v-.25z"/><path id="_Контур_13" data-name="&lt;Контур&gt;" class="cls-20" d="M217.77 59a1.25 1.25 0 01-1.07-.08l-18.24-10.57a1.22 1.22 0 01-.6-.87l-2-11.9a1.36 1.36 0 010-.2 1.22 1.22 0 01.37-.88l18.94 10.94a.91.91 0 01.45.64z"/><path id="_Контур_14" data-name="&lt;Контур&gt;" class="cls-26" d="M218.06 58.81l-.12.07-.17.08-2.16-12.88a.91.91 0 00-.45-.64L196.22 34.5a1.22 1.22 0 01.25-.2l19 11a1 1 0 01.45.65z"/></g></g></g><g id="Men_11"><path id="_Контур_15" data-name="&lt;Контур&gt;" class="cls-19" d="M57.54 145.14a36.54 36.54 0 005.19 7.07c.56.65 4.88-1 4-1.46s-3.73-4.41-5.14-7a87.46 87.46 0 01-3-9.61c-.89-3.21-1.65-7.93-2.3-10.15a4.35 4.35 0 00-3.31-3.36c-1.55-.36-2.56.06-2.28 1.94.45 3.27 3.03 16.09 6.84 22.57z"/><path class="cls-27" d="M55.06 195.35c1.34 1.09 3.32.09 3.42.19a57.34 57.34 0 004.94 4.12c.83.65 2.13 1.53 1.9 2.79-.42 2.26-4 1.56-5.4.87s-2.47-1.83-3.76-2.63c-.92-.57-1.83-.87-2-2-.06-.69.67-3.37.9-3.34z"/><path class="cls-28" d="M54.21 198.19c.17 1.12 1.07 1.42 2 2 1.31.81 2.46 2 3.83 2.68s4.39 1.27 5.28-.34c-.48 2.17-4 1.49-5.38.8s-2.47-1.83-3.76-2.63c-.92-.57-1.83-.87-2-2a2.77 2.77 0 01.03-.51z"/><path class="cls-27" d="M68.64 187.53c1.34 1.09 3.68-.1 3.78 0a50.29 50.29 0 004.41 4c.84.66 2.14 1.54 1.9 2.8-.42 2.26-4 1.56-5.39.87s-2.48-1.83-3.77-2.63c-.92-.57-1.82-.87-2-2a6.06 6.06 0 011.07-3.04z"/><path class="cls-28" d="M67.65 190.21c.17 1.11 1.07 1.42 2 2 1.31.81 2.46 2 3.82 2.67s4.4 1.27 5.29-.34c-.48 2.18-4 1.49-5.38.81s-2.47-1.83-3.76-2.63c-.92-.57-1.83-.87-2-2a2 2 0 01.03-.51z"/><path id="_Контур_16" data-name="&lt;Контур&gt;" class="cls-10" d="M37.17 152.45c-1.48 9.27 2.63 12.72 8 14.7 3.84 1.41 9.35 3.59 9.35 3.59s-.08 2-.12 6.6c0 4 .49 18.69.49 18.69a4.49 4.49 0 004.1 0s2.16-11.24 2.62-16.31c.62-6.88 1.67-11.38 1.32-12.86-.31-1.3-7.82-5-10.21-7l15.75 5.28a28.16 28.16 0 00-.47 5.16c.14 5.45.45 17.26.45 17.26s2.16 1.56 4 0c0 0 4-23.38 3.48-26.47-.46-2.94-14.33-8.94-16.78-11a3.9 3.9 0 00-3.08-.83z"/><g id="_Группа_3" data-name="&lt;Группа&gt;"><g id="_Группа_4" data-name="&lt;Группа&gt;"><path id="_Контур_17" data-name="&lt;Контур&gt;" class="cls-20" d="M74.92 156.31l-10.58-6.11a.59.59 0 00-.6 0l-18.56 10.72 10.88 6.28z"/><path class="cls-24" d="M55.57 165l-.81.47c-.06 0-.06.1 0 .15l.77.44a.27.27 0 00.26 0l.8-.46c.07 0 .06-.11 0-.15l-.77-.45a.31.31 0 00-.25 0zm1.14-.7l-.81.46c-.06 0 0 .11 0 .15l.77.44a.27.27 0 00.26 0l.8-.46c.07 0 .06-.11 0-.15l-.77-.44a.27.27 0 00-.25 0zm1.15-.67l-.8.46c-.07 0-.06.11 0 .15l.77.45a.28.28 0 00.25 0l.81-.47c.06 0 .06-.1 0-.15l-.77-.44a.3.3 0 00-.26 0zM59 163l-.8.46c-.07 0-.06.11 0 .15l.8.39a.34.34 0 00.26 0l.81-.47c.06 0 .05-.1 0-.15l-.77-.44a.27.27 0 00-.3.06zm1.13-.68l-.8.46c-.07 0-.06.11 0 .15l.77.45a.31.31 0 00.25 0l.81-.47c.06 0 .06-.1 0-.15l-.77-.44a.27.27 0 00-.26 0zm1.15-.66l-.81.46c-.07 0-.06.11 0 .15l.77.45a.28.28 0 00.25 0l.81-.47c.07 0 .06-.1 0-.15l-.77-.44a.28.28 0 00-.25 0zm1.14-.66l-.81.47c-.07 0-.06.1 0 .14l.77.45a.3.3 0 00.26 0l.8-.47c.07 0 .06-.1 0-.15l-.77-.44a.28.28 0 00-.25 0zm1.14-.66l-.81.47c-.06 0-.06.1 0 .14l.77.45a.3.3 0 00.26 0l.8-.47c.07 0 .06-.1 0-.14l-.76-.45a.3.3 0 00-.26 0zm1.14-.66l-.81.47c-.06 0 0 .1 0 .15l.77.44a.3.3 0 00.26 0l.81-.47c.06 0 0-.1 0-.14l-.77-.45a.3.3 0 00-.26 0zm1.14-.68l-.8.47c-.07 0-.06.1 0 .15l.77.44a.3.3 0 00.26 0l.81-.46c.06 0 0-.11 0-.15l-.78-.45a.3.3 0 00-.26 0zm1.16-.64l-.8.47c-.07 0-.06.1 0 .15l.77.44a.25.25 0 00.25 0L68 159c.06 0 .06-.11 0-.15l-.77-.45a.34.34 0 00-.23-.04zm1.13-.66l-.81.47c-.07 0-.06.1 0 .15l.77.44a.25.25 0 00.25 0l.81-.46c.07 0 .06-.11 0-.15l-.77-.45a.31.31 0 00-.25 0zm1.14-.65l-.81.46c-.07 0-.06.11 0 .15l.77.44a.25.25 0 00.25 0l.81-.46c.07 0 .06-.11 0-.15l-.77-.44a.25.25 0 00-.25 0zm1.73-.98l-1.36.78c-.06 0-.06.11 0 .15l.77.44a.27.27 0 00.26 0l1.35-.78c.07 0 .06-.1 0-.15l-.77-.44a.28.28 0 00-.25 0zm-14.85 7.27l-.8.46c-.07 0-.06.11 0 .15l.77.45a.31.31 0 00.25 0l.81-.47c.06 0 .06-.1 0-.15l-.77-.44a.27.27 0 00-.26 0zm1.15-.66l-.81.46c-.06 0-.06.11 0 .15l.77.45a.34.34 0 00.26 0l.8-.47c.07 0 .06-.1 0-.15l-.77-.44a.25.25 0 00-.25 0zm1.14-.68l-.8.46c-.07 0-.06.11 0 .15l.77.45a.34.34 0 00.26 0l.81-.47c.06 0 0-.1 0-.15l-.78-.44a.27.27 0 00-.26 0zm1.15-.64l-.81.46c-.07 0-.06.11 0 .15l.77.45a.31.31 0 00.25 0l.81-.47c.07 0 .06-.1 0-.15l-.77-.44a.25.25 0 00-.25 0zm1.13-.66l-.81.47c-.06 0 0 .1 0 .15l.77.44a.3.3 0 00.26 0l.8-.46c.07 0 .06-.11 0-.15l-.77-.45a.3.3 0 00-.25 0zm1.14-.7l-.8.47c-.07 0-.06.1 0 .15l.76.44a.3.3 0 00.26 0l.81-.46c.06 0 .06-.11 0-.15l-.77-.45a.3.3 0 00-.26 0zm1.14-.62l-.81.47c-.07 0-.06.1 0 .15l.77.44a.28.28 0 00.25 0l.81-.47c.07 0 .06-.1 0-.14l-.77-.45a.28.28 0 00-.25 0zm1.15-.66l-.81.47c-.06 0-.05.1 0 .15l.77.44a.3.3 0 00.26 0l.8-.47c.07 0 .06-.1 0-.14l-.77-.45a.3.3 0 00-.25 0zm1.14-.66l-.8.47c-.07 0-.06.1 0 .14l.77.45a.28.28 0 00.25 0l.81-.47c.06 0 .06-.1 0-.14l-.77-.45a.3.3 0 00-.26 0zm1.15-.66l-.81.47c-.06 0-.06.1 0 .14l.77.45a.3.3 0 00.26 0l.8-.47c.07 0 .06-.1 0-.14l-.77-.45a.28.28 0 00-.25 0zm1.14-.66l-.81.47c-.06 0 0 .1 0 .14l.77.45a.3.3 0 00.26 0l.81-.47c.06 0 .05-.1 0-.14l-.77-.45a.3.3 0 00-.26 0zm1.14-.66l-.8.47c-.07 0-.06.1 0 .14l.77.45a.28.28 0 00.25 0l.81-.47c.06 0 .06-.1 0-.14l-.77-.45a.3.3 0 00-.26 0zM55 164l-1.36.78c-.06 0 0 .11 0 .15l.77.44a.27.27 0 00.26 0l1.36-.78c.06 0 0-.1 0-.15l-.77-.44a.27.27 0 00-.26 0zm15.9-8l-.8.46a.25.25 0 01-.24 0L69 156a.08.08 0 010-.14h.07c.06 0 .06-.1 0-.13l-.86-.5c-.07 0-.07-.1 0-.14l.51-.29a.25.25 0 01.24 0l.8.46.17.1.12.07.12.07.69.4c.14.03.14.1.04.1zm-19.75 6.4l-.81.46c-.07 0-.06.11 0 .15l.77.44a.28.28 0 00.25 0l.81-.47c.07 0 .06-.1 0-.15l-.77-.44a.25.25 0 00-.25.01zm1.13-.66l-.8.46c-.07 0-.06.11 0 .15l.77.45a.28.28 0 00.25 0l.81-.47c.06 0 .06-.1 0-.15l-.77-.44a.3.3 0 00-.26 0zm1.14-.66l-.8.47c-.07 0-.06.1 0 .15l.77.44a.3.3 0 00.26 0l.81-.46c.06 0 .06-.11 0-.15l-.77-.45a.3.3 0 00-.27 0zm9.7-5.6l-.81.47c-.07 0-.06.1 0 .15l.77.44a.27.27 0 00.26 0l.8-.46c.07 0 .06-.11 0-.15l-.77-.44a.28.28 0 00-.25-.01zm1.14-.65l-.81.46c-.07 0-.06.11 0 .15l.77.45a.31.31 0 00.25 0l.81-.47c.07 0 .06-.1 0-.15l-.77-.44a.25.25 0 00-.25 0zm1.13-.66l-.8.47c-.07 0-.06.1 0 .14l.77.45a.28.28 0 00.25 0l.81-.47c.06 0 .06-.1 0-.14l-.77-.45a.3.3 0 00-.26 0zm1.14-.66l-.8.47c-.07 0-.06.1 0 .15l.77.44a.27.27 0 00.26 0l.81-.46c.06 0 0-.11 0-.15l-.77-.45a.34.34 0 00-.27 0zm-11.68 6.75l-1.1.63c-.06 0 0 .1 0 .15l.77.44a.27.27 0 00.26 0l1.1-.63c.06 0 .06-.11 0-.15l-.77-.44a.27.27 0 00-.26 0zm7.15-4.12l-1.1.64c-.07 0-.06.1 0 .15l.77.44a.28.28 0 00.25 0l1.1-.63c.07 0 .06-.11 0-.15l-.77-.45a.3.3 0 00-.25 0zm-1.45.86l-5.36 3.09c-.07 0-.06.11 0 .15l.77.45a.34.34 0 00.26 0l5.36-3.1c.07 0 .06-.1 0-.15l-.78-.44a.28.28 0 00-.25 0zm-5.19 5.52l-.81.47c-.06 0-.06.1 0 .14l.77.45a.3.3 0 00.26 0l.8-.47c.07 0 .06-.1 0-.15l-.76-.44a.3.3 0 00-.26 0zm1.14-.66l-.81.47c-.06 0-.06.1 0 .15l.77.44a.3.3 0 00.26 0l.8-.47c.07 0 .06-.1 0-.14l-.77-.45a.3.3 0 00-.25 0zm1.14-.66l-.81.47c-.06 0 0 .1 0 .15l.77.44a.3.3 0 00.26 0l.8-.46c.07 0 .06-.11 0-.15l-.77-.45a.3.3 0 00-.25 0zm1.14-.66L58 161c-.06 0 0 .1 0 .15l.77.44a.27.27 0 00.26 0l.8-.46c.07 0 .06-.11 0-.15l-.77-.44a.3.3 0 00-.28 0zm1.14-.65l-.81.46c-.06 0 0 .11 0 .15l.77.44a.27.27 0 00.26 0l.8-.46c.07 0 .06-.11 0-.15l-.77-.44a.27.27 0 00-.25 0zm1.14-.66l-.81.46c-.06 0 0 .11 0 .15l.77.45a.34.34 0 00.26 0l.8-.47c.07 0 .06-.1 0-.15l-.77-.44a.27.27 0 00-.25 0zm1.14-.66l-.81.47c-.06 0 0 .1 0 .14l.77.45a.3.3 0 00.26 0l.81-.47c.06 0 0-.1 0-.15l-.77-.44a.3.3 0 00-.26 0zm1.14-.66l-.81.47c-.06 0-.05.1 0 .14l.77.45a.3.3 0 00.26 0l.81-.47c.06 0 0-.1 0-.14l-.77-.45a.3.3 0 00-.26 0zm1.14-.66l-.81.47c-.06 0-.05.1 0 .15l.77.44a.3.3 0 00.26 0l.81-.46c.06 0 0-.11 0-.15l-.77-.45a.3.3 0 00-.26 0zm1.14-.66l-.8.47c-.07 0-.06.1 0 .15l.77.44a.27.27 0 00.26 0l.81-.46c.06 0 0-.11 0-.15l-.77-.44a.3.3 0 00-.27-.01zm1.14-.65l-.8.46c-.07 0-.06.11 0 .15l.77.44a.27.27 0 00.26 0l.81-.46c.06 0 0-.11 0-.15L67 156a.27.27 0 00-.24-.06z"/><path class="cls-24" d="M67.9 155.28l-.8.46c-.07 0-.06.11 0 .15l.77.45a.34.34 0 00.26 0l.81-.47c.06 0 0-.1 0-.15l-.77-.44a.27.27 0 00-.27 0zm-13.68 7.9l-1.67 1c-.07 0-.06.11 0 .15l.77.44a.27.27 0 00.26 0l1.66-1c.07 0 .06-.1 0-.15l-.77-.44a.25.25 0 00-.25 0zm-.53-.97l-.81.46c-.07 0-.06.11 0 .15l.77.45a.31.31 0 00.25 0l.81-.47c.07 0 .06-.1 0-.15l-.77-.44a.25.25 0 00-.25 0zm1.14-.66L54 162c-.07 0-.06.11 0 .15l.77.45a.28.28 0 00.25 0l.81-.47c.07 0 .06-.1 0-.15l-.77-.44a.28.28 0 00-.23.01zm1.17-.66l-.81.47c-.07 0-.06.1 0 .14l.81.5a.28.28 0 00.25 0l.81-.47c.07 0 .06-.1 0-.14l-.77-.45a.28.28 0 00-.29-.05zm1.11-.66l-.81.47c-.07 0-.06.1 0 .15l.77.44a.28.28 0 00.25 0l.81-.46c.07 0 .06-.11 0-.15l-.77-.45a.28.28 0 00-.25 0zm1.14-.66l-.81.47c-.07 0-.06.1 0 .15l.77.44a.25.25 0 00.25 0l.81-.46c.07 0 .06-.11 0-.15l-.77-.44a.28.28 0 00-.25-.01zm1.14-.65l-.81.46c-.07 0-.06.11 0 .15l.77.44a.28.28 0 00.25 0l.81-.47c.07 0 .06-.1 0-.15l-.77-.44a.25.25 0 00-.25.01zm1.14-.66l-.81.46c-.07 0-.06.11 0 .15l.77.45a.34.34 0 00.26 0l.8-.47c.07 0 .06-.1 0-.15l-.77-.44a.25.25 0 00-.25 0zm1.14-.66l-.81.47c-.07 0-.06.1 0 .14l.77.45a.3.3 0 00.26 0l.8-.47c.07 0 .06-.1 0-.15l-.77-.44a.28.28 0 00-.25 0zm1.14-.66l-.81.47c-.07 0-.06.1 0 .15l.77.44a.3.3 0 00.26 0l.8-.47c.07 0 .06-.1 0-.14l-.77-.45a.28.28 0 00-.25 0zm1.19-.66l-.81.47c-.07 0-.06.1 0 .15l.77.44a.27.27 0 00.26 0l.8-.46c.07 0 .06-.11 0-.15l-.77-.45a.31.31 0 00-.25 0zm1.09-.65l-.81.46c-.06 0-.06.11 0 .15l.77.44a.27.27 0 00.26 0l.8-.46c.07 0 .06-.11 0-.15l-.77-.44a.25.25 0 00-.25 0zm2.55-1.48l-2.22 1.28c-.06 0-.06.11 0 .15l.77.44a.3.3 0 00.26 0l2.21-1.28c.07 0 .06-.11 0-.15l-.76-.45a.3.3 0 00-.26.01zm-15.09 8.72l-1.1.63c-.07 0-.06.11 0 .15l.77.44a.27.27 0 00.26 0l1.1-.63c.07 0 .06-.11 0-.15l-.77-.44a.25.25 0 00-.26 0zm19.55-6.14l-16.19 9.35c-.06 0-.06.1 0 .15l.38.22a.3.3 0 00.26 0l16.19-9.35c.07 0 .06-.1 0-.15l-.38-.22a.3.3 0 00-.26 0z"/><path id="_Контур_18" data-name="&lt;Контур&gt;" class="cls-25" d="M53.16 157.15l.1.06 2.8 1.61 4.97-2.87.11-.06-2.91-1.67-5.07 2.93z"/><path id="_Контур_19" data-name="&lt;Контур&gt;" class="cls-26" d="M53.26 157.21l2.8 1.61 4.97-2.87-2.8-1.61-4.97 2.87z"/><path id="_Контур_20" data-name="&lt;Контур&gt;" class="cls-26" d="M45.18 160.92v.25a1 1 0 00.51.88l9.86 5.69a.94.94 0 00.51.14 1 1 0 00.51-.14l17.84-10.3a1 1 0 00.51-.88v-.25L56.06 167.2z"/><path id="_Контур_21" data-name="&lt;Контур&gt;" class="cls-20" d="M56.35 167.35a1.19 1.19 0 001-.08L75.15 157a1.19 1.19 0 00.59-.84l2-11.6a1.34 1.34 0 000-.2 1.21 1.21 0 00-.35-.86l-18.51 10.67a.91.91 0 00-.43.63z"/><path id="_Контур_22" data-name="&lt;Контур&gt;" class="cls-26" d="M56.06 167.2l.12.07.17.08 2.1-12.55a.91.91 0 01.43-.63l18.47-10.66a1.44 1.44 0 00-.25-.18L58.6 154a.87.87 0 00-.43.62z"/></g></g><path id="_Контур_23" data-name="&lt;Контур&gt;" class="cls-19" d="M42.65 117.56s.23 4.42.13 4.81-2 1.68-2.59 2.15 3.05 4 4.81 4.83 7.32-1.32 7.42-4-1-5-1.81-5.15-7.96-2.64-7.96-2.64z"/><path id="_Контур_24" data-name="&lt;Контур&gt;" class="cls-20" d="M42.16 123.13s3.2 4.77 7.67 5.22c1.41-1.39 1.53-6.33-.42-7.91 0 0 1.8-1.44 3-1.16a6.3 6.3 0 012.76 3.52 28.75 28.75 0 011.6 10.2c-.08 4.68 0 16.52 0 16.52a10.08 10.08 0 01-4.71 6.78 14.53 14.53 0 01-10.6 1.46 5.28 5.28 0 01-3.89-3.43c.21-3.29 1.51-10 1-14.17s-1.42-7.21-1.65-10.54.44-3.27 2.12-4.46a26.59 26.59 0 013.12-2.03z"/><path id="_Контур_25" data-name="&lt;Контур&gt;" class="cls-19" d="M47.29 161.17a22.45 22.45 0 00-2.51-1.44 5.21 5.21 0 01-2.14-1.3c-.79-.77-2.07-3.68-3-6.52a28.75 28.75 0 01-1.08-9.85c.39-4 1.82-9.55 2.18-11.84s-.37-3.2-1.44-4c-1.25-1-3-.55-3.9 2.66a62.12 62.12 0 00-2 13.59 31.11 31.11 0 001.55 10 36.4 36.4 0 003.83 7.89c.44.74.58 1.39 1.25 2.9a10.21 10.21 0 002.93 3.9c1.13.81 1.66.92 1.92.77s.26-.56-.21-1a8.48 8.48 0 01-2-2.25s1 1 1.63 1.53a8.41 8.41 0 001.87 1.19c.66.29 1.57-.27 1.1-.71s-.94-.66-1.87-1.47a7.7 7.7 0 01-1.4-1.42 16.32 16.32 0 002.08 1.35 3.54 3.54 0 001.89.51c.35 0 .77-.5.12-1a12.81 12.81 0 01-2.45-1.66c-.72-.72-1.12-1.32-.92-1.33s.59.43 1.43.7 1.74 0 1.85-.44.08-.37-.71-.76z"/><path id="_Контур_26" data-name="&lt;Контур&gt;" class="cls-19" d="M52.64 111c-.53-3.43-3-6-6.53-5.83a6.81 6.81 0 00-6.43 7.18 6.73 6.73 0 003 5.22 6.6 6.6 0 00.55 1.5c1.24 1.46 5 2.37 6.11 2.21a3.23 3.23 0 002.81-2.3c1.15-2.7.78-6.3.49-7.98z"/><path class="cls-24" d="M42.65 117.56l.32-3s-2.44-6.32 3.33-5.1c3.81.8 4.77 1.14 5.93-1.41s-2.93-4.86-7.79-4.22a6.71 6.71 0 00-6 6.81c.13 1.89.63 5.7 4.21 6.92z"/><path class="cls-23" d="M32.77 134.72s3.15 3.13 6.88 2.23c.53-.36 1.81-7.68 1.81-7.68s0-4.06-3.11-4-5.58 9.45-5.58 9.45zm23.78-6.07a3.48 3.48 0 002.33-1c-.13-1.64-2.23-7.87-6.45-8.33a7.73 7.73 0 012.64 3.18 41 41 0 011.48 6.15z"/></g><g id="Girl_8"><ellipse class="cls-6" cx="455.85" cy="360.19" rx="22.69" ry="13.1"/><path id="_Контур_27" data-name="&lt;Контур&gt;" class="cls-24" d="M454.85 237.69c.91-1.46 7.86-2.42 10.15 3.47.86 2.23.73 7.94 1.46 11.52s2.43 5.62 3 8.53-.38 7.78-7.39 8.65-12.4-1.6-14.06-3.84-1.69-7 0-9.53 3-4.63 3-8z"/><path class="cls-19" d="M446.53 262.33S444.88 274 448 282.21s2.25-2.13 2.25-2.13l-.75-2.46s-.62-9.5-.36-11.83.2-4.33.36-4.52-.61-.56-.94-.61-2.03 1.67-2.03 1.67z"/><path id="_Контур_28" data-name="&lt;Контур&gt;" class="cls-24" d="M459.44 236.68s-5.23-1.51-8.4 1.32a7.77 7.77 0 00-2.24 7.75c.42 1.65 1.27 3.91 2.58 4s8.06-13.07 8.06-13.07z"/><path id="_Контур_29" data-name="&lt;Контур&gt;" class="cls-19" d="M461.44 251s-.34 5.83-.23 6.26 2.28.84 2.9 1.35-3.17 6.42-5.1 7.3-7.88-1.36-8.29-4.33c-.38-2.72 1.7-4.84 2.51-5.58a12.41 12.41 0 011.64 0l.17-2.82c2.61-.93 6.4-2.18 6.4-2.18z"/><path id="_Контур_30" data-name="&lt;Контур&gt;" class="cls-20" d="M462.24 257.77c1.64.26 3.51 1.13 3.77 2a19.33 19.33 0 01-.47 9.73c-1.42 3.75-2.37 6.14-3.19 7.76 0 0-7.09 3-12.8-.51 0 0-.4-4-.42-6.17-5.28-4.6-.77-10.28 3.7-14.69a10.85 10.85 0 011.61 0s-4 4.72-1.21 7.4c5.93-1.79 7.11-4.45 9.01-5.52z"/><path id="_Контур_31" data-name="&lt;Контур&gt;" class="cls-19" d="M450.55 243.72c.59-3.75 3.29-6.58 7.16-6.35a7.43 7.43 0 013.73 13.63 7.54 7.54 0 01-.59 1.63c-1.37 1.6-5 2.61-6.21 2.62-1 0-1.93-.95-2.9-2.56-2.03-3.4-1.51-7.12-1.19-8.97z"/><path class="cls-24" d="M458.9 237.44c2.71.53 4.94 1.29 5.68 3.95.5 1.84 1.16 5.33.53 6.8l-.38 1.07-3.29 1.74s-1.53-1.28-1.05-5a2.8 2.8 0 00-.46-1.42 4.12 4.12 0 01-.46-1.13 4.25 4.25 0 00-2.12-2.3c-2.45-1.37-6-.19-6.52.31a7.11 7.11 0 018.07-4.02z"/><path id="_Контур_32" data-name="&lt;Контур&gt;" class="cls-19" d="M466.2 285c.61-3.8 1.75-6.26 1.22-8.35a75.85 75.85 0 00-4.62-12.3c-1.2-2.36-.83-4 .41-4.94 1.4-1 2.73-.59 4 2 1.59 3.29 3.37 6.67 4.24 11.57a25.78 25.78 0 01-.12 9.57c-.54 3.41-1.62 5.33-2.91 8.53-.36.92-2.74-2.84-2.22-6.08z"/><path class="cls-27" d="M463.83 355.83c-1.37 1.11-3.51.34-3.61.44a55.48 55.48 0 01-5 3.84c-.86.67-2.19 1.57-1.95 2.87.43 2.31 4.13 1.6 5.53.89s2.53-1.88 3.85-2.7c.95-.59 1.87-.89 2-2.08.09-.72-.58-3.29-.82-3.26z"/><path class="cls-28" d="M464.63 358.61c-.18 1.14-1.09 1.46-2 2-1.34.83-2.52 2-3.92 2.74s-4.51 1.3-5.41-.35c.49 2.23 4.13 1.53 5.51.83s2.53-1.88 3.85-2.7c.95-.59 1.87-.89 2-2.08a2.88 2.88 0 00-.03-.44z"/><path class="cls-27" d="M454.2 353.9c-1.25 1-3.15.45-3.24.55a52.4 52.4 0 01-4.59 3.5c-.79.61-2 1.44-1.79 2.62.4 2.12 3.79 1.47 5.07.82s2.32-1.72 3.53-2.47c.86-.54 1.71-.82 1.85-1.91.08-.66-.6-3.13-.83-3.11z"/><path class="cls-28" d="M455 356.57c-.17 1.05-1 1.33-1.86 1.87-1.23.76-2.31 1.86-3.59 2.51s-4.13 1.19-5-.32c.45 2 3.78 1.4 5 .76s2.32-1.72 3.53-2.47c.86-.54 1.71-.82 1.85-1.91a2.41 2.41 0 00.07-.44z"/><path class="cls-19" d="M446.81 290.1c.61-4.73 2.35-11.6 2.35-11.6a14 14 0 005.25 1.31 43.54 43.54 0 007.93-.78 47.67 47.67 0 002.8 4.33c1.36 1.89 4 6 3.37 13.29-.41 4.73-3.07 24.84-3.07 24.84a37.47 37.47 0 011.63 10.43 84 84 0 01-1.66 12.49l-1.58 11.42s-2.11 1.52-3.61.44l.19-11.17c-.18-2.73-.45-6.76-.63-9.34-.28-4.19-1-10.85-1.25-12.52s-.75-4.57-1-7.83-1.48-19.8-1.48-19.8l-.17 3.1s-.17 5-.89 11.24-1 9-1 9a13.34 13.34 0 011.42 4c.13 1.34 1.66 12 .74 17.36L454.29 354a3.61 3.61 0 01-3.25.43l-1.11-13.84c-.74-5.27-2.31-16.43-2.55-17.88a59.48 59.48 0 01-.94-8.85c-.37-5.99-.23-19.03.37-23.76z"/><path class="cls-10" d="M462.35 277.29l4.07 8.18s6.22 9.1-.22 32.48l1.21 7.21s-12.19 7.83-20.35 0c0 0-2.83-21.61-1.32-31.57a113.26 113.26 0 013.8-16.93s2 2.21 12.27.75"/><path class="cls-23" d="M469.66 266.05s-2.83 2.82-6.19 2.47l-1.61-5.52s-1-2.87 1.4-4.13 4.99 1.56 6.4 7.18zm-16.83-10.13s-3.24-1-6.67 6.19l1.28.77a54.66 54.66 0 015.39-6.96z"/></g><g id="Girl_4"><ellipse class="cls-6" cx="85.39" cy="486.9" rx="22.69" ry="13.1"/><path id="_Контур_33" data-name="&lt;Контур&gt;" class="cls-19" d="M98.48 386.23c2 .57 3.12 2.76 4.86 7.45a39.25 39.25 0 012.09 13.22c-.56 4.42-2.39 7.86-6.81 11.44l-2.11-3.87s4.33-3.82 4.77-8.24c.25-2.48-2.66-10.84-2.66-11.07s-.14-8.93-.14-8.93z"/><path class="cls-27" d="M81.17 488.09a4.85 4.85 0 01-4-.54c-1.08 0-7.43-2.49-8.23-.38-.7 1.85 1.85 3.57 3.2 3.9 3 .71 5.16 2.19 6.36 2.44a3 3 0 002.74-.38c.83-.84.76-3.94-.07-5.04z"/><path class="cls-28" d="M78.48 493c-1.2-.25-3.39-1.73-6.36-2.45-1.13-.27-3.1-1.52-3.29-3-.27 1.7 2 3.21 3.29 3.52 3 .71 5.16 2.19 6.36 2.44a3 3 0 002.74-.38 1.91 1.91 0 00.39-.71 3.56 3.56 0 01-3.13.58z"/><path class="cls-27" d="M97.29 479.71a3.81 3.81 0 01-3.49-.53c-1 0-7.53-2.38-8.3-.35-.67 1.78 1.78 3.42 3.08 3.74 2.86.69 5 2.12 6.12 2.36a2.9 2.9 0 002.64-.37c.82-.81.75-3.79-.05-4.85z"/><path class="cls-28" d="M94.7 484.44c-1.15-.25-3.26-1.67-6.12-2.36-1.09-.27-3-1.47-3.17-2.9-.25 1.64 2 3.1 3.17 3.39 2.86.69 5 2.12 6.12 2.36a2.9 2.9 0 002.64-.37 1.67 1.67 0 00.37-.69 3.4 3.4 0 01-3.01.57z"/><path id="_Контур_34" data-name="&lt;Контур&gt;" class="cls-19" d="M99.42 463.6a21.09 21.09 0 00-1.24-7.15s.82-9.79 1.45-16.22c.92-9.48 2.38-10.42 2-16.18-.38-5.34-3.42-8.8-4.21-12.42l-15.47 1.22s-1.35 4.39-3.09 13.13-1.86 19.13-1.72 32.89c0 3.55-.6 6.63-.4 15.47.14 5.94.48 13.22.48 13.22 2.26 1.94 3.83.51 3.83.51s4-17.6 4.55-21.64a12.73 12.73 0 00-.54-6.68s1.16-5.53 2-9.88c1-5.31 3.65-16.77 3.65-16.77s-.45 17.61.32 21.08.9 6.49 1.56 11.21c.79 5.7 1.15 14.05 1.15 14.05 2.36 1.5 3.41.35 3.41.35s2.27-11.2 2.27-16.19z"/><path class="cls-10" d="M97.38 411.63c1.62 1.66 4.3 6.71 4.3 14.35 0 8.6-1.25 6.86-1.85 16.33l-.6 9.47s-12.93 6.17-22.15.45c-.82-1.79.31-21.71 1.93-28.79s2.73-10.55 2.73-10.55 11.89 3.21 15.64-1.26z"/><path id="_Контур_35" data-name="&lt;Контур&gt;" class="cls-19" d="M97.57 386.14c-3.3-.2-3.62.35-3.88-.82-.09-.42-.28-3.32-.28-3.32a10.61 10.61 0 00.83-1.22 8.37 8.37 0 004-6.29 8.47 8.47 0 00-7.54-9.3c-4.37-.45-7.59 2.62-8.45 6.84-.46 2.08-.94 6.33.36 9.74.73 1.93 1.41 3.28 3.15 3.21a10.47 10.47 0 001.72-.3 16.18 16.18 0 01.1 2.41c0 .85.1 1.27-1.56 2.29s2.5 3.1 5.21 2.9 5.75-1.84 6.59-3.59c.92-1.96 1.3-2.46-.25-2.55z"/><path class="cls-23" d="M100 400.75s3.73-.84 5.44-2.5c0 0-2.22-7-3.64-8.74S99 399 99 399z"/><path id="_Контур_36" data-name="&lt;Контур&gt;" class="cls-20" d="M94.29 386.07c.61.76.68 1.71-1.67 2.31a7.44 7.44 0 01-5.15-.4 34.52 34.52 0 00-5.32 2.82c-2 6.6-.39 7.45-1.23 12.18.33 2.38.72 8.52.82 9.91 4.49 3.14 13.6 2.07 15.64-1.26a27.55 27.55 0 01.31-3.31c2.14-7.94 3.81-10 3.22-16-.34-3.42-.61-5.14-2.43-6.06a16.1 16.1 0 00-4.19-.19z"/><path id="_Контур_37" data-name="&lt;Контур&gt;" class="cls-19" d="M53.07 411.89a23.07 23.07 0 013 .86 10 10 0 002.93 1c1.1.17 2.82-.4 5.79-1.8a32 32 0 008.7-6.54 75.44 75.44 0 007.6-10.85c1.29-2.35 2.92-2.94 4.34-2.48 1.7.56 1.91 2.25 0 5.41a60.5 60.5 0 01-8.7 11.39 32.63 32.63 0 01-9.07 6.4 27.87 27.87 0 01-7.63 2.65c-.93.2-1.56.59-3.28 1.19a11.36 11.36 0 01-5.35.59c-1.49-.29-2-.63-2.06-1s.24-.63.94-.58a9.18 9.18 0 003.32-.08s-1.54-.05-2.45-.16a8.86 8.86 0 01-2.38-.6c-.73-.31-1-1.46-.26-1.42s1.24.26 2.6.4a9 9 0 002.16 0 16.91 16.91 0 01-2.65-.66 3.76 3.76 0 01-1.85-1.14c-.25-.29-.18-1 .69-.82a13.89 13.89 0 003.24.71c1.11 0 1.9-.09 1.76-.26s-.8-.15-1.64-.62-1.34-1.38-1-1.82.34-.11 1.25.23z"/><path class="cls-23" d="M83.64 401.31a12 12 0 01-6.84-3.47l4.14-5.74s2.33-2.94 5.41-1.28c0 0 2.32.25 0 5.11a47.84 47.84 0 01-2.71 5.38z"/><path class="cls-24" d="M81.45 369.54a3.83 3.83 0 014.32-3.16 7.31 7.31 0 014.92-1.19c3.93.41 6.5 3 7.69 6.9a30.94 30.94 0 011.16 6c1.18 8.75 4.36 15.69 1.39 18.29s-11.11 4.25-14.51 2.62 2.8-16.71-3.93-25.09c-1.58-1.99-1.73-3.38-1.04-4.37z"/></g><g id="Men_13"><ellipse class="cls-6" cx="22.69" cy="454.91" rx="22.69" ry="13.1"/><path class="cls-18" d="M12 451.62c1.55 1.26 3.83.11 3.94.23a72.22 72.22 0 005.71 4.75c1 .76 2.47 1.77 2.19 3.23-.48 2.6-4.65 1.8-6.23 1s-2.86-2.11-4.35-3c-1.06-.66-2.1-1-2.27-2.34-.14-.85.7-3.9 1.01-3.87z"/><path class="cls-21" d="M11 454.91c.21 1.28 1.24 1.64 2.29 2.29 1.52.94 2.85 2.3 4.42 3.09s5.08 1.47 6.1-.39c-.55 2.51-4.65 1.72-6.21.93s-2.86-2.11-4.35-3c-1.06-.66-2.1-1-2.27-2.34a3.6 3.6 0 01.02-.58z"/><path class="cls-18" d="M25.38 446.63c1.55 1.26 4.25-.11 4.37 0a60 60 0 005.09 4.61c1 .75 2.47 1.77 2.2 3.23-.49 2.6-4.66 1.8-6.23 1s-2.86-2.12-4.35-3c-1.06-.66-2.11-1-2.27-2.34-.1-.85.92-3.53 1.19-3.5z"/><path class="cls-21" d="M24.23 449.73c.21 1.28 1.24 1.64 2.29 2.29 1.52.94 2.85 2.3 4.42 3.1s5.08 1.46 6.1-.4c-.55 2.51-4.65 1.73-6.21.94s-2.85-2.12-4.34-3.05c-1.07-.66-2.11-1-2.28-2.34a3.6 3.6 0 01.02-.54z"/><path id="_Контур_38" data-name="&lt;Контур&gt;" class="cls-22" d="M11.87 394.54c.08 2.34.8 12.5 1.13 17.87s.4 12 .4 12-.93 3.91-1.53 8.52 0 19.13 0 19.13a3.67 3.67 0 004 0s2.48-11.63 3.62-16.87 1.35-8.26 1.94-11.5c.72-3.93 2.27-22.26 2.27-22.26h.62l1.66 20.69a23.16 23.16 0 00-1.05 4.7c-.45 3.37.48 20.33.48 20.33a4.1 4.1 0 004.28-.18s4.13-22.46 4.13-25.87c0-2.27-.38-32.07-.38-32.07z"/><path id="_Контур_39" data-name="&lt;Контур&gt;" class="cls-19" d="M17.48 349.35s.26 5.1.15 5.55-2.34 1.94-3 2.48 3.53 4.62 5.56 5.62 8.46-1.52 8.57-4.68-1.1-5.81-2.08-5.95-9.2-3.02-9.2-3.02z"/><path class="cls-19" d="M31.44 358.81c.3-2.25-1.18-4.39.25-6.18 5 4.94 4.4 18 5.54 26.35 3.74 3.9 11.25 7.75 13.36 8.7.38.18.72.37.64.78a9.26 9.26 0 01-1.75 3.82c-5-2.14-8.55-3.37-14.76-9.27a13.59 13.59 0 01-1.57-2.07c-1.77-5.32-2.22-18.25-1.71-22.13z"/><path id="_Контур_40" data-name="&lt;Контур&gt;" class="cls-20" d="M16.91 355.78s3.7 5.51 8.86 6c1.63-1.6 1.77-7.31-.48-9.14 0 0 2.07-1.67 3.49-1.35a7.35 7.35 0 013.22 4.1 33.52 33.52 0 011.82 11.8c-.09 5.41 0 21.94 0 21.94s-.72 3.49-5.39 6.09-8.14 2.86-11.31 2.12c-2.61-.61-4.77-1.53-5.67-3.42.24-3.8 1.93-13.69 1.3-18.46s-1.64-8.32-1.9-12.18.5-3.78 2.44-5.15a29.62 29.62 0 013.62-2.35z"/><path id="_Контур_41" data-name="&lt;Контур&gt;" class="cls-19" d="M29 341.75c-.61-4-3.46-7-7.55-6.73a7.85 7.85 0 00-4 14.33 7.82 7.82 0 00.63 1.73c1.44 1.69 5.81 2.73 7.06 2.55a3.74 3.74 0 003.28-2.63c1.36-3.14.93-7.3.58-9.25z"/><path class="cls-18" d="M17.48 349.35l.37-3.46S15 338.59 21.7 340c4.4.93 5.5 1.33 6.84-1.62s-3.38-5.61-9-4.87a7.75 7.75 0 00-6.94 7.86c.16 2.16.74 6.56 4.88 7.98z"/><path class="cls-19" d="M9.67 361c1.93-.55.46-.1 1.93-.55 5 4.93 4.41 13.39 5.55 21.74C19.93 386.8 30.24 393 30.24 393c.13.89-.18 1.15-1.3 3a44.43 44.43 0 01-15.33-9.89c-.25-.23-.61-.3-.71-.61-1.77-5.36-3.74-20.61-3.23-24.5z"/><path class="cls-20" d="M55.55 371.31l-7.49 25.62-16.45 6.57 6-24.96 17.94-7.23z"/><path class="cls-19" d="M27.65 393.21c.24-.88.87-.66 1.59-.44a4.13 4.13 0 002.43.21 7.52 7.52 0 001.74-1.18 2.15 2.15 0 011.1-.31c0 .22-.38 1.52-.38 1.52h4a.61.61 0 01.57 1h.25c.73-.16 1 1 .31 1.14l-.6.09c.48.19.6 1 0 1.1h-.19a.78.78 0 01-.26 0H38a.63.63 0 01-.54.76c-1.76.23-4.35.93-5.94-.52a9.88 9.88 0 01-3.19-.86c-.95-.48-.98-1.47-.68-2.51zm17.98-2.1h.25a.6.6 0 01.35-1.09c.37 0 4.08-.78 4.08-.78l.45-1.52c0-.09.64.3.66.32a2.46 2.46 0 011.12 1.85 4 4 0 01-1.07 2.87 3.66 3.66 0 01-2.47 1.06c-.45 0-.88.05-1.27.09a.65.65 0 01-.69-.64h-.12a.47.47 0 01-.26 0h-.19c-.63 0-.68-.78-.25-1.06h-.61c-.8.07-.73-1.11.02-1.1z"/><path class="cls-23" d="M33.54 362.15a4 4 0 002.68-1.2c-.14-1.9-2.56-9.09-7.44-9.63a9.09 9.09 0 013 3.68 48.52 48.52 0 011.76 7.15zm-24.75 9.5s4.85 1.68 8.27-1.14c.38-.64-2-8.9-2-8.9s-2-4.22-5.22-2.54-1.05 12.58-1.05 12.58z"/></g><g id="Men_12"><path id="_Контур_42" data-name="&lt;Контур&gt;" class="cls-19" d="M304.31 86.43a39.89 39.89 0 01-5.7 7.75c-.62.72-5.35-1.09-4.36-1.6s4.09-4.84 5.65-7.72a95.18 95.18 0 003.31-10.53c1-3.53 1.82-8.71 2.53-11.15a4.76 4.76 0 013.63-3.69c1.7-.39 2.81.07 2.5 2.14-.55 3.62-3.38 17.68-7.56 24.8z"/><path class="cls-27" d="M307 141.53c-1.46 1.19-3.63.1-3.74.21a63.19 63.19 0 01-5.42 4.51c-.92.72-2.34 1.69-2.09 3.07.47 2.48 4.43 1.72 5.92 1s2.72-2 4.13-2.89c1-.63 2-.95 2.16-2.23.12-.81-.68-3.7-.96-3.67z"/><path class="cls-28" d="M308 144.65c-.19 1.22-1.17 1.55-2.17 2.18-1.44.89-2.71 2.18-4.2 2.93s-4.83 1.4-5.8-.37c.53 2.39 4.42 1.64 5.9.89s2.72-2 4.13-2.89c1-.63 2-.95 2.16-2.23a1.84 1.84 0 00-.02-.51z"/><path class="cls-27" d="M292.13 133c-1.47 1.19-4-.11-4.15 0a58.9 58.9 0 01-4.84 4.37c-.92.72-2.35 1.68-2.09 3.07.46 2.47 4.43 1.71 5.92 1s2.72-2 4.13-2.89c1-.62 2-.95 2.16-2.22.1-.87-.87-3.41-1.13-3.33z"/><path class="cls-28" d="M293.22 135.89c-.2 1.22-1.18 1.55-2.18 2.18-1.44.89-2.7 2.18-4.2 2.93s-4.82 1.4-5.79-.37c.52 2.39 4.42 1.64 5.9.89s2.71-2 4.13-2.89c1-.63 2-.95 2.16-2.23a3.23 3.23 0 00-.02-.51z"/><path id="_Контур_43" data-name="&lt;Контур&gt;" class="cls-10" d="M326.66 94.45c1.63 10.17-2.89 14-8.76 16.13-4.21 1.55-10.26 3.94-10.26 3.94s.09 2.23.13 7.24c.05 4.41-.54 20.52-.54 20.52a4.9 4.9 0 01-4.49-.05s-2.37-12.34-2.87-17.9c-.68-7.55-1.84-12.49-1.46-14.11.34-1.43 8.59-5.49 11.21-7.66l-17.28 5.79a30.79 30.79 0 01.5 5.68c-.16 6-.49 18.95-.49 18.95s-2.37 1.71-4.39 0c0 0-4.35-25.65-3.82-29 .5-3.22 15.73-9.81 18.41-12.08a4.3 4.3 0 013.38-.91z"/><g id="_Группа_5" data-name="&lt;Группа&gt;"><g id="_Группа_6" data-name="&lt;Группа&gt;"><path id="_Контур_44" data-name="&lt;Контур&gt;" class="cls-20" d="M285.23 98.68L296.84 92a.67.67 0 01.67 0l20.36 11.76-11.94 6.9z"/><path class="cls-24" d="M306.47 108.17l.89.51c.07 0 .06.12 0 .16l-.85.49a.28.28 0 01-.28 0l-.88-.51c-.08 0-.07-.11 0-.16l.84-.49a.31.31 0 01.28 0zm-1.25-.72l.88.51c.08 0 .07.11 0 .16l-.84.49a.31.31 0 01-.28 0l-.89-.51c-.07 0-.06-.11 0-.16l.85-.49a.31.31 0 01.28 0zm-1.22-.73l.89.51c.07 0 .06.11 0 .16l-.85.49a.31.31 0 01-.28 0l-.88-.51c-.08 0-.07-.12 0-.16l.84-.49a.28.28 0 01.28 0zm-1.29-.72l.89.51c.07 0 .06.12 0 .16l-.85.49a.28.28 0 01-.28 0l-.88-.51c-.07 0-.07-.11 0-.16l.84-.49a.31.31 0 01.28 0zm-1.25-.72l.89.51c.07 0 .06.11 0 .16l-.85.49a.31.31 0 01-.28 0l-.89-.51c-.07 0-.06-.11 0-.16l.85-.49a.31.31 0 01.28 0zm-1.25-.73l.88.52c.08 0 .07.11 0 .16l-.84.49a.34.34 0 01-.28 0l-.89-.51c-.07 0-.06-.12 0-.17l.85-.48a.31.31 0 01.28-.01zm-1.21-.72l.88.51c.07 0 .06.12 0 .16l-.88.5a.3.3 0 01-.29 0l-.88-.51c-.07 0-.06-.11 0-.16l.84-.49a.33.33 0 01.33-.01zm-1.3-.72l.89.51c.07 0 .06.11 0 .16l-.85.49a.31.31 0 01-.28 0l-.88-.51c-.08 0-.07-.11 0-.16l.84-.49a.31.31 0 01.28 0zm-1.25-.73l.88.52c.08 0 .07.11 0 .16l-.84.49a.34.34 0 01-.28 0l-.89-.51c-.07 0-.06-.12 0-.17l.85-.48a.31.31 0 01.28-.01zm-1.25-.72l.88.51c.07 0 .07.12 0 .16l-.84.49a.28.28 0 01-.28 0l-.89-.51c-.07 0-.06-.11 0-.16l.85-.49a.31.31 0 01.28 0zm-1.26-.72l.89.51c.07 0 .06.11 0 .16l-.85.49a.31.31 0 01-.28 0l-.88-.51c-.07 0-.07-.11 0-.16l.84-.49a.31.31 0 01.28 0zm-1.25-.73l.89.52c.07 0 .06.11 0 .16l-.85.49a.34.34 0 01-.28 0l-.89-.51c-.07 0-.06-.12 0-.17l.84-.48a.31.31 0 01.29-.01zm-1.25-.72l.88.51c.08 0 .07.12 0 .16l-.84.49a.28.28 0 01-.28 0l-.89-.51c-.07 0-.06-.11 0-.16l.85-.49a.31.31 0 01.28 0zm-1.86-1.07l1.49.86c.07 0 .06.11 0 .16l-.84.49a.33.33 0 01-.29 0l-1.48-.86c-.08 0-.07-.11 0-.16l.84-.49a.31.31 0 01.28 0zm16.25 7.98l.88.51c.08 0 .07.11 0 .16l-.84.49a.31.31 0 01-.28 0l-.89-.51c-.07 0-.06-.12 0-.16l.85-.49a.31.31 0 01.28 0zm-1.26-.73l.89.51c.07 0 .06.12 0 .17l-.85.48a.31.31 0 01-.28 0l-.88-.52c-.08 0-.07-.11 0-.16l.84-.49a.34.34 0 01.28.01zm-1.25-.67l.88.51c.08 0 .07.11 0 .16l-.84.49a.31.31 0 01-.28 0l-.89-.51c-.07 0-.06-.11 0-.16l.81-.49a.31.31 0 01.32 0zm-1.26-.78l.89.51c.07 0 .06.12 0 .17l-.85.48a.31.31 0 01-.28 0l-.88-.51c-.08 0-.07-.12 0-.17l.84-.48a.31.31 0 01.28 0zm-1.24-.72l.88.52c.08 0 .07.11 0 .16l-.84.49a.34.34 0 01-.28 0l-.89-.51c-.07 0-.06-.12 0-.17l.85-.48a.31.31 0 01.28-.01zm-1.26-.72l.89.51c.07 0 .06.12 0 .16l-.85.49a.31.31 0 01-.28 0l-.88-.51c-.08 0-.07-.11 0-.16l.84-.49a.31.31 0 01.28 0zm-1.25-.72l.88.51c.08 0 .07.11 0 .16l-.84.49a.34.34 0 01-.28 0l-.89-.51c-.07 0-.06-.12 0-.17l.85-.48a.28.28 0 01.28 0zm-1.26-.73l.89.51c.07 0 .06.12 0 .16l-.85.49a.28.28 0 01-.28 0l-.88-.51c-.08 0-.07-.11 0-.16l.84-.49a.31.31 0 01.28 0zm-1.25-.72l.88.51c.08 0 .07.11 0 .16l-.84.49a.31.31 0 01-.28 0l-.89-.51c-.07 0-.06-.12 0-.16l.85-.49a.28.28 0 01.28 0zm-1.26-.73l.89.51c.07 0 .06.12 0 .17l-.85.48a.28.28 0 01-.28 0l-.88-.51c-.08 0-.07-.11 0-.16l.84-.49a.34.34 0 01.28 0zm-1.25-.72l.88.51c.08 0 .07.11 0 .16l-.84.49a.31.31 0 01-.28 0l-.89-.51c-.07 0-.06-.12 0-.16l.85-.49a.31.31 0 01.28 0zm-1.29-.73l.89.51c.07 0 .06.12 0 .17l-.85.48a.31.31 0 01-.28 0l-.88-.52c-.08 0-.07-.11 0-.16l.84-.49a.34.34 0 01.28.01zm15.08 8.69l1.49.86c.07 0 .06.12 0 .16l-.84.49a.31.31 0 01-.28 0l-1.49-.86c-.08 0-.07-.11 0-.16l.84-.49a.34.34 0 01.28 0zm-17.44-8.75l.89.51a.24.24 0 00.26 0l.89-.51c.08 0 .08-.11 0-.15h-.07a.08.08 0 010-.14l.95-.55a.08.08 0 000-.15L292 97a.29.29 0 00-.27 0l-.88.5-.18.11-.13.08-.14.07-.76.44a.08.08 0 000 .17zm21.68 6.99l.89.51c.07 0 .06.12 0 .17l-.85.49a.34.34 0 01-.28 0l-.88-.51c-.07 0-.07-.12 0-.17l.84-.48a.31.31 0 01.28-.01zm-1.24-.72l.88.51c.07 0 .06.12 0 .17l-.84.48a.33.33 0 01-.29 0l-.88-.52c-.07 0-.06-.11 0-.16l.84-.49a.37.37 0 01.29.01zm-1.25-.72l.88.51c.07 0 .06.12 0 .16l-.84.49a.3.3 0 01-.29 0l-.88-.51c-.07 0-.06-.11 0-.16l.84-.49a.33.33 0 01.29 0zm-10.64-6.14l.88.51c.07 0 .07.11 0 .16l-.84.49a.31.31 0 01-.28 0l-.89-.51c-.07 0-.06-.11 0-.16l.85-.49a.31.31 0 01.28 0zm-1.25-.72l.88.51c.08 0 .07.11 0 .16l-.84.49a.31.31 0 01-.28 0l-.89-.51c-.07 0-.06-.11 0-.16l.85-.49a.31.31 0 01.28 0zm-1.25-.72l.88.51c.08 0 .07.11 0 .16l-.84.49a.31.31 0 01-.28 0l-.89-.51c-.07 0-.06-.12 0-.16l.85-.49a.28.28 0 01.28 0zm-1.25-.72l.88.51c.08 0 .07.11 0 .16l-.84.49a.34.34 0 01-.28 0l-.89-.51c-.07 0-.06-.12 0-.17l.85-.48a.28.28 0 01.28 0zm12.81 7.38l1.21.7c.07 0 .06.12 0 .16l-.84.49a.31.31 0 01-.28 0l-1.21-.69c-.07-.05-.06-.12 0-.17l.87-.49a.31.31 0 01.25 0zm-7.81-4.5l1.2.7c.08 0 .07.11 0 .16l-.84.49a.31.31 0 01-.28 0l-1.21-.7c-.07 0-.06-.11 0-.16l.84-.49a.33.33 0 01.29 0zm1.56.91l5.88 3.39c.07 0 .06.12 0 .17l-.84.48a.33.33 0 01-.29 0l-5.88-3.4c-.07 0-.06-.12 0-.16l.85-.49a.31.31 0 01.28.01zm5.7 6.09l.89.51c.07 0 .06.11 0 .16l-.85.49a.31.31 0 01-.28 0l-.88-.51c-.08 0-.07-.11 0-.16l.84-.49a.31.31 0 01.28 0zm-1.25-.72l.89.51c.07 0 .06.11 0 .16l-.84.49a.31.31 0 01-.28 0l-.89-.51c-.07 0-.06-.12 0-.16l.85-.49a.28.28 0 01.27 0zm-1.25-.73l.88.52c.08 0 .07.11 0 .16l-.84.49a.34.34 0 01-.28 0l-.89-.51c-.07 0-.06-.12 0-.17l.85-.48a.31.31 0 01.28-.01zm-1.2-.72l.88.51c.07 0 .07.12 0 .17l-.84.48a.28.28 0 01-.28 0l-.89-.51c-.07 0-.06-.11 0-.16l.85-.49a.34.34 0 01.28 0zm-1.3-.72l.88.51c.07 0 .06.11 0 .16l-.84.49a.33.33 0 01-.29 0l-.88-.51c-.07 0-.06-.11 0-.16l.84-.49a.33.33 0 01.29 0zm-1.26-.72l.89.51c.07 0 .06.11 0 .16l-.85.49a.31.31 0 01-.28 0l-.88-.51c-.07 0-.07-.12 0-.16l.84-.49a.28.28 0 01.28 0zm-1.25-.73l.89.52c.07 0 .06.11 0 .16l-.85.49a.34.34 0 01-.28 0l-.88-.51c-.08 0-.07-.12 0-.17l.84-.48a.31.31 0 01.28-.01zm-1.25-.72l.89.51c.07 0 .06.12 0 .17l-.85.48a.28.28 0 01-.28 0l-.88-.51c-.08 0-.07-.11 0-.16l.84-.49a.34.34 0 01.28 0zm-1.25-.72l.89.51c.07 0 .06.11 0 .16l-.85.49a.31.31 0 01-.28 0l-.89-.51c-.07 0-.06-.11 0-.16l.85-.49a.31.31 0 01.28 0zm-1.25-.72l.88.51c.08 0 .07.11 0 .16l-.84.49a.31.31 0 01-.28 0l-.89-.51c-.07 0-.06-.12 0-.16l.85-.49a.28.28 0 01.28 0zm-1.25-.73l.88.52c.07 0 .07.11 0 .16l-.84.49a.34.34 0 01-.28 0l-.89-.51c-.07 0-.06-.12 0-.17l.85-.48a.31.31 0 01.28-.01z"/><path class="cls-24" d="M292.94 97.55l.88.51c.07 0 .06.12 0 .17l-.84.48a.3.3 0 01-.29 0l-.88-.51c-.07 0-.06-.11 0-.16l.84-.49a.37.37 0 01.29 0zm15.06 8.67l1.83 1.06c.08 0 .07.11 0 .16l-.84.49a.31.31 0 01-.28 0l-1.83-1.06c-.08 0-.07-.11 0-.16l.84-.49a.34.34 0 01.28 0zm.54-1.06l.88.51c.07 0 .07.11 0 .16l-.84.49a.31.31 0 01-.28 0l-.89-.51c-.07 0-.06-.12 0-.16l.85-.49a.31.31 0 01.28 0zm-1.25-.73l.88.52c.07 0 .06.11 0 .16l-.84.49a.37.37 0 01-.29 0l-.88-.51c-.07 0-.06-.12 0-.17l.84-.48a.33.33 0 01.29-.01zm-1.29-.72l.89.51c.07 0 .06.12 0 .17l-.85.48a.28.28 0 01-.28 0l-.88-.51c-.07 0-.06-.11 0-.16l.84-.49a.34.34 0 01.28 0zm-1.22-.71l.89.51c.07 0 .06.12 0 .16l-.85.49a.31.31 0 01-.28 0l-.88-.51c-.08 0-.07-.11 0-.16l.84-.49a.31.31 0 01.28 0zm-1.25-.73l.89.51c.07 0 .06.11 0 .16l-.85.49a.31.31 0 01-.28 0l-.88-.51c-.08 0-.07-.12 0-.16l.84-.49a.31.31 0 01.28 0zm-1.25-.73l.89.52c.07 0 .06.11 0 .16l-.85.49a.34.34 0 01-.28 0l-.89-.51c-.07 0-.06-.12 0-.17l.85-.48a.31.31 0 01.28-.01zm-1.28-.72l.88.51c.08 0 .07.12 0 .17l-.84.48a.31.31 0 01-.28 0l-.89-.52c-.07 0-.06-.11 0-.16l.85-.49a.34.34 0 01.28.01zm-1.22-.72l.88.51c.08 0 .07.12 0 .16l-.84.49a.31.31 0 01-.28 0l-.89-.51c-.07 0-.06-.11 0-.16l.85-.49a.31.31 0 01.28 0zm-1.25-.72l.88.51c.07 0 .07.11 0 .16l-.84.49a.31.31 0 01-.28 0l-.89-.51c-.07 0-.06-.11 0-.16l.85-.49a.31.31 0 01.28 0zm-1.25-.72l.88.51c.07 0 .06.11 0 .16l-.84.49a.37.37 0 01-.29 0l-.88-.51c-.07 0-.06-.12 0-.17l.84-.48a.3.3 0 01.29 0zm-1.28-.73l.88.51c.07 0 .06.12 0 .17l-.84.48a.33.33 0 01-.29 0l-.88-.52c-.07 0-.06-.11 0-.16l.84-.49a.37.37 0 01.29.01zm-2.77-1.61l2.43 1.4c.07 0 .06.12 0 .16l-.85.49a.28.28 0 01-.28 0L292.08 97c-.07 0-.06-.12 0-.16l.84-.49a.3.3 0 01.31-.03zm16.56 9.56l1.21.7c.07 0 .06.11 0 .16l-.84.49a.34.34 0 01-.28 0l-1.21-.7c-.07 0-.06-.11 0-.16l.85-.49a.31.31 0 01.27 0zm-21.46-6.73l17.77 10.25c.07 0 .06.12 0 .17l-.42.24a.31.31 0 01-.28 0l-17.8-10.25c-.07 0-.06-.11 0-.16l.42-.24a.3.3 0 01.31-.01z"/><path id="_Контур_45" data-name="&lt;Контур&gt;" class="cls-25" d="M309.12 99.6l-.12.07-3.07 1.77-5.46-3.15-.11-.06 3.19-1.84 5.57 3.21z"/><path id="_Контур_46" data-name="&lt;Контур&gt;" class="cls-26" d="M309 99.67l-3.07 1.77-5.46-3.15 3.08-1.77 5.45 3.15z"/><path id="_Контур_47" data-name="&lt;Контур&gt;" class="cls-26" d="M317.87 103.74v.26a1.12 1.12 0 01-.55 1l-10.83 6.25a1.09 1.09 0 01-.56.15 1.15 1.15 0 01-.56-.15l-19.58-11.3a1.11 1.11 0 01-.56-1v-.28l20.7 12z"/><path id="_Контур_48" data-name="&lt;Контур&gt;" class="cls-20" d="M305.62 110.8a1.33 1.33 0 01-1.15-.09L285 99.46a1.33 1.33 0 01-.65-.93L282.2 85.8a1.5 1.5 0 010-.22 1.33 1.33 0 01.39-.94l20.26 11.7a1 1 0 01.48.69z"/><path id="_Контур_49" data-name="&lt;Контур&gt;" class="cls-26" d="M305.93 110.64l-.13.07a.76.76 0 01-.18.09L303.31 97a1 1 0 00-.48-.69l-20.26-11.7a1.05 1.05 0 01.27-.2l20.31 11.72a1 1 0 01.47.68z"/></g></g><path id="_Контур_50" data-name="&lt;Контур&gt;" class="cls-19" d="M320.65 56.16s-.25 4.85-.14 5.28 2.22 1.85 2.84 2.35-3.35 4.42-5.28 5.31-8-1.45-8.14-4.45 1-5.52 2-5.65 8.72-2.84 8.72-2.84z"/><path id="_Контур_51" data-name="&lt;Контур&gt;" class="cls-20" d="M321.19 62.27s-3.51 5.24-8.42 5.73c-1.54-1.52-1.68-7 .46-8.68 0 0-2-1.59-3.32-1.28a6.93 6.93 0 00-3 3.87 31.33 31.33 0 00-1.73 11.21c.08 5.14 0 18.13 0 18.13a11 11 0 005.17 7.43 16 16 0 0011.65 1.61c2.48-.58 3.4-2 4.26-3.77-.22-3.6-1.65-11-1.05-15.55s1.56-7.91 1.81-11.57-.49-3.59-2.32-4.89a28.56 28.56 0 00-3.51-2.24z"/><path id="_Контур_52" data-name="&lt;Контур&gt;" class="cls-19" d="M315.55 104a28.93 28.93 0 012.76-1.58 5.59 5.59 0 002.35-1.42c.87-.85 2.28-4 3.28-7.15A32 32 0 00325.13 83c-.43-4.36-2-10.47-2.4-13s.41-3.52 1.58-4.44c1.37-1.09 3.27-.61 4.28 2.91a68.3 68.3 0 012.26 14.92 34.15 34.15 0 01-1.71 11 40.2 40.2 0 01-4.2 8.65c-.48.82-.64 1.54-1.38 3.2a11.17 11.17 0 01-3.21 4.27c-1.24.89-1.82 1-2.11.84s-.29-.6.23-1.07a9.29 9.29 0 002.2-2.46s-1.08 1.08-1.78 1.67a9.48 9.48 0 01-2.06 1.31c-.72.32-1.72-.29-1.21-.78s1-.72 2.06-1.61a9.31 9.31 0 001.46-1.59 16.94 16.94 0 01-2.29 1.48 3.79 3.79 0 01-2.08.56c-.38 0-.84-.54-.13-1.06a13.87 13.87 0 002.73-1.86c.79-.78 1.23-1.44 1-1.46s-.65.48-1.57.77-1.91 0-2-.48-.11-.33.75-.77z"/><path id="_Контур_53" data-name="&lt;Контур&gt;" class="cls-19" d="M309.69 48.94c.58-3.76 3.28-6.6 7.16-6.39a7.45 7.45 0 013.8 13.61 8 8 0 01-.6 1.65c-1.37 1.6-5.52 2.59-6.71 2.42a3.56 3.56 0 01-3.09-2.53c-1.25-2.95-.88-6.9-.56-8.76z"/><path class="cls-24" d="M320.65 56.16l-.36-3.28s2.68-6.94-3.65-5.6c-4.18.88-5.23 1.26-6.5-1.55s3.21-5.32 8.54-4.62a7.36 7.36 0 016.59 7.47c-.14 2.06-.69 6.24-4.62 7.58z"/><path class="cls-23" d="M331.49 75s-3.46 3.44-7.55 2.45c-.58-.4-2-8.43-2-8.43s0-4.45 3.41-4.34S331.49 75 331.49 75zm-26.1-6.67a3.81 3.81 0 01-2.55-1.15c.14-1.79 2.44-8.63 7.07-9.14a8.61 8.61 0 00-2.89 3.5 45.75 45.75 0 00-1.63 6.79z"/></g><path class="cls-1" d="M425.06 388.31a28.43 28.43 0 00-5.1-3.71c-13.85-8-36.37-8-50.21 0a27.19 27.19 0 00-5.84 4.44c-7.61 7.81-5.66 17.91 5.84 24.55 13.84 8 36.37 8 50.21 0 11.86-6.85 13.56-17.38 5.1-25.28zM415.55 411c-11.41 6.59-30 6.59-41.38 0-8-4.62-10.4-11.28-7.17-17.12a18.64 18.64 0 017.17-6.77c11.41-6.58 30-6.58 41.38 0a18.5 18.5 0 017.15 6.77c3.24 5.88.85 12.53-7.15 17.12z"/><path class="cls-29" d="M422.7 393.92a18.5 18.5 0 00-7.15-6.77c-11.41-6.58-30-6.58-41.38 0a18.64 18.64 0 00-7.17 6.77l-3.09-4.92-.56-.89 4-9.55 13.89-7.72 25.86.45 17.57 10.42s.32 3.3.36 6.56c.07 4.08-.33 8.05-2.33 5.65z"/><path class="cls-1" d="M359.37 399l.01-10.85 5.38 9.11-5.39 1.74zm70.97 0v-10.79l-4.74 5.37 4.74 5.42z"/><ellipse cx="395.18" cy="393.58" rx="29.54" ry="17.05" fill="#3e7eff" opacity=".1"/><path class="cls-1" d="M362.07 400.83s4.55 17.92 38.48 17c23.55 0 26.56-20.24 26-23.12a28.24 28.24 0 01-20.81 11.58c-14.33 1.25-24.91 1.09-30.57-1.65s-13.09-9.93-13.09-9.93z"/><path class="cls-3" d="M369.75 403.25c-13.84-8-13.84-21 0-29s36.37-8 50.21 0 13.84 21 0 29-36.37 7.99-50.21 0zm45.79-26.44c-11.41-6.58-30-6.59-41.37 0s-11.41 17.3 0 23.89 30 6.59 41.37 0 11.46-17.3 0-23.89z"/><ellipse class="cls-16" cx="319.57" cy="438.88" rx="3.9" ry="6.75" transform="rotate(-30 319.598 438.896)"/><path class="cls-1" d="M373.39 407.78l-14.94 8.63-4.61-2.67 14.94-8.62 4.61 2.66z"/><path class="cls-29" d="M373.39 413.1l-14.94 8.62v-5.32l14.94-8.63v5.33z"/><path class="cls-10" d="M361.5 420.18a10.56 10.56 0 00-4.77-8.27 3.38 3.38 0 00-3.33-.36L316.22 433l6.78 11.64 36.72-21.2c1.09-.39 1.78-1.53 1.78-3.26z"/><ellipse class="cls-10" cx="319.57" cy="438.88" rx="3.9" ry="6.75" transform="rotate(-30 319.598 438.896)"/><g id="Men_1"><ellipse class="cls-6" cx="423.93" cy="486.82" rx="22.69" ry="13.1"/><path id="_Контур_54" data-name="&lt;Контур&gt;" class="cls-19" d="M439.85 392.73c.24 2.11 2.76 11.21 2.22 14.32s-9.14 8.33-9.14 8.33l-1.19-5.33 4.76-4.67-1.29-8.83z"/><path id="_Контур_55" data-name="&lt;Контур&gt;" class="cls-23" d="M433.2 383.76a3.77 3.77 0 014.79 1.45c1.26 2.09 2.57 9.28 2.69 10.5 0 0-1.77 2.46-4.43 2.05z"/><path class="cls-18" d="M423.38 485.22a7.4 7.4 0 01-5.56-.68c-1.34 0-8.62-3.07-9.61-.46-.86 2.3 2.29 4.42 4 4.82 3.68.89 6.39 2.73 7.87 3 1.1.23 2.52.38 3.4-.48 1.02-1 .93-4.84-.1-6.2z"/><path class="cls-21" d="M420.05 491.3c-1.48-.31-4.19-2.14-7.87-3-1.41-.34-3.84-1.89-4.09-3.73-.32 2.11 2.52 4 4.09 4.36 3.68.89 6.39 2.73 7.87 3 1.1.23 2.52.38 3.4-.48a2.22 2.22 0 00.48-.88 4.41 4.41 0 01-3.88.73z"/><path class="cls-18" d="M435.18 479.92a7.35 7.35 0 01-5.56-.67c-1.34 0-8.62-3.08-9.61-.46-.86 2.29 2.29 4.41 4 4.82 3.67.89 6.39 2.72 7.87 3 1.1.23 2.52.38 3.4-.48 1.02-1.01.93-4.85-.1-6.21z"/><path class="cls-21" d="M431.85 486c-1.48-.31-4.2-2.14-7.87-3-1.41-.34-3.84-1.88-4.09-3.72-.32 2.11 2.52 4 4.09 4.36 3.67.89 6.39 2.72 7.87 3 1.1.23 2.52.38 3.4-.48a2.22 2.22 0 00.48-.88 4.38 4.38 0 01-3.88.72z"/><path id="_Контур_56" data-name="&lt;Контур&gt;" class="cls-22" d="M435.32 460.15a44.45 44.45 0 00-1.67-8s.5-6.88.75-13.4c.28-7.4 2.85-13.91.82-19.81l-22.82 5.07s1.38 29.5 1.68 33.07a66.94 66.94 0 001 8.28c1 5.73 2.73 19.35 2.73 19.35a8.52 8.52 0 005.58.62s-.17-17.22-.33-21.35c-.19-5-.34-4.65-.34-4.65l.76-12.55.49-6.24s.63 4.58 1 8.67c.36 3.57 1.22 6.8 2.18 13.44.84 5.76 2.19 17.34 2.19 17.34 2.42 1.4 5.69.24 5.69.24s.97-15.08.29-20.08z"/><path id="_Контур_57" data-name="&lt;Контур&gt;" class="cls-19" d="M432 383.88c-1.74.09-3 .54-3.25 0a24.73 24.73 0 01-.4-2.71c.2-.51.38-1.05.38-1.05 2.18-1.34 2.87-3.7 3.16-6.45.49-4.7-2.05-8.81-6.75-9.3-4.41-.46-7.66 2.65-8.53 6.91-.46 2.1-1.39 6.07-.14 9.53.71 1.94 1.61 3.47 2.52 3.77a20.09 20.09 0 002.61-.23s.23 1.3.39 2.14.1 1.28-1.57 2.3 2.52 3.14 5.26 2.93 5.81-1.86 6.66-3.62c.93-1.95.84-4.27-.34-4.22z"/><path id="_Контур_58" data-name="&lt;Контур&gt;" class="cls-20" d="M429.48 384.14c.48 1.2-.75 2.67-4 3.7s-3.56-.3-3.56-.3a66.49 66.49 0 00-6.35 3.27c-2 1.37-2.82 5.34-3.09 12-.3 7.74-.33 19.23-.07 21.21 0 0 3.66 3.65 8.35 3.27s12.57-4.53 14.48-7.74c-.05-6.79-.85-7.89.25-11.8 2.52-9 3.84-12.62 2.62-18.57-1-4.91-2.42-5.52-4.36-5.47a41.07 41.07 0 00-4.27.43z"/><path id="_Контур_59" data-name="&lt;Контур&gt;" class="cls-19" d="M405.1 409.24c3.85 1 4.75-1.45 5.26-3.46 1.22-4.86 1.88-9.25 2.79-12 1.08-3.26 2.2-3.78 3.79-4.41 1.85-.75 3.45.82 2.83 5a82.82 82.82 0 01-3.52 14.13c-.48 1.52-1.55 4.21-3.16 5.51-2 1.6-5 1.53-9.5.41-1.92-.48-4-1.63-7.69-3.33-1-.46-1.74-.76-3.62-1.64a12.94 12.94 0 01-4.82-3.76c-1-1.43-1.11-2.1-.91-2.42s.7-.32 1.22.28a10.72 10.72 0 002.77 2.56s-1.22-1.26-1.87-2.07a10.55 10.55 0 01-1.46-2.38c-.35-.83.37-2 .91-1.37s.81 1.2 1.8 2.39a10.35 10.35 0 001.78 1.7 19.53 19.53 0 01-1.64-2.64 4.45 4.45 0 01-.6-2.39c0-.43.65-.95 1.22-.12a16.2 16.2 0 002.07 3.15c.88.91 1.62 1.44 1.64 1.18s-.53-.75-.84-1.81 0-2.18.59-2.31.47-.09.94.91a28.49 28.49 0 011.75 3.17 6.56 6.56 0 001.58 2.73c.95.96 3.04 2.07 6.69 2.99z"/><path id="_Контур_60" data-name="&lt;Контур&gt;" class="cls-23" d="M418.36 388.69c-2.57-.37-4.38.78-5.52 4.67s-1.92 7.09-1.92 7.09a7 7 0 004.3 2.86c3.07.74 4.18-.73 4.18-.73s.85-4.08 1.38-6.85.76-6.57-2.42-7.04z"/><path class="cls-18" d="M416.75 370.67s-4.05-6.16 4.74-7.42c6.34-.91 10.41 3.17 10.88 7.59.45 4.22-2.15 8.61-4 10.35a7.68 7.68 0 01-5.48-.67 33.14 33.14 0 01-.12-3.45s3.06-6.51-6.02-6.4z"/></g></g></g></svg>