<?xml version="1.0" encoding="UTF-8"?>
<svg width="155px" height="125px" viewBox="0 0 155 125" version="1.1" xmlns="http://www.w3.org/2000/svg" xmlns:xlink="http://www.w3.org/1999/xlink">
    <!-- Generator: Sketch 58 (84663) - https://sketch.com -->
    <title>缺省图</title>
    <desc>Created with Sketch.</desc>
    <defs>
        <linearGradient x1="95.5398642%" y1="40.9805352%" x2="5.8914206%" y2="61.0915465%" id="linearGradient-1">
            <stop stop-color="#C2D2F2" offset="0%"></stop>
            <stop stop-color="#D1DCF3" offset="100%"></stop>
        </linearGradient>
        <filter x="-24.3%" y="-33.7%" width="148.7%" height="167.3%" filterUnits="objectBoundingBox" id="filter-2">
            <feGaussianBlur stdDeviation="10" in="SourceGraphic"></feGaussianBlur>
        </filter>
        <linearGradient x1="95.5398642%" y1="40.6517292%" x2="5.8914206%" y2="61.4958905%" id="linearGradient-3">
            <stop stop-color="#A3B9E4" offset="0%"></stop>
            <stop stop-color="#C2D2F2" offset="50.1076627%"></stop>
            <stop stop-color="#D1DCF3" offset="55.7456075%"></stop>
            <stop stop-color="#D4DEF3" offset="100%"></stop>
        </linearGradient>
        <path d="M7.6992912,61.88226 L59.7056507,86.3658095 C63.0134147,87.9230383 66.956011,87.0397337 69.2831656,84.22005 L109.012981,36.0816426 C111.122262,33.5259438 110.760369,29.7442302 108.204671,27.6349489 C107.814592,27.3130077 107.385373,27.0416804 106.927223,26.8274224 L55.4122282,2.73592989 C52.1347442,1.20318234 48.2364904,2.06103275 45.9052123,4.82804547 L5.66640771,52.5878069 C3.53130697,55.1219752 3.85481512,58.9071656 6.38898339,61.0422663 C6.78742949,61.3779672 7.22790385,61.6603403 7.6992912,61.88226 Z" id="path-4"></path>
        <filter x="-20.8%" y="-26.9%" width="141.5%" height="153.7%" filterUnits="objectBoundingBox" id="filter-6">
            <feGaussianBlur stdDeviation="2" in="SourceGraphic"></feGaussianBlur>
        </filter>
        <filter x="-20.8%" y="-26.9%" width="141.5%" height="153.7%" filterUnits="objectBoundingBox" id="filter-7">
            <feGaussianBlur stdDeviation="2" in="SourceGraphic"></feGaussianBlur>
        </filter>
        <filter x="-31.0%" y="-40.1%" width="161.9%" height="180.1%" filterUnits="objectBoundingBox" id="filter-8">
            <feGaussianBlur stdDeviation="5" in="SourceGraphic"></feGaussianBlur>
        </filter>
        <linearGradient x1="91.4681993%" y1="39.217265%" x2="50%" y2="79.8683495%" id="linearGradient-9">
            <stop stop-color="#48CBB2" offset="0%"></stop>
            <stop stop-color="#70DAC6" offset="100%"></stop>
        </linearGradient>
        <linearGradient x1="36.423577%" y1="27.8579757%" x2="116.765745%" y2="117.337624%" id="linearGradient-10">
            <stop stop-color="#FFFFFF" stop-opacity="0.517509834" offset="0%"></stop>
            <stop stop-color="#FFFFFF" offset="100%"></stop>
        </linearGradient>
        <polygon id="path-11" points="0.995361433 16.4897629 14.0357086 0.916225325 32.1318261 9.66306666 19.2022986 24.9814494"></polygon>
        <polygon id="path-13" points="1.16332285 14.5735375 13.20367 0 31.2997875 8.74684134 19.37026 23.0652241"></polygon>
    </defs>
    <g id="极光社区设计" stroke="none" stroke-width="1" fill="none" fill-rule="evenodd">
        <g id="首页未登录" transform="translate(-1289.000000, -162.000000)">
            <g id="分组-13备份" transform="translate(1177.000000, 129.000000)">
                <g id="缺省图" transform="translate(112.000000, 34.000000)">
                    <path d="M34.8438703,76.7101048 L85.9383892,100.860145 C89.2443402,102.422717 93.1889995,101.544855 95.5202776,98.7277495 L131.239579,55.564711 C133.352228,53.0117955 132.995321,49.229608 130.442406,47.1169589 C130.05341,46.7950479 129.625336,46.5235264 129.168333,46.3088329 L78.5139714,22.5120956 C75.2380337,20.9731042 71.3368959,21.8253193 69.0011516,24.5901991 L32.8244267,67.4135074 C30.6859742,69.9448479 31.0044729,73.7304632 33.5358134,75.8689157 C33.933493,76.2048716 34.3732047,76.4876428 34.8438703,76.7101048 Z" id="路径-8" fill="url(#linearGradient-1)" opacity="0.6" filter="url(#filter-2)"></path>
                    <path d="M28.3127522,65.622695 L79.7886779,89.9846657 C83.5125081,91.7470399 87.9575569,90.7559155 90.5799506,87.578507 L129.81649,40.037775 C131.925771,37.4820762 131.563878,33.7003627 129.008179,31.5910814 C128.621301,31.2717808 128.195907,31.0022569 127.741956,30.7888179 L76.0538202,6.48607968 C72.7739493,4.94394932 68.8670763,5.79946599 66.5318391,8.57117782 L26.2909143,56.3334556 C24.1558136,58.8676239 24.4793218,62.6528143 27.01349,64.7879151 C27.4088094,65.1209816 27.8455132,65.4015651 28.3127522,65.622695 Z" id="路径-8备份-3" fill="url(#linearGradient-3)"></path>
                    <path d="M127.179782,38.8135216 L127.89387,42.3572848 C129.182997,40.7937697 130.063557,39.729666 130.53555,39.1649738 C131.269628,38.3051633 131.577057,37.5690239 131.761021,36.631348 C132.008612,35.1777621 131.850974,33.512335 131.535184,32.5008123 C131.219394,31.4892896 129.932265,29.0899009 128.132586,28.0376235 C127.610004,26.2911097 127.292403,29.8830757 127.179782,38.8135216 Z" id="路径-10" fill="#738FC2"></path>
                    <g id="路径-11" transform="translate(20.179817, 0.277323)">
                        <mask id="mask-5" fill="white">
                            <use xlink:href="#path-4"></use>
                        </mask>
                        <use id="蒙版" fill="#F9FAFE" xlink:href="#path-4"></use>
                        <polygon fill="#A8B7D4" opacity="0.3" filter="url(#filter-6)" mask="url(#mask-5)" points="79.1546192 60.5709157 91.263513 46.1097737 108.067051 54.2318407 96.0610609 68.4560532"></polygon>
                        <polygon fill="#A8B7D4" opacity="0.3" filter="url(#filter-7)" mask="url(#mask-5)" points="-4.67741935 54.6546904 7.43147446 40.1935484 24.2350121 48.3156153 12.2290223 62.5398279"></polygon>
                        <polygon id="矩形" fill-opacity="0.3" fill="#D3DDF3" mask="url(#mask-5)" transform="translate(64.096622, 40.770461) rotate(25.000000) translate(-64.096622, -40.770461) " points="39.7197187 24.9497182 96.5477703 25.3239546 88.9072633 56.591203 31.6454742 56.1436349"></polygon>
                        <polygon id="矩形备份-5" fill="#9AB1DE" opacity="0.3" mask="url(#mask-5)" transform="translate(46.460891, 59.491757) rotate(25.000000) translate(-46.460891, -59.491757) " points="21.352392 57.8817318 72.4748067 57.7871931 71.7888222 61.1963219 20.4469743 61.1263975"></polygon>
                        <polygon id="矩形备份-8" fill="#9AB1DE" opacity="0.3" mask="url(#mask-5)" transform="translate(33.512237, 62.142786) rotate(25.000000) translate(-33.512237, -62.142786) " points="16.7247339 60.5613544 51.2051572 60.438222 50.5191726 63.8473508 15.8193162 63.8060201"></polygon>
                    </g>
                    <path d="M66.0850296,5.10536854 C68.4163076,2.33835581 72.3145614,1.4805054 75.5920455,3.01325296 L75.5920455,3.01325296 L127.107041,27.1047455 C127.56519,27.3190035 127.99441,27.5903307 128.384488,27.912272 C130.940187,30.0215533 131.30208,33.8032668 129.192798,36.3589657 L129.192798,36.3589657 L127.164991,38.8135216 L62.8209913,8.97852157 Z" id="形状结合" fill="#9AB1DE"></path>
                    <path d="M71.5945335,8.66069839 C72.4496841,8.66069839 73.1364063,8.06848632 73.1364063,7.42712339 C73.1364063,6.78576045 72.4496841,6.19354839 71.5945335,6.19354839 C70.739383,6.19354839 70.0396321,6.78576045 70.0396321,7.42712339 C70.0396321,8.06848632 70.739383,8.66069839 71.5945335,8.66069839 Z" id="椭圆形" fill="#738FC2"></path>
                    <path d="M76.2619781,10.7135262 C77.1171286,10.7135262 77.8038508,10.1213142 77.8038508,9.47995123 C77.8038508,8.83858829 77.1171286,8.24637622 76.2619781,8.24637622 C75.4068275,8.24637622 74.7070766,8.83858829 74.7070766,9.47995123 C74.7070766,10.1213142 75.4068275,10.7135262 76.2619781,10.7135262 Z" id="椭圆形备份" fill="#738FC2"></path>
                    <path d="M81.0090316,12.7140002 C81.8641822,12.7140002 82.5509044,12.1217881 82.5509044,11.4804252 C82.5509044,10.8390622 81.8641822,10.2468502 81.0090316,10.2468502 C80.1538811,10.2468502 79.4541302,10.8390622 79.4541302,11.4804252 C79.4541302,12.1217881 80.1538811,12.7140002 81.0090316,12.7140002 Z" id="椭圆形备份-2" fill="#738FC2"></path>
                    <g id="编组" transform="translate(54.978699, 10.290323)">
                        <polygon id="路径-11" fill="#18AD91" opacity="0.4" filter="url(#filter-8)" points="4.9061567 38.9320903 25.1885538 14.7096774 53.3344794 28.3141396 33.2244465 52.1396956"></polygon>
                        <polygon id="路径-11备份" fill="url(#linearGradient-9)" points="1.03518895 24.2224128 21.3175861 0 49.4635117 13.6044621 29.3534788 37.4300181"></polygon>
                        <g id="Group" transform="translate(24.521301, 17.709677) rotate(26.000000) translate(-24.521301, -17.709677) translate(15.021301, 10.709677)">
                            <path d="M15.8852511,11.0027473 C14.8363853,9.91978022 11.8572306,6.42857143 7.53066868,6.69065934 C3.20410676,6.95274725 2.06154268,9.71703297 0.988044214,13.4604396 L0.686690729,13.4604396 C0.700793728,13.374796 0.719862669,13.2889403 0.743803327,13.2032967 C1.93548408,7.79340659 8.25590051,0 12.0154087,0 C15.774917,0 19.0434696,7.79340659 17.8397118,13.2131868 C17.747453,13.6285714 17.4516531,12.9807692 16.8934835,12.2241758 C16.5872296,11.8236264 16.2721981,11.3736264 15.8852511,11.0027473 Z" id="Path" fill="url(#linearGradient-10)"></path>
                            <path d="M0.372286159,13.1489011 C1.52549916,7.69450549 8.14689805,0 11.9409878,0 C12.6094263,0.0206738039 13.2251452,0.21301611 13.7297689,0.558791209 C14.3013219,0.955930282 14.8045253,1.4326181 15.227944,1.97802198 C13.3628845,0.331318681 11.4247768,0.548901099 10.3797291,1.54285714 C8.38645113,3.4467033 7.63917364,9.08406593 10.151848,11.0324176 C10.8473241,11.5516484 6.28813404,12.8571429 3.86661796,13.3516484 C1.44510188,13.8461538 0.173636594,14.0884615 0.372286159,13.1489011 Z" id="路径" fill="#F0FFFB"></path>
                        </g>
                        <polygon id="矩形" fill="#12AA8E" transform="translate(39.599636, 26.377088) rotate(-50.000000) translate(-39.599636, -26.377088) " points="24.5464978 25.6327625 55.7179351 25.7120262 54.6527751 27.1214142 23.4813378 27.0421505"></polygon>
                        <polygon id="矩形备份" fill="#16C8A7" transform="translate(15.399907, 31.688358) scale(-1, 1) rotate(-25.000000) translate(-15.399907, -31.688358) " points="0.290966407 30.9746219 31.5740082 30.9927061 30.5088483 32.4020941 -0.774193548 32.3840099"></polygon>
                    </g>
                    <g id="路径-11备份-2" transform="translate(90.175179, 54.193548)"></g>
                    <g id="编组-15" transform="translate(97.000000, 39.000000)">
                        <mask id="mask-12" fill="white">
                            <use xlink:href="#path-11"></use>
                        </mask>
                        <use id="蒙版" fill="#F6F8FE" xlink:href="#path-11"></use>
                        <path d="M8.1758305,13.2333119 L13.9700362,6.32852989 L25.3619898,11.8696679 L19.6357082,18.6119455 L14.6424324,16.2683777 L8.69065407,15.8260676 L10.2503518,14.2069776 L8.1758305,13.2333119 Z M9.77745658,12.8803618 L11.939363,13.8950413 L10.8878493,14.9865959 L14.8084751,15.2779596 L14.9838571,15.3239586 L19.3684511,17.3818449 L23.7651978,12.2049973 L14.2344089,7.56914482 L9.77745658,12.8803618 Z" id="蒙版备份" fill="#9CB3DF" fill-rule="nonzero" mask="url(#mask-12)"></path>
                        <polygon id="矩形" fill="#BCCEF4" transform="translate(25.789955, 17.875088) rotate(-50.000000) translate(-25.789955, -17.875088) " points="16.1117024 17.3965319 36.1530397 17.4474936 35.4682067 18.3536443 15.4268693 18.3026826"></polygon>
                        <polygon id="矩形备份" fill="#D2DDF3" transform="translate(10.231001, 21.289911) scale(-1, 1) rotate(-25.000000) translate(-10.231001, -21.289911) " points="0.516871621 20.8310224 20.629964 20.8426494 19.9451309 21.7488002 -0.167961416 21.7371731"></polygon>
                        <polygon id="矩形" fill="#9CB3DF" transform="translate(14.022136, 11.325135) rotate(40.000000) translate(-14.022136, -11.325135) " points="13.514286 10.9647688 14.5299858 10.6855019 14.5299858 11.6855019 13.514286 11.9647688"></polygon>
                        <polygon id="矩形备份-12" fill="#9CB3DF" transform="translate(16.781015, 12.666426) rotate(40.000000) translate(-16.781015, -12.666426) " points="16.2731646 12.3060599 17.2888644 12.026793 17.2888644 13.026793 16.2731646 13.3060599"></polygon>
                        <polygon id="矩形备份-18" fill="#9CB3DF" transform="translate(19.589758, 13.909077) rotate(40.000000) translate(-19.589758, -13.909077) " points="19.0819084 13.5487106 20.0976082 13.2694437 20.0976082 14.2694437 19.0819084 14.5487106"></polygon>
                    </g>
                    <g id="编组-15备份" transform="translate(13.000000, 35.000000)">
                        <g id="编组-16">
                            <mask id="mask-14" fill="white">
                                <use xlink:href="#path-13"></use>
                            </mask>
                            <use id="蒙版" fill="#F6F8FE" xlink:href="#path-13"></use>
                            <polygon id="矩形" fill="#BCCEF4" transform="translate(25.457916, 16.458863) rotate(-50.000000) translate(-25.457916, -16.458863) " points="16.4840798 16.041935 35.1165851 15.9696399 34.4317521 16.8757906 15.7992468 16.9480857"></polygon>
                            <polygon id="矩形备份" fill="#D2DDF3" transform="translate(10.398963, 19.373686) scale(-1, 1) rotate(-25.000000) translate(-10.398963, -19.373686) " points="0.684833037 18.9147971 20.7979254 18.9264241 20.1130923 19.8325748 3.05716044e-12 19.8209478"></polygon>
                            <path d="M22.703031,9.88958362 L23.0218672,14.5948888 L17.0769386,15.4887685 L16.8985123,14.3021076 L21.7498482,13.5726606 L21.5057765,9.97071079 L22.703031,9.88958362 Z M19.1278702,8.48966642 L19.8367818,9.4578835 L13.7170261,13.9386616 L13.0081145,12.9704445 L19.1278702,8.48966642 Z M15.6236448,7.25165977 L15.8394656,8.43209248 L10.8785444,9.33910735 L11.6295212,13.011377 L10.4538527,13.2518005 L9.45737839,8.37905026 L15.6236448,7.25165977 Z" id="形状结合" fill="#ACC0E8" fill-rule="nonzero"></path>
                        </g>
                    </g>
                    <rect id="矩形" fill-opacity="0.01" fill="#FFFFFF" x="0" y="69" width="4" height="7"></rect>
                </g>
            </g>
        </g>
    </g>
</svg>