<?xml version="1.0" encoding="UTF-8"?>
<svg width="56px" height="56px" viewBox="0 0 56 56" version="1.1" xmlns="http://www.w3.org/2000/svg" xmlns:xlink="http://www.w3.org/1999/xlink">
    <!-- Generator: Sketch 58 (84663) - https://sketch.com -->
    <title>提问问题</title>
    <desc>Created with Sketch.</desc>
    <defs>
        <linearGradient x1="61.280938%" y1="4.01682673%" x2="38.3700034%" y2="100.420668%" id="linearGradient-1">
            <stop stop-color="#2788FF" offset="0%"></stop>
            <stop stop-color="#1AE2A4" offset="100%"></stop>
        </linearGradient>
        <linearGradient x1="64.0569395%" y1="23.5371196%" x2="35.508106%" y2="79.0166168%" id="linearGradient-2">
            <stop stop-color="#2788FF" offset="0%"></stop>
            <stop stop-color="#1AE2A4" offset="100%"></stop>
        </linearGradient>
    </defs>
    <g id="极光社区设计" stroke="none" stroke-width="1" fill="none" fill-rule="evenodd">
        <g id="首页已登录" transform="translate(-1430.000000, -506.000000)">
            <g id="操作" transform="translate(1175.000000, 472.000000)">
                <g id="编组-26" transform="translate(255.000000, 34.000000)">
                    <g id="编组-25" transform="translate(4.000000, 2.000000)">
                        <path d="M3,5 L3,50 L43,50 L43,53 L0,53 L0,5 L3,5 Z" id="形状结合" fill="url(#linearGradient-1)"></path>
                        <path d="M2,0 L47,0 L47,51 L2,51 L2,0 Z M4,2 L4,49 L45,49 L45,2 L4,2 Z" id="矩形" fill="#00223B" fill-rule="nonzero"></path>
                        <rect id="矩形" fill="#00223B" x="9" y="33" width="30" height="2"></rect>
                        <rect id="矩形备份-11" fill="#00223B" x="9" y="41" width="21" height="2"></rect>
                        <polygon id="路径-4" fill="url(#linearGradient-2)" points="21.0499044 20.247265 21.0499044 23.8256539 32.2966001 23.8256539 36.3927352 25.5 36.3927352 23.8256539 38.648678 23.8256539 38.648678 12.1493782 28.3335742 12.1493782 28.3335742 20.247265"></polygon>
                        <polygon id="路径" fill="#00223B" fill-rule="nonzero" points="40 11 40 25 37.3518138 25 37.3518138 27.4189531 32.287349 25 20 25 20 20 22 20 22 23 32.7404653 23 35.3518138 24.247265 35.3518138 23 38 23 38 13 28 13 28 11"></polygon>
                        <path d="M9,7 L29,7 L29,21 L16.712651,21 L11.6481862,23.4189531 L11.6481862,21 L9,21 L9,7 Z M11,9 L11,19 L13.6481862,19 L13.6481862,20.247265 L16.2595347,19 L27,19 L27,9 L11,9 Z" id="矩形" fill="#00223B" fill-rule="nonzero"></path>
                    </g>
                </g>
            </g>
        </g>
    </g>
</svg>